{
.appVersion = "3308";
.formatVersion = 3;
axes = (
{
name = Weight;
tag = wght;
}
);
classes = (
{
automatic = 1;

glyphs = (
{
glyphname = A;
kernLeft = A;
kernRight = A;
layers = (
{
anchors = (
{
name = bottom;
pos = (276,0);
},
{
name = ogonek;
pos = (530,10);
},
{
name = top;
pos = (392,660);
}
);
background = {
anchors = (
{
name = bottom;
pos = (276,0);
},
{
name = ogonek;
pos = (530,10);
},
{
name = top;
pos = (392,660);
}
);
shapes = (
{
closed = 1;
nodes = (
(591,-5,o),
(605,-3,o),
(617,0,c),
(620,20,l),
(566,25,o),
(545,49,o),
(529,125,c),
(403,660,l),
(373,660,l),
(-23,0,l),
(22,0,l),
(135,190,l),
(415,190,l),
(429,125,ls),
(453,9,o),
(531,-5,o),
(576,-5,cs)
);
},
{
closed = 1;
nodes = (
(333,520,l),
(402,230,l),
(157,230,l)
);
}
);
};
layerId = UUID0;
shapes = (
{
closed = 1;
nodes = (
(591,-5,o),
(605,-3,o),
(617,0,c),
(620,20,l),
(566,25,o),
(545,49,o),
(529,125,c),
(403,660,l),
(373,660,l),
(-23,0,l),
(22,0,l),
(135,190,l),
(415,190,l),
(429,125,ls),
(453,9,o),
(531,-5,o),
(576,-5,cs)
);
},
{
closed = 1;
nodes = (
(333,520,l),
(402,230,l),
(157,230,l)
);
}
);
width = 634;
},
{
anchors = (
{
name = bottom;
pos = (283,0);
},
{
name = ogonek;
pos = (541,10);
},
{
name = top;
pos = (399,660);
}
);
layerId = "F7C9FF73-DC1F-4AC6-B1F4-3E0815F912B2";
shapes = (
{
closed = 1;
nodes = (
(597,-4,o),
(620,-2,o),
(631,1,c),
(635,26,l),
(591,31,o),
(564,67,o),
(549,126,cs),
(419,660,l),
(374,660,l),
(-37,0,l),
(15,0,l),
(129,182,l),
(395,182,l),
(408,126,ls),
(434,12,o),
(518,-4,o),
(582,-4,cs)
);
},
{
closed = 1;
nodes = (
(320,488,l),
(384,227,l),
(158,227,l)
);
}
);
width = 647;
}
);
unicode = 65;
},
{
glyphname = Aacute;
kernLeft = A;
kernRight = A;
layers = (
{
background = {
anchors = (
{
name = bottom;
pos = (276,0);
},
{
name = ogonek;
pos = (530,10);
},
{
name = top;
pos = (392,660);
}
);
shapes = (
{
closed = 1;
nodes = (
(591,-5,o),
(605,-3,o),
(617,0,c),
(620,20,l),
(566,25,o),
(545,49,o),
(529,125,c),
(403,660,l),
(373,660,l),
(-23,0,l),
(22,0,l),
(135,190,l),
(415,190,l),
(429,125,ls),
(453,9,o),
(531,-5,o),
(576,-5,cs)
);
},
{
closed = 1;
nodes = (
(333,520,l),
(402,230,l),
(157,230,l)
);
},
{
closed = 1;
nodes = (
(420,700,l),
(538,830,l),
(443,830,l),
(380,700,l)
);
}
);
};
layerId = UUID0;
shapes = (
{
alignment = -1;
ref = A;
},
{
alignment = -1;
pos = (277,0);
ref = acute;
}
);
width = 634;
},
{
layerId = "F7C9FF73-DC1F-4AC6-B1F4-3E0815F912B2";
shapes = (
{
alignment = -1;
ref = A;
},
{
alignment = -1;
pos = (286,0);
ref = acute;
}
);
width = 647;
}
);
unicode = 193;
},
{
glyphname = Abreve;
kernLeft = A;
kernRight = A;
layers = (
{
background = {
anchors = (
{
name = bottom;
pos = (276,0);
},
{
name = ogonek;
pos = (530,10);
},
{
name = top;
pos = (417,806);
}
);
shapes = (
{
closed = 1;
nodes = (
(591,-5,o),
(605,-3,o),
(617,0,c),
(620,20,l),
(566,25,o),
(545,49,o),
(529,125,c),
(403,660,l),
(373,660,l),
(-23,0,l),
(22,0,l),
(135,190,l),
(415,190,l),
(429,125,ls),
(453,9,o),
(531,-5,o),
(576,-5,cs)
);
},
{
closed = 1;
nodes = (
(333,520,l),
(402,230,l),
(157,230,l)
);
},
{
closed = 1;
nodes = (
(460,711,o),
(507,746,o),
(539,791,c),
(522,806,l),
(493,781,o),
(461,766,o),
(405,766,cs),
(349,766,o),
(323,781,o),
(302,806,c),
(279,791,l),
(298,746,o),
(330,711,o),
(395,711,cs)
);
}
);
};
layerId = UUID0;
shapes = (
{
ref = A;
},
{
pos = (164,190);
ref = brevecomb;
}
);
width = 634;
},
{
layerId = "F7C9FF73-DC1F-4AC6-B1F4-3E0815F912B2";
shapes = (
{
ref = A;
},
{
pos = (160,190);
ref = brevecomb;
}
);
width = 647;
}
);
unicode = 258;
},
{
glyphname = Abreveacute;
kernLeft = A;
kernRight = A;
layers = (
{
background = {
anchors = (
{
name = bottom;
pos = (276,0);
},
{
name = ogonek;
pos = (530,10);
},
{
name = top;
pos = (446,949);
}
);
shapes = (
{
closed = 1;
nodes = (
(591,-5,o),
(605,-3,o),
(617,0,c),
(620,20,l),
(566,25,o),
(545,49,o),
(529,125,c),
(403,660,l),
(373,660,l),
(-23,0,l),
(22,0,l),
(135,190,l),
(415,190,l),
(429,125,ls),
(453,9,o),
(531,-5,o),
(576,-5,cs)
);
},
{
closed = 1;
nodes = (
(333,520,l),
(402,230,l),
(157,230,l)
);
},
{
closed = 1;
nodes = (
(460,711,o),
(507,746,o),
(539,791,c),
(522,806,l),
(493,781,o),
(461,766,o),
(405,766,cs),
(349,766,o),
(323,781,o),
(302,806,c),
(279,791,l),
(298,746,o),
(330,711,o),
(395,711,cs)
);
},
{
closed = 1;
nodes = (
(439,829,l),
(565,944,l),
(480,944,l),
(389,829,l)
);
}
);
};
layerId = UUID0;
shapes = (
{
ref = A;
},
{
pos = (164,190);
ref = brevecomb_acutecomb;
}
);
width = 634;
},
{
layerId = "F7C9FF73-DC1F-4AC6-B1F4-3E0815F912B2";
shapes = (
{
ref = A;
},
{
pos = (160,190);
ref = brevecomb_acutecomb;
}
);
width = 647;
}
);
unicode = 7854;
},
{
glyphname = Abrevedotbelow;
kernLeft = A;
kernRight = A;
layers = (
{
background = {
anchors = (
{
name = bottom;
pos = (247,-161);
},
{
name = ogonek;
pos = (530,10);
},
{
name = top;
pos = (417,806);
}
);
shapes = (
{
closed = 1;
nodes = (
(591,-5,o),
(605,-3,o),
(617,0,c),
(620,20,l),
(566,25,o),
(545,49,o),
(529,125,c),
(403,660,l),
(373,660,l),
(-23,0,l),
(22,0,l),
(135,190,l),
(415,190,l),
(429,125,ls),
(453,9,o),
(531,-5,o),
(576,-5,cs)
);
},
{
closed = 1;
nodes = (
(333,520,l),
(402,230,l),
(157,230,l)
);
},
{
closed = 1;
nodes = (
(276,-161,o),
(301,-134,o),
(301,-108,cs),
(301,-87,o),
(286,-71,o),
(263,-71,cs),
(234,-71,o),
(210,-97,o),
(210,-123,cs),
(210,-146,o),
(225,-161,o),
(247,-161,cs)
);
},
{
closed = 1;
nodes = (
(460,711,o),
(507,746,o),
(539,791,c),
(522,806,l),
(493,781,o),
(461,766,o),
(405,766,cs),
(349,766,o),
(323,781,o),
(302,806,c),
(279,791,l),
(298,746,o),
(330,711,o),
(395,711,cs)
);
}
);
};
layerId = UUID0;
shapes = (
{
ref = A;
},
{
pos = (213,0);
ref = dotbelowcomb;
},
{
pos = (164,190);
ref = brevecomb;
}
);
width = 634;
},
{
layerId = "F7C9FF73-DC1F-4AC6-B1F4-3E0815F912B2";
shapes = (
{
ref = A;
},
{
pos = (214,0);
ref = dotbelowcomb;
},
{
pos = (160,190);
ref = brevecomb;
}
);
width = 647;
}
);
unicode = 7862;
},
{
glyphname = Abrevegrave;
kernLeft = A;
kernRight = A;
layers = (
{
background = {
anchors = (
{
name = bottom;
pos = (276,0);
},
{
name = ogonek;
pos = (530,10);
},
{
name = top;
pos = (391,954);
}
);
shapes = (
{
closed = 1;
nodes = (
(591,-5,o),
(605,-3,o),
(617,0,c),
(620,20,l),
(566,25,o),
(545,49,o),
(529,125,c),
(403,660,l),
(373,660,l),
(-23,0,l),
(22,0,l),
(135,190,l),
(415,190,l),
(429,125,ls),
(453,9,o),
(531,-5,o),
(576,-5,cs)
);
},
{
closed = 1;
nodes = (
(333,520,l),
(402,230,l),
(157,230,l)
);
},
{
closed = 1;
nodes = (
(460,711,o),
(507,746,o),
(539,791,c),
(522,806,l),
(493,781,o),
(461,766,o),
(405,766,cs),
(349,766,o),
(323,781,o),
(302,806,c),
(279,791,l),
(298,746,o),
(330,711,o),
(395,711,cs)
);
},
{
closed = 1;
nodes = (
(436,824,l),
(419,954,l),
(324,954,l),
(396,824,l)
);
}
);
};
layerId = UUID0;
shapes = (
{
ref = A;
},
{
pos = (164,190);
ref = brevecomb_gravecomb;
}
);
width = 634;
},
{
layerId = "F7C9FF73-DC1F-4AC6-B1F4-3E0815F912B2";
shapes = (
{
ref = A;
},
{
pos = (160,190);
ref = brevecomb_gravecomb;
}
);
width = 647;
}
);
unicode = 7856;
},
{
glyphname = Abrevehookabove;
kernLeft = A;
kernRight = A;
layers = (
{
background = {
anchors = (
{
name = bottom;
pos = (276,0);
},
{
name = ogonek;
pos = (530,10);
},
{
name = top;
pos = (424,989);
}
);
shapes = (
{
closed = 1;
nodes = (
(591,-5,o),
(605,-3,o),
(617,0,c),
(620,20,l),
(566,25,o),
(545,49,o),
(529,125,c),
(403,660,l),
(373,660,l),
(-23,0,l),
(22,0,l),
(135,190,l),
(415,190,l),
(429,125,ls),
(453,9,o),
(531,-5,o),
(576,-5,cs)
);
},
{
closed = 1;
nodes = (
(333,520,l),
(402,230,l),
(157,230,l)
);
},
{
closed = 1;
nodes = (
(460,711,o),
(507,746,o),
(539,791,c),
(522,806,l),
(493,781,o),
(461,766,o),
(405,766,cs),
(349,766,o),
(323,781,o),
(302,806,c),
(279,791,l),
(298,746,o),
(330,711,o),
(395,711,cs)
);
},
{
closed = 1;
nodes = (
(424,822,l),
(436,868,o),
(489,877,o),
(496,912,cs),
(507,966,o),
(466,989,o),
(427,989,cs),
(393,989,o),
(368,980,o),
(342,950,c),
(332,939,o),
(324,922,o),
(321,903,c),
(362,902,l),
(377,941,o),
(395,952,o),
(420,952,cs),
(439,952,o),
(451,941,o),
(445,912,cs),
(441,888,o),
(404,869,o),
(393,822,c)
);
}
);
};
layerId = UUID0;
shapes = (
{
ref = A;
},
{
pos = (164,190);
ref = brevecomb_hookabovecomb;
}
);
width = 634;
},
{
layerId = "F7C9FF73-DC1F-4AC6-B1F4-3E0815F912B2";
shapes = (
{
ref = A;
},
{
pos = (160,190);
ref = brevecomb_hookabovecomb;
}
);
width = 647;
}
);
unicode = 7858;
},
{
glyphname = Abrevetilde;
kernLeft = A;
kernRight = A;
layers = (
{
background = {
anchors = (
{
name = bottom;
pos = (276,0);
},
{
name = ogonek;
pos = (530,10);
},
{
name = top;
pos = (439,940);
}
);
shapes = (
{
closed = 1;
nodes = (
(591,-5,o),
(605,-3,o),
(617,0,c),
(620,20,l),
(566,25,o),
(545,49,o),
(529,125,c),
(403,660,l),
(373,660,l),
(-23,0,l),
(22,0,l),
(135,190,l),
(415,190,l),
(429,125,ls),
(453,9,o),
(531,-5,o),
(576,-5,cs)
);
},
{
closed = 1;
nodes = (
(333,520,l),
(402,230,l),
(157,230,l)
);
},
{
closed = 1;
nodes = (
(460,711,o),
(507,746,o),
(539,791,c),
(522,806,l),
(493,781,o),
(461,766,o),
(405,766,cs),
(349,766,o),
(323,781,o),
(302,806,c),
(279,791,l),
(298,746,o),
(330,711,o),
(395,711,cs)
);
},
{
closed = 1;
nodes = (
(340,845,l),
(343,861,o),
(362,885,o),
(377,885,cs),
(418,885,o),
(433,845,o),
(475,845,cs),
(515,845,o),
(540,869,o),
(552,940,c),
(522,940,l),
(519,924,o),
(501,900,o),
(485,900,cs),
(445,900,o),
(430,940,o),
(387,940,cs),
(347,940,o),
(323,916,o),
(310,845,c)
);
}
);
};
layerId = UUID0;
shapes = (
{
ref = A;
},
{
pos = (164,190);
ref = brevecomb_tildecomb;
}
);
width = 634;
},
{
layerId = "F7C9FF73-DC1F-4AC6-B1F4-3E0815F912B2";
shapes = (
{
ref = A;
},
{
pos = (160,190);
ref = brevecomb_tildecomb;
}
);
width = 647;
}
);
unicode = 7860;
},
{
glyphname = Acircumflex;
kernLeft = A;
kernRight = A;
layers = (
{
background = {
anchors = (
{
name = bottom;
pos = (276,0);
},
{
name = ogonek;
pos = (530,10);
},
{
name = top;
pos = (392,660);
}
);
shapes = (
{
closed = 1;
nodes = (
(591,-5,o),
(605,-3,o),
(617,0,c),
(620,20,l),
(566,25,o),
(545,49,o),
(529,125,c),
(403,660,l),
(373,660,l),
(-23,0,l),
(22,0,l),
(135,190,l),
(415,190,l),
(429,125,ls),
(453,9,o),
(531,-5,o),
(576,-5,cs)
);
},
{
closed = 1;
nodes = (
(333,520,l),
(402,230,l),
(157,230,l)
);
},
{
closed = 1;
nodes = (
(307,685,l),
(406,765,l),
(477,685,l),
(527,685,l),
(467,800,l),
(357,800,l),
(257,685,l)
);
}
);
};
layerId = UUID0;
shapes = (
{
alignment = -1;
ref = A;
},
{
alignment = -1;
pos = (161,25);
ref = circumflex;
}
);
width = 634;
},
{
layerId = "F7C9FF73-DC1F-4AC6-B1F4-3E0815F912B2";
shapes = (
{
alignment = -1;
ref = A;
},
{
alignment = -1;
pos = (167,25);
ref = circumflex;
}
);
width = 647;
}
);
unicode = 194;
},
{
glyphname = Acircumflexacute;
kernLeft = A;
kernRight = A;
layers = (
{
background = {
anchors = (
{
name = bottom;
pos = (276,0);
},
{
name = ogonek;
pos = (530,10);
},
{
name = top;
pos = (591,893);
}
);
shapes = (
{
closed = 1;
nodes = (
(591,-5,o),
(605,-3,o),
(617,0,c),
(620,20,l),
(566,25,o),
(545,49,o),
(529,125,c),
(403,660,l),
(373,660,l),
(-23,0,l),
(22,0,l),
(135,190,l),
(415,190,l),
(429,125,ls),
(453,9,o),
(531,-5,o),
(576,-5,cs)
);
},
{
closed = 1;
nodes = (
(333,520,l),
(402,230,l),
(157,230,l)
);
},
{
closed = 1;
nodes = (
(309,710,l),
(408,790,l),
(479,710,l),
(529,710,l),
(469,825,l),
(359,825,l),
(259,710,l)
);
},
{
closed = 1;
nodes = (
(584,773,l),
(710,888,l),
(625,888,l),
(534,773,l)
);
}
);
};
layerId = UUID0;
shapes = (
{
ref = A;
},
{
pos = (159,190);
ref = circumflexcomb_acutecomb;
}
);
width = 634;
},
{
layerId = "F7C9FF73-DC1F-4AC6-B1F4-3E0815F912B2";
shapes = (
{
ref = A;
},
{
pos = (150,190);
ref = circumflexcomb_acutecomb;
}
);
width = 647;
}
);
unicode = 7844;
},
{
glyphname = Acircumflexdotbelow;
kernLeft = A;
kernRight = A;
layers = (
{
background = {
anchors = (
{
name = bottom;
pos = (247,-161);
},
{
name = ogonek;
pos = (530,10);
},
{
name = top;
pos = (404,825);
}
);
shapes = (
{
closed = 1;
nodes = (
(591,-5,o),
(605,-3,o),
(617,0,c),
(620,20,l),
(566,25,o),
(545,49,o),
(529,125,c),
(403,660,l),
(373,660,l),
(-23,0,l),
(22,0,l),
(135,190,l),
(415,190,l),
(429,125,ls),
(453,9,o),
(531,-5,o),
(576,-5,cs)
);
},
{
closed = 1;
nodes = (
(333,520,l),
(402,230,l),
(157,230,l)
);
},
{
closed = 1;
nodes = (
(276,-161,o),
(301,-134,o),
(301,-108,cs),
(301,-87,o),
(286,-71,o),
(263,-71,cs),
(234,-71,o),
(210,-97,o),
(210,-123,cs),
(210,-146,o),
(225,-161,o),
(247,-161,cs)
);
},
{
closed = 1;
nodes = (
(309,710,l),
(408,790,l),
(479,710,l),
(529,710,l),
(469,825,l),
(359,825,l),
(259,710,l)
);
}
);
};
layerId = UUID0;
shapes = (
{
ref = A;
},
{
pos = (213,0);
ref = dotbelowcomb;
},
{
pos = (159,190);
ref = circumflexcomb;
}
);
width = 634;
},
{
layerId = "F7C9FF73-DC1F-4AC6-B1F4-3E0815F912B2";
shapes = (
{
ref = A;
},
{
pos = (214,0);
ref = dotbelowcomb;
},
{
pos = (150,190);
ref = circumflexcomb;
}
);
width = 647;
}
);
unicode = 7852;
},
{
glyphname = Acircumflexgrave;
kernLeft = A;
kernRight = A;
layers = (
{
background = {
anchors = (
{
name = bottom;
pos = (276,0);
},
{
name = ogonek;
pos = (530,10);
},
{
name = top;
pos = (545,919);
}
);
shapes = (
{
closed = 1;
nodes = (
(591,-5,o),
(605,-3,o),
(617,0,c),
(620,20,l),
(566,25,o),
(545,49,o),
(529,125,c),
(403,660,l),
(373,660,l),
(-23,0,l),
(22,0,l),
(135,190,l),
(415,190,l),
(429,125,ls),
(453,9,o),
(531,-5,o),
(576,-5,cs)
);
},
{
closed = 1;
nodes = (
(333,520,l),
(402,230,l),
(157,230,l)
);
},
{
closed = 1;
nodes = (
(309,710,l),
(408,790,l),
(479,710,l),
(529,710,l),
(469,825,l),
(359,825,l),
(259,710,l)
);
},
{
closed = 1;
nodes = (
(590,789,l),
(573,919,l),
(478,919,l),
(550,789,l)
);
}
);
};
layerId = UUID0;
shapes = (
{
ref = A;
},
{
pos = (159,190);
ref = circumflexcomb_gravecomb;
}
);
width = 634;
},
{
layerId = "F7C9FF73-DC1F-4AC6-B1F4-3E0815F912B2";
shapes = (
{
ref = A;
},
{
pos = (150,190);
ref = circumflexcomb_gravecomb;
}
);
width = 647;
}
);
unicode = 7846;
},
{
glyphname = Acircumflexhookabove;
kernLeft = A;
kernRight = A;
layers = (
{
background = {
anchors = (
{
name = bottom;
pos = (276,0);
},
{
name = ogonek;
pos = (530,10);
},
{
name = top;
pos = (577,961);
}
);
shapes = (
{
closed = 1;
nodes = (
(591,-5,o),
(605,-3,o),
(617,0,c),
(620,20,l),
(566,25,o),
(545,49,o),
(529,125,c),
(403,660,l),
(373,660,l),
(-23,0,l),
(22,0,l),
(135,190,l),
(415,190,l),
(429,125,ls),
(453,9,o),
(531,-5,o),
(576,-5,cs)
);
},
{
closed = 1;
nodes = (
(333,520,l),
(402,230,l),
(157,230,l)
);
},
{
closed = 1;
nodes = (
(309,710,l),
(408,790,l),
(479,710,l),
(529,710,l),
(469,825,l),
(359,825,l),
(259,710,l)
);
},
{
closed = 1;
nodes = (
(577,794,l),
(589,840,o),
(642,849,o),
(649,884,cs),
(660,938,o),
(619,961,o),
(580,961,cs),
(546,961,o),
(521,952,o),
(495,922,c),
(485,911,o),
(477,894,o),
(474,875,c),
(515,874,l),
(530,913,o),
(548,924,o),
(573,924,cs),
(592,924,o),
(604,913,o),
(598,884,cs),
(594,860,o),
(557,841,o),
(546,794,c)
);
}
);
};
layerId = UUID0;
shapes = (
{
ref = A;
},
{
pos = (159,190);
ref = circumflexcomb_hookabovecomb;
}
);
width = 634;
},
{
layerId = "F7C9FF73-DC1F-4AC6-B1F4-3E0815F912B2";
shapes = (
{
ref = A;
},
{
pos = (150,190);
ref = circumflexcomb_hookabovecomb;
}
);
width = 647;
}
);
unicode = 7848;
},
{
glyphname = Acircumflextilde;
kernLeft = A;
kernRight = A;
layers = (
{
background = {
anchors = (
{
name = bottom;
pos = (276,0);
},
{
name = ogonek;
pos = (530,10);
},
{
name = top;
pos = (443,954);
}
);
shapes = (
{
closed = 1;
nodes = (
(591,-5,o),
(605,-3,o),
(617,0,c),
(620,20,l),
(566,25,o),
(545,49,o),
(529,125,c),
(403,660,l),
(373,660,l),
(-23,0,l),
(22,0,l),
(135,190,l),
(415,190,l),
(429,125,ls),
(453,9,o),
(531,-5,o),
(576,-5,cs)
);
},
{
closed = 1;
nodes = (
(333,520,l),
(402,230,l),
(157,230,l)
);
},
{
closed = 1;
nodes = (
(309,710,l),
(408,790,l),
(479,710,l),
(529,710,l),
(469,825,l),
(359,825,l),
(259,710,l)
);
},
{
closed = 1;
nodes = (
(344,859,l),
(347,875,o),
(366,899,o),
(381,899,cs),
(422,899,o),
(437,859,o),
(479,859,cs),
(519,859,o),
(544,883,o),
(556,954,c),
(526,954,l),
(523,938,o),
(505,914,o),
(489,914,cs),
(449,914,o),
(434,954,o),
(391,954,cs),
(351,954,o),
(327,930,o),
(314,859,c)
);
}
);
};
layerId = UUID0;
shapes = (
{
ref = A;
},
{
pos = (159,190);
ref = circumflexcomb_tildecomb;
}
);
width = 634;
},
{
layerId = "F7C9FF73-DC1F-4AC6-B1F4-3E0815F912B2";
shapes = (
{
ref = A;
},
{
pos = (150,190);
ref = circumflexcomb_tildecomb;
}
);
width = 647;
}
);
unicode = 7850;
},
{
glyphname = Adieresis;
kernLeft = A;
kernRight = A;
layers = (
{
background = {
anchors = (
{
name = bottom;
pos = (276,0);
},
{
name = ogonek;
pos = (530,10);
},
{
name = top;
pos = (419,815);
}
);
shapes = (
{
closed = 1;
nodes = (
(591,-5,o),
(605,-3,o),
(617,0,c),
(620,20,l),
(566,25,o),
(545,49,o),
(529,125,c),
(403,660,l),
(373,660,l),
(-23,0,l),
(22,0,l),
(135,190,l),
(415,190,l),
(429,125,ls),
(453,9,o),
(531,-5,o),
(576,-5,cs)
);
},
{
closed = 1;
nodes = (
(333,520,l),
(402,230,l),
(157,230,l)
);
},
{
closed = 1;
nodes = (
(517,725,o),
(542,751,o),
(542,778,cs),
(542,799,o),
(527,815,o),
(504,815,cs),
(473,815,o),
(450,788,o),
(450,761,cs),
(450,740,o),
(465,725,o),
(488,725,cs)
);
},
{
closed = 1;
nodes = (
(347,725,o),
(372,751,o),
(372,778,cs),
(372,799,o),
(357,815,o),
(334,815,cs),
(303,815,o),
(280,788,o),
(280,761,cs),
(280,740,o),
(295,725,o),
(318,725,cs)
);
}
);
};
layerId = UUID0;
shapes = (
{
ref = A;
},
{
pos = (170,190);
ref = dieresiscomb;
}
);
width = 634;
},
{
layerId = "F7C9FF73-DC1F-4AC6-B1F4-3E0815F912B2";
shapes = (
{
ref = A;
},
{
pos = (161,190);
ref = dieresiscomb;
}
);
width = 647;
}
);
unicode = 196;
},
{
glyphname = Adotbelow;
kernLeft = A;
kernRight = A;
layers = (
{
background = {
anchors = (
{
name = bottom;
pos = (247,-161);
},
{
name = ogonek;
pos = (530,10);
},
{
name = top;
pos = (392,660);
}
);
shapes = (
{
closed = 1;
nodes = (
(591,-5,o),
(605,-3,o),
(617,0,c),
(620,20,l),
(566,25,o),
(545,49,o),
(529,125,c),
(403,660,l),
(373,660,l),
(-23,0,l),
(22,0,l),
(135,190,l),
(415,190,l),
(429,125,ls),
(453,9,o),
(531,-5,o),
(576,-5,cs)
);
},
{
closed = 1;
nodes = (
(333,520,l),
(402,230,l),
(157,230,l)
);
},
{
closed = 1;
nodes = (
(276,-161,o),
(301,-134,o),
(301,-108,cs),
(301,-87,o),
(286,-71,o),
(263,-71,cs),
(234,-71,o),
(210,-97,o),
(210,-123,cs),
(210,-146,o),
(225,-161,o),
(247,-161,cs)
);
}
);
};
layerId = UUID0;
shapes = (
{
ref = A;
},
{
pos = (213,0);
ref = dotbelowcomb;
}
);
width = 634;
},
{
layerId = "F7C9FF73-DC1F-4AC6-B1F4-3E0815F912B2";
shapes = (
{
ref = A;
},
{
pos = (214,0);
ref = dotbelowcomb;
}
);
width = 647;
}
);
unicode = 7840;
},
{
glyphname = Agrave;
kernLeft = A;
kernRight = A;
layers = (
{
background = {
anchors = (
{
name = bottom;
pos = (276,0);
},
{
name = ogonek;
pos = (530,10);
},
{
name = top;
pos = (366,845);
}
);
shapes = (
{
closed = 1;
nodes = (
(591,-5,o),
(605,-3,o),
(617,0,c),
(620,20,l),
(566,25,o),
(545,49,o),
(529,125,c),
(403,660,l),
(373,660,l),
(-23,0,l),
(22,0,l),
(135,190,l),
(415,190,l),
(429,125,ls),
(453,9,o),
(531,-5,o),
(576,-5,cs)
);
},
{
closed = 1;
nodes = (
(333,520,l),
(402,230,l),
(157,230,l)
);
},
{
closed = 1;
nodes = (
(411,715,l),
(394,845,l),
(299,845,l),
(371,715,l)
);
}
);
};
layerId = UUID0;
shapes = (
{
ref = A;
},
{
pos = (175,190);
ref = gravecomb;
}
);
width = 634;
},
{
layerId = "F7C9FF73-DC1F-4AC6-B1F4-3E0815F912B2";
shapes = (
{
ref = A;
},
{
pos = (166,190);
ref = gravecomb;
}
);
width = 647;
}
);
unicode = 192;
},
{
glyphname = Ahookabove;
kernLeft = A;
kernRight = A;
layers = (
{
background = {
anchors = (
{
name = bottom;
pos = (276,0);
},
{
name = ogonek;
pos = (530,10);
},
{
name = top;
pos = (430,878);
}
);
shapes = (
{
closed = 1;
nodes = (
(591,-5,o),
(605,-3,o),
(617,0,c),
(620,20,l),
(566,25,o),
(545,49,o),
(529,125,c),
(403,660,l),
(373,660,l),
(-23,0,l),
(22,0,l),
(135,190,l),
(415,190,l),
(429,125,ls),
(453,9,o),
(531,-5,o),
(576,-5,cs)
);
},
{
closed = 1;
nodes = (
(333,520,l),
(402,230,l),
(157,230,l)
);
},
{
closed = 1;
nodes = (
(430,711,l),
(442,757,o),
(495,766,o),
(502,801,cs),
(513,855,o),
(472,878,o),
(433,878,cs),
(399,878,o),
(374,869,o),
(348,839,c),
(338,828,o),
(330,811,o),
(327,792,c),
(368,791,l),
(383,830,o),
(401,841,o),
(426,841,cs),
(445,841,o),
(457,830,o),
(451,801,cs),
(447,777,o),
(410,758,o),
(399,711,c)
);
}
);
};
layerId = UUID0;
shapes = (
{
ref = A;
},
{
pos = (162,190);
ref = hookabovecomb;
}
);
width = 634;
},
{
layerId = "F7C9FF73-DC1F-4AC6-B1F4-3E0815F912B2";
shapes = (
{
ref = A;
},
{
pos = (159,190);
ref = hookabovecomb;
}
);
width = 647;
}
);
unicode = 7842;
},
{
color = 9;
glyphname = Amacron;
layers = (
{
background = {
anchors = (
{
name = bottom;
pos = (276,0);
},
{
name = ogonek;
pos = (530,10);
},
{
name = top;
pos = (409,810);
}
);
shapes = (
{
closed = 1;
nodes = (
(591,-5,o),
(605,-3,o),
(617,0,c),
(620,20,l),
(566,25,o),
(545,49,o),
(529,125,c),
(403,660,l),
(373,660,l),
(-23,0,l),
(22,0,l),
(135,190,l),
(415,190,l),
(429,125,ls),
(453,9,o),
(531,-5,o),
(576,-5,cs)
);
},
{
closed = 1;
nodes = (
(333,520,l),
(402,230,l),
(157,230,l)
);
},
{
closed = 1;
nodes = (
(531,750,l),
(531,810,l),
(276,810,l),
(276,750,l)
);
}
);
};
layerId = UUID0;
shapes = (
{
ref = A;
},
{
pos = (158,190);
ref = macroncomb;
}
);
width = 634;
},
{
layerId = "F7C9FF73-DC1F-4AC6-B1F4-3E0815F912B2";
shapes = (
{
ref = A;
},
{
pos = (150,190);
ref = macroncomb;
}
);
width = 647;
}
);
unicode = 256;
},
{
glyphname = Aring;
kernLeft = A;
kernRight = A;
layers = (
{
background = {
shapes = (
{
closed = 1;
nodes = (
(591,-5,o),
(605,-3,o),
(617,0,c),
(620,20,l),
(566,25,o),
(545,49,o),
(529,125,c),
(412,625,l),
(452,644,o),
(482,677,o),
(482,718,cs),
(482,757,o),
(451,790,o),
(411,790,cs),
(358,790,o),
(309,738,o),
(309,688,cs),
(309,653,o),
(331,634,o),
(352,625,c),
(-23,0,l),
(22,0,l),
(135,190,l),
(415,190,l),
(429,125,ls),
(453,9,o),
(531,-5,o),
(576,-5,cs)
);
},
{
closed = 1;
nodes = (
(333,520,l),
(402,230,l),
(157,230,l)
);
},
{
closed = 1;
nodes = (
(356,669,o),
(350,680,o),
(350,695,cs),
(350,727,o),
(376,755,o),
(405,755,cs),
(428,755,o),
(442,740,o),
(442,716,cs),
(442,691,o),
(427,671,o),
(408,660,c),
(368,660,l)
);
}
);
};
layerId = UUID0;
shapes = (
{
closed = 1;
nodes = (
(591,-5,o),
(605,-3,o),
(617,0,c),
(620,20,l),
(566,25,o),
(545,49,o),
(529,125,c),
(412,625,l),
(452,644,o),
(482,677,o),
(482,718,cs),
(482,757,o),
(451,790,o),
(411,790,cs),
(358,790,o),
(309,738,o),
(309,688,cs),
(309,653,o),
(331,634,o),
(352,625,c),
(-23,0,l),
(22,0,l),
(135,190,l),
(415,190,l),
(429,125,ls),
(453,9,o),
(531,-5,o),
(576,-5,cs)
);
},
{
closed = 1;
nodes = (
(333,520,l),
(402,230,l),
(157,230,l)
);
},
{
closed = 1;
nodes = (
(356,669,o),
(350,680,o),
(350,695,cs),
(350,727,o),
(376,755,o),
(405,755,cs),
(428,755,o),
(442,740,o),
(442,716,cs),
(442,691,o),
(427,671,o),
(408,660,c),
(368,660,l)
);
}
);
width = 634;
},
{
layerId = "F7C9FF73-DC1F-4AC6-B1F4-3E0815F912B2";
shapes = (
{
closed = 1;
nodes = (
(597,-4,o),
(620,-2,o),
(631,1,c),
(635,26,l),
(591,31,o),
(564,67,o),
(549,126,cs),
(429,619,l),
(472,640,o),
(501,680,o),
(501,724,cs),
(501,769,o),
(469,800,o),
(421,800,cs),
(359,800,o),
(307,746,o),
(307,688,cs),
(307,653,o),
(329,630,o),
(348,619,c),
(-37,0,l),
(15,0,l),
(129,182,l),
(395,182,l),
(408,126,ls),
(434,12,o),
(518,-4,o),
(582,-4,cs)
);
},
{
closed = 1;
nodes = (
(320,488,l),
(384,227,l),
(158,227,l)
);
},
{
closed = 1;
nodes = (
(363,669,o),
(358,680,o),
(358,693,cs),
(358,726,o),
(382,755,o),
(413,755,cs),
(436,755,o),
(450,740,o),
(450,716,cs),
(450,691,o),
(438,671,o),
(419,660,c),
(374,660,l)
);
}
);
width = 647;
}
);
unicode = 197;
},
{
glyphname = Atilde;
kernLeft = A;
kernRight = A;
layers = (
{
background = {
anchors = (
{
name = bottom;
pos = (276,0);
},
{
name = ogonek;
pos = (530,10);
},
{
name = top;
pos = (392,660);
}
);
shapes = (
{
closed = 1;
nodes = (
(591,-5,o),
(605,-3,o),
(617,0,c),
(620,20,l),
(566,25,o),
(545,49,o),
(529,125,c),
(403,660,l),
(373,660,l),
(-23,0,l),
(22,0,l),
(135,190,l),
(415,190,l),
(429,125,ls),
(453,9,o),
(531,-5,o),
(576,-5,cs)
);
},
{
closed = 1;
nodes = (
(333,520,l),
(402,230,l),
(157,230,l)
);
},
{
closed = 1;
nodes = (
(317,700,l),
(320,716,o),
(339,740,o),
(354,740,cs),
(395,740,o),
(410,700,o),
(452,700,cs),
(492,700,o),
(517,724,o),
(529,795,c),
(499,795,l),
(496,779,o),
(478,755,o),
(462,755,cs),
(422,755,o),
(407,795,o),
(364,795,cs),
(324,795,o),
(300,771,o),
(287,700,c)
);
}
);
};
layerId = UUID0;
shapes = (
{
alignment = -1;
ref = A;
},
{
alignment = -1;
pos = (188,20);
ref = tilde;
}
);
width = 634;
},
{
layerId = "F7C9FF73-DC1F-4AC6-B1F4-3E0815F912B2";
shapes = (
{
alignment = -1;
ref = A;
},
{
alignment = -1;
pos = (199,20);
ref = tilde;
}
);
width = 647;
}
);
unicode = 195;
},
{
glyphname = AE;
layers = (
{
background = {
shapes = (
{
closed = 1;
nodes = (
(-8,0,l),
(130,190,l),
(370,190,l),
(337,0,l),
(429,0,l),
(682,0,ls),
(722,0,o),
(749,19,o),
(765,50,cs),
(817,145,l),
(798,150,l),
(754,70,o),
(700,40,o),
(609,40,cs),
(434,40,l),
(483,320,l),
(753,320,l),
(760,360,l),
(490,360,l),
(536,620,l),
(722,620,ls),
(791,620,o),
(830,595,o),
(830,535,cs),
(830,526,o),
(829,516,o),
(827,505,c),
(847,505,l),
(860,588,o),
(862,594,o),
(862,602,cs),
(862,634,o),
(846,660,o),
(789,660,cs),
(428,660,l),
(-58,0,l)
);
},
{
closed = 1;
nodes = (
(445,615,l),
(377,230,l),
(162,230,l)
);
}
);
};
layerId = UUID0;
shapes = (
{
closed = 1;
nodes = (
(-8,0,l),
(130,190,l),
(370,190,l),
(337,0,l),
(429,0,l),
(682,0,ls),
(722,0,o),
(749,19,o),
(765,50,cs),
(817,145,l),
(798,150,l),
(754,70,o),
(700,40,o),
(609,40,cs),
(434,40,l),
(483,320,l),
(753,320,l),
(760,360,l),
(490,360,l),
(536,620,l),
(722,620,ls),
(791,620,o),
(830,595,o),
(830,535,cs),
(830,526,o),
(829,516,o),
(827,505,c),
(847,505,l),
(860,588,o),
(862,594,o),
(862,602,cs),
(862,634,o),
(846,660,o),
(789,660,cs),
(428,660,l),
(-58,0,l)
);
},
{
closed = 1;
nodes = (
(445,615,l),
(377,230,l),
(162,230,l)
);
}
);
width = 870;
},
{
layerId = "F7C9FF73-DC1F-4AC6-B1F4-3E0815F912B2";
shapes = (
{
closed = 1;
nodes = (
(-6,0,l),
(134,190,l),
(352,190,l),
(319,0,l),
(449,0,l),
(689,0,ls),
(744,0,o),
(765,27,o),
(788,70,cs),
(831,149,l),
(806,159,l),
(755,72,o),
(700,45,o),
(627,45,cs),
(456,45,l),
(505,320,l),
(765,320,l),
(773,365,l),
(513,365,l),
(557,615,l),
(718,615,ls),
(787,615,o),
(825,589,o),
(825,528,cs),
(825,518,o),
(824,507,o),
(822,495,c),
(852,495,l),
(868,587,o),
(869,595,o),
(869,602,cs),
(869,634,o),
(853,660,o),
(796,660,cs),
(420,660,l),
(-66,0,l)
);
},
{
closed = 1;
nodes = (
(421,579,l),
(360,235,l),
(167,235,l)
);
}
);
width = 873;
}
);
unicode = 198;
},
{
glyphname = B;
kernLeft = B;
layers = (
{
background = {
shapes = (
{
closed = 1;
nodes = (
(148,0,l),
(259,0,ls),
(415,0,o),
(569,57,o),
(569,217,cs),
(569,278,o),
(533,323,o),
(428,340,c),
(515,369,o),
(587,428,o),
(587,518,cs),
(587,643,o),
(442,660,o),
(345,660,cs),
(85,660,l),
(81,640,l),
(101,640,ls),
(145,640,o),
(158,618,o),
(158,583,cs),
(158,570,o),
(157,556,o),
(154,540,cs),
(59,0,l)
);
},
{
closed = 1;
nodes = (
(219,35,o),
(186,40,o),
(157,49,c),
(204,315,l),
(299,315,l),
(411,315,o),
(467,276,o),
(467,204,cs),
(467,84,o),
(351,35,o),
(250,35,cs)
);
},
{
closed = 1;
nodes = (
(257,615,l),
(278,620,o),
(309,625,o),
(334,625,cs),
(408,625,o),
(492,591,o),
(492,512,cs),
(492,413,o),
(391,355,o),
(306,355,cs),
(211,355,l)
);
}
);
};
layerId = UUID0;
shapes = (
{
closed = 1;
nodes = (
(148,0,l),
(259,0,ls),
(415,0,o),
(569,57,o),
(569,217,cs),
(569,278,o),
(533,323,o),
(428,340,c),
(515,369,o),
(587,428,o),
(587,518,cs),
(587,643,o),
(442,660,o),
(345,660,cs),
(85,660,l),
(81,640,l),
(101,640,ls),
(145,640,o),
(158,618,o),
(158,583,cs),
(158,570,o),
(157,556,o),
(154,540,cs),
(59,0,l)
);
},
{
closed = 1;
nodes = (
(219,35,o),
(186,40,o),
(157,49,c),
(204,315,l),
(299,315,l),
(411,315,o),
(467,276,o),
(467,204,cs),
(467,84,o),
(351,35,o),
(250,35,cs)
);
},
{
closed = 1;
nodes = (
(257,615,l),
(278,620,o),
(309,625,o),
(334,625,cs),
(408,625,o),
(492,591,o),
(492,512,cs),
(492,413,o),
(391,355,o),
(306,355,cs),
(211,355,l)
);
}
);
width = 624;
},
{
layerId = "F7C9FF73-DC1F-4AC6-B1F4-3E0815F912B2";
shapes = (
{
closed = 1;
nodes = (
(177,0,l),
(268,0,ls),
(428,0,o),
(598,50,o),
(598,217,cs),
(598,280,o),
(562,330,o),
(454,341,c),
(544,365,o),
(621,427,o),
(621,518,cs),
(621,645,o),
(470,660,o),
(354,660,cs),
(84,660,l),
(79,630,l),
(89,630,ls),
(132,630,o),
(146,610,o),
(146,575,cs),
(146,562,o),
(144,546,o),
(48,0,c)
);
},
{
closed = 1;
nodes = (
(235,40,o),
(218,42,o),
(205,45,cs),
(198,46,o),
(191,48,o),
(186,50,c),
(233,316,l),
(308,316,ls),
(407,316,o),
(457,281,o),
(457,210,cs),
(457,95,o),
(360,40,o),
(260,40,cs),
(255,40,l)
);
},
{
closed = 1;
nodes = (
(286,613,l),
(304,616,l),
(315,619,o),
(331,620,o),
(347,620,cs),
(416,620,o),
(482,595,o),
(482,518,cs),
(482,419,o),
(406,361,o),
(316,361,cs),
(241,361,l)
);
}
);
width = 646;
}
);
unicode = 66;
},
{
glyphname = C;
kernLeft = C;
kernRight = C;
layers = (
{
background = {
shapes = (
{
closed = 1;
nodes = (
(423,-20,o),
(518,20,o),
(606,145,c),
(589,160,l),
(517,69,o),
(439,20,o),
(339,20,cs),
(199,20,o),
(145,122,o),
(145,241,cs),
(145,428,o),
(244,640,o),
(448,640,cs),
(559,640,o),
(617,581,o),
(620,450,c),
(640,450,l),
(645,485,o),
(652,517,o),
(652,550,cs),
(652,657,o),
(502,680,o),
(425,680,cs),
(205,680,o),
(45,436,o),
(45,245,cs),
(45,92,o),
(138,-20,o),
(302,-20,cs)
);
}
);
};
layerId = UUID0;
shapes = (
{
closed = 1;
nodes = (
(423,-20,o),
(518,20,o),
(606,145,c),
(589,160,l),
(517,69,o),
(439,20,o),
(339,20,cs),
(199,20,o),
(145,122,o),
(145,241,cs),
(145,428,o),
(244,640,o),
(448,640,cs),
(559,640,o),
(617,581,o),
(620,450,c),
(640,450,l),
(645,485,o),
(652,517,o),
(652,550,cs),
(652,657,o),
(502,680,o),
(425,680,cs),
(205,680,o),
(45,436,o),
(45,245,cs),
(45,92,o),
(138,-20,o),
(302,-20,cs)
);
}
);
width = 666;
},
{
layerId = "F7C9FF73-DC1F-4AC6-B1F4-3E0815F912B2";
shapes = (
{
closed = 1;
nodes = (
(454,-20,o),
(549,30,o),
(631,141,c),
(601,168,l),
(537,75,o),
(445,25,o),
(353,25,cs),
(225,25,o),
(177,116,o),
(177,232,cs),
(177,408,o),
(259,635,o),
(460,635,cs),
(571,635,o),
(627,568,o),
(630,447,c),
(660,447,l),
(667,482,o),
(672,514,o),
(672,545,cs),
(672,660,o),
(521,680,o),
(438,680,cs),
(205,680,o),
(38,451,o),
(38,246,cs),
(38,91,o),
(133,-20,o),
(315,-20,cs)
);
}
);
width = 680;
}
);
unicode = 67;
},
{
color = 9;
glyphname = Cacute;
layers = (
{
background = {
anchors = (
{
name = top;
pos = (161,660);
}
);
shapes = (
{
closed = 1;
nodes = (
(423,-20,o),
(518,20,o),
(606,145,c),
(589,160,l),
(517,69,o),
(439,20,o),
(339,20,cs),
(199,20,o),
(145,122,o),
(145,241,cs),
(145,428,o),
(244,640,o),
(448,640,cs),
(559,640,o),
(617,581,o),
(620,450,c),
(640,450,l),
(645,485,o),
(652,517,o),
(652,550,cs),
(652,657,o),
(502,680,o),
(425,680,cs),
(205,680,o),
(45,436,o),
(45,245,cs),
(45,92,o),
(138,-20,o),
(302,-20,cs)
);
},
{
closed = 1;
nodes = (
(154,540,l),
(280,655,l),
(195,655,l),
(104,540,l)
);
}
);
};
layerId = UUID0;
shapes = (
{
ref = C;
},
{
ref = acutecomb;
}
);
width = 666;
},
{
layerId = "F7C9FF73-DC1F-4AC6-B1F4-3E0815F912B2";
shapes = (
{
ref = C;
},
{
ref = acutecomb;
}
);
width = 680;
}
);
unicode = 262;
},
{
color = 9;
glyphname = Ccaron;
layers = (
{
background = {
anchors = (
{
name = top;
pos = (266,635);
}
);
shapes = (
{
closed = 1;
nodes = (
(423,-20,o),
(518,20,o),
(606,145,c),
(589,160,l),
(517,69,o),
(439,20,o),
(339,20,cs),
(199,20,o),
(145,122,o),
(145,241,cs),
(145,428,o),
(244,640,o),
(448,640,cs),
(559,640,o),
(617,581,o),
(620,450,c),
(640,450,l),
(645,485,o),
(652,517,o),
(652,550,cs),
(652,657,o),
(502,680,o),
(425,680,cs),
(205,680,o),
(45,436,o),
(45,245,cs),
(45,92,o),
(138,-20,o),
(302,-20,cs)
);
},
{
closed = 1;
nodes = (
(291,520,l),
(391,635,l),
(341,635,l),
(242,555,l),
(171,635,l),
(121,635,l),
(181,520,l)
);
}
);
};
layerId = UUID0;
shapes = (
{
ref = C;
},
{
ref = caroncomb;
}
);
width = 666;
},
{
layerId = "F7C9FF73-DC1F-4AC6-B1F4-3E0815F912B2";
shapes = (
{
ref = C;
},
{
ref = caroncomb;
}
);
width = 680;
}
);
unicode = 268;
},
{
glyphname = Ccedilla;
kernLeft = C;
kernRight = C;
layers = (
{
background = {
shapes = (
{
closed = 1;
nodes = (
(301,-196,l),
(354,-193,o),
(395,-160,o),
(395,-108,cs),
(395,-69,o),
(367,-50,o),
(327,-50,cs),
(317,-50,l),
(322,-20,l),
(433,-15,o),
(523,28,o),
(606,145,c),
(589,160,l),
(517,69,o),
(439,20,o),
(339,20,cs),
(199,20,o),
(145,122,o),
(145,241,cs),
(145,428,o),
(244,640,o),
(448,640,cs),
(559,640,o),
(617,581,o),
(620,450,c),
(640,450,l),
(645,485,o),
(652,517,o),
(652,550,cs),
(652,657,o),
(502,680,o),
(425,680,cs),
(205,680,o),
(45,436,o),
(45,245,cs),
(45,99,o),
(129,-12,o),
(277,-20,c),
(265,-90,l),
(310,-90,ls),
(333,-90,o),
(345,-98,o),
(345,-115,cs),
(345,-142,o),
(322,-155,o),
(298,-155,cs),
(248,-155,l),
(241,-196,l)
);
}
);
};
layerId = UUID0;
shapes = (
{
closed = 1;
nodes = (
(301,-196,l),
(354,-193,o),
(395,-160,o),
(395,-108,cs),
(395,-69,o),
(367,-50,o),
(327,-50,cs),
(317,-50,l),
(322,-20,l),
(433,-15,o),
(523,28,o),
(606,145,c),
(589,160,l),
(517,69,o),
(439,20,o),
(339,20,cs),
(199,20,o),
(145,122,o),
(145,241,cs),
(145,428,o),
(244,640,o),
(448,640,cs),
(559,640,o),
(617,581,o),
(620,450,c),
(640,450,l),
(645,485,o),
(652,517,o),
(652,550,cs),
(652,657,o),
(502,680,o),
(425,680,cs),
(205,680,o),
(45,436,o),
(45,245,cs),
(45,99,o),
(129,-12,o),
(277,-20,c),
(265,-90,l),
(310,-90,ls),
(333,-90,o),
(345,-98,o),
(345,-115,cs),
(345,-142,o),
(322,-155,o),
(298,-155,cs),
(248,-155,l),
(241,-196,l)
);
}
);
width = 666;
},
{
layerId = "F7C9FF73-DC1F-4AC6-B1F4-3E0815F912B2";
shapes = (
{
closed = 1;
nodes = (
(302,-206,ls),
(359,-206,o),
(407,-169,o),
(407,-113,cs),
(407,-74,o),
(379,-50,o),
(330,-50,c),
(335,-19,l),
(464,-15,o),
(552,34,o),
(631,141,c),
(601,168,l),
(537,75,o),
(445,25,o),
(353,25,cs),
(225,25,o),
(177,116,o),
(177,232,cs),
(177,408,o),
(259,635,o),
(460,635,cs),
(571,635,o),
(627,568,o),
(630,447,c),
(660,447,l),
(667,482,o),
(672,514,o),
(672,545,cs),
(672,660,o),
(521,680,o),
(438,680,cs),
(205,680,o),
(38,451,o),
(38,246,cs),
(38,105,o),
(118,-1,o),
(271,-17,c),
(257,-95,l),
(302,-95,ls),
(325,-95,o),
(336,-107,o),
(336,-123,c),
(333,-146,o),
(315,-160,o),
(290,-160,cs),
(240,-160,l),
(232,-206,l)
);
}
);
width = 680;
}
);
unicode = 199;
},
{
glyphname = D;
kernLeft = B;
kernRight = D;
layers = (
{
background = {
shapes = (
{
closed = 1;
nodes = (
(153,0,l),
(257,0,ls),
(506,0,o),
(689,172,o),
(689,405,cs),
(689,563,o),
(578,660,o),
(347,660,cs),
(85,660,l),
(81,640,l),
(101,640,ls),
(145,640,o),
(158,618,o),
(158,583,cs),
(158,570,o),
(157,556,o),
(154,540,cs),
(59,0,l)
);
},
{
closed = 1;
nodes = (
(233,35,o),
(199,39,o),
(160,48,c),
(259,609,l),
(298,620,o),
(333,625,o),
(362,625,cs),
(495,625,o),
(579,537,o),
(579,398,cs),
(579,216,o),
(448,35,o),
(260,35,cs)
);
}
);
};
layerId = UUID0;
shapes = (
{
closed = 1;
nodes = (
(153,0,l),
(257,0,ls),
(506,0,o),
(689,172,o),
(689,405,cs),
(689,563,o),
(578,660,o),
(347,660,cs),
(85,660,l),
(81,640,l),
(101,640,ls),
(145,640,o),
(158,618,o),
(158,583,cs),
(158,570,o),
(157,556,o),
(154,540,cs),
(59,0,l)
);
},
{
closed = 1;
nodes = (
(233,35,o),
(199,39,o),
(160,48,c),
(259,609,l),
(298,620,o),
(333,625,o),
(362,625,cs),
(495,625,o),
(579,537,o),
(579,398,cs),
(579,216,o),
(448,35,o),
(260,35,cs)
);
}
);
width = 716;
},
{
layerId = "F7C9FF73-DC1F-4AC6-B1F4-3E0815F912B2";
shapes = (
{
closed = 1;
nodes = (
(178,0,l),
(266,0,ls),
(518,0,o),
(717,161,o),
(717,402,cs),
(717,563,o),
(597,660,o),
(356,660,cs),
(84,660,l),
(79,630,l),
(89,630,ls),
(132,630,o),
(146,610,o),
(146,575,cs),
(146,564,o),
(144,549,o),
(141,530,cs),
(48,0,l)
);
},
{
closed = 1;
nodes = (
(240,40,o),
(221,40,o),
(208,43,cs),
(186,47,l),
(286,613,l),
(309,616,l),
(324,619,o),
(342,620,o),
(362,620,cs),
(370,620,l),
(494,620,o),
(568,536,o),
(568,403,cs),
(568,230,o),
(454,40,o),
(270,40,cs),
(260,40,ls)
);
}
);
width = 737;
}
);
unicode = 68;
},
{
color = 9;
glyphname = Dcaron;
layers = (
{
background = {
anchors = (
{
name = top;
pos = (266,635);
}
);
shapes = (
{
closed = 1;
nodes = (
(153,0,l),
(257,0,ls),
(506,0,o),
(689,172,o),
(689,405,cs),
(689,563,o),
(578,660,o),
(347,660,cs),
(85,660,l),
(81,640,l),
(101,640,ls),
(145,640,o),
(158,618,o),
(158,583,cs),
(158,570,o),
(157,556,o),
(154,540,cs),
(59,0,l)
);
},
{
closed = 1;
nodes = (
(233,35,o),
(199,39,o),
(160,48,c),
(259,609,l),
(298,620,o),
(333,625,o),
(362,625,cs),
(495,625,o),
(579,537,o),
(579,398,cs),
(579,216,o),
(448,35,o),
(260,35,cs)
);
},
{
closed = 1;
nodes = (
(291,520,l),
(391,635,l),
(341,635,l),
(242,555,l),
(171,635,l),
(121,635,l),
(181,520,l)
);
}
);
};
layerId = UUID0;
shapes = (
{
ref = D;
},
{
ref = caroncomb;
}
);
width = 716;
},
{
layerId = "F7C9FF73-DC1F-4AC6-B1F4-3E0815F912B2";
shapes = (
{
ref = D;
},
{
ref = caroncomb;
}
);
width = 737;
}
);
unicode = 270;
},
{
glyphname = Dcroat;
layers = (
{
background = {
shapes = (
{
closed = 1;
nodes = (
(153,0,l),
(257,0,ls),
(506,0,o),
(689,172,o),
(689,405,cs),
(689,563,o),
(578,660,o),
(347,660,cs),
(85,660,l),
(81,640,l),
(101,640,ls),
(145,640,o),
(158,618,o),
(158,583,cs),
(158,570,o),
(157,556,o),
(154,540,cs),
(120,350,l),
(45,350,l),
(38,310,l),
(113,310,l),
(59,0,l)
);
},
{
closed = 1;
nodes = (
(233,35,o),
(199,39,o),
(160,48,c),
(206,310,l),
(293,310,l),
(300,350,l),
(213,350,l),
(259,609,l),
(298,620,o),
(333,625,o),
(362,625,cs),
(495,625,o),
(579,537,o),
(579,398,cs),
(579,216,o),
(448,35,o),
(260,35,cs)
);
}
);
};
layerId = UUID0;
shapes = (
{
ref = Eth;
}
);
width = 716;
},
{
layerId = "F7C9FF73-DC1F-4AC6-B1F4-3E0815F912B2";
shapes = (
{
ref = Eth;
}
);
width = 737;
}
);
unicode = 272;
},
{
glyphname = Eth;
kernLeft = B;
kernRight = D;
layers = (
{
background = {
shapes = (
{
closed = 1;
nodes = (
(153,0,l),
(257,0,ls),
(506,0,o),
(689,172,o),
(689,405,cs),
(689,563,o),
(578,660,o),
(347,660,cs),
(85,660,l),
(81,640,l),
(101,640,ls),
(145,640,o),
(158,618,o),
(158,583,cs),
(158,570,o),
(157,556,o),
(154,540,cs),
(120,350,l),
(45,350,l),
(38,310,l),
(113,310,l),
(59,0,l)
);
},
{
closed = 1;
nodes = (
(233,35,o),
(199,39,o),
(160,48,c),
(206,310,l),
(293,310,l),
(300,350,l),
(213,350,l),
(259,609,l),
(298,620,o),
(333,625,o),
(362,625,cs),
(495,625,o),
(579,537,o),
(579,398,cs),
(579,216,o),
(448,35,o),
(260,35,cs)
);
}
);
};
layerId = UUID0;
shapes = (
{
closed = 1;
nodes = (
(153,0,l),
(257,0,ls),
(506,0,o),
(689,172,o),
(689,405,cs),
(689,563,o),
(578,660,o),
(347,660,cs),
(85,660,l),
(81,640,l),
(101,640,ls),
(145,640,o),
(158,618,o),
(158,583,cs),
(158,570,o),
(157,556,o),
(154,540,cs),
(120,350,l),
(45,350,l),
(38,310,l),
(113,310,l),
(59,0,l)
);
},
{
closed = 1;
nodes = (
(233,35,o),
(199,39,o),
(160,48,c),
(206,310,l),
(293,310,l),
(300,350,l),
(213,350,l),
(259,609,l),
(298,620,o),
(333,625,o),
(362,625,cs),
(495,625,o),
(579,537,o),
(579,398,cs),
(579,216,o),
(448,35,o),
(260,35,cs)
);
}
);
width = 716;
},
{
layerId = "F7C9FF73-DC1F-4AC6-B1F4-3E0815F912B2";
shapes = (
{
closed = 1;
nodes = (
(178,0,l),
(266,0,ls),
(518,0,o),
(717,161,o),
(717,402,cs),
(717,563,o),
(597,660,o),
(356,660,cs),
(84,660,l),
(79,630,l),
(89,630,ls),
(132,630,o),
(146,610,o),
(146,575,cs),
(146,562,o),
(145,547,o),
(110,355,c),
(40,355,l),
(31,305,l),
(101,305,l),
(48,0,l)
);
},
{
closed = 1;
nodes = (
(240,40,o),
(221,40,o),
(208,43,cs),
(186,47,l),
(231,305,l),
(306,305,l),
(315,355,l),
(240,355,l),
(286,613,l),
(309,616,l),
(324,619,o),
(342,620,o),
(362,620,cs),
(370,620,l),
(494,620,o),
(568,536,o),
(568,403,cs),
(568,230,o),
(454,40,o),
(270,40,cs),
(260,40,ls)
);
}
);
width = 737;
}
);
unicode = 208;
},
{
glyphname = E;
kernLeft = B;
layers = (
{
anchors = (
{
name = bottom;
pos = (256,0);
},
{
name = ogonek;
pos = (493,10);
},
{
name = top;
pos = (372,660);
},
{
name = topleft;
pos = (95,660);
}
);
background = {
anchors = (
{
name = bottom;
pos = (256,0);
},
{
name = ogonek;
pos = (493,10);
},
{
name = top;
pos = (372,660);
},
{
name = topleft;
pos = (95,660);
}
);
shapes = (
{
closed = 1;
nodes = (
(150,0,l),
(405,0,ls),
(445,0,o),
(472,19,o),
(488,50,cs),
(540,145,l),
(521,150,l),
(477,70,o),
(423,40,o),
(332,40,cs),
(157,40,l),
(206,320,l),
(476,320,l),
(483,360,l),
(213,360,l),
(259,620,l),
(445,620,ls),
(514,620,o),
(553,595,o),
(553,535,cs),
(553,526,o),
(552,516,o),
(550,505,c),
(570,505,l),
(583,588,o),
(585,594,o),
(585,602,cs),
(585,634,o),
(569,660,o),
(512,660,cs),
(86,660,l),
(82,640,l),
(102,640,ls),
(146,640,o),
(159,618,o),
(159,583,cs),
(159,569,o),
(156,557,o),
(60,0,c)
);
}
);
};
layerId = UUID0;
shapes = (
{
closed = 1;
nodes = (
(150,0,l),
(405,0,ls),
(445,0,o),
(472,19,o),
(488,50,cs),
(540,145,l),
(521,150,l),
(477,70,o),
(423,40,o),
(332,40,cs),
(157,40,l),
(206,320,l),
(476,320,l),
(483,360,l),
(213,360,l),
(259,620,l),
(445,620,ls),
(514,620,o),
(553,595,o),
(553,535,cs),
(553,526,o),
(552,516,o),
(550,505,c),
(570,505,l),
(583,588,o),
(585,594,o),
(585,602,cs),
(585,634,o),
(569,660,o),
(512,660,cs),
(86,660,l),
(82,640,l),
(102,640,ls),
(146,640,o),
(159,618,o),
(159,583,cs),
(159,569,o),
(156,557,o),
(60,0,c)
);
}
);
width = 593;
},
{
anchors = (
{
name = bottom;
pos = (260,0);
},
{
name = ogonek;
pos = (501,10);
},
{
name = top;
pos = (376,660);
},
{
name = topleft;
pos = (95,660);
}
);
layerId = "F7C9FF73-DC1F-4AC6-B1F4-3E0815F912B2";
shapes = (
{
closed = 1;
nodes = (
(178,0,l),
(418,0,ls),
(473,0,o),
(494,27,o),
(517,70,cs),
(560,149,l),
(535,159,l),
(484,72,o),
(429,45,o),
(356,45,cs),
(185,45,l),
(234,320,l),
(494,320,l),
(502,365,l),
(242,365,l),
(286,615,l),
(447,615,ls),
(516,615,o),
(554,589,o),
(554,528,cs),
(554,518,o),
(553,507,o),
(551,495,c),
(581,495,l),
(597,587,o),
(598,595,o),
(598,602,cs),
(598,634,o),
(582,660,o),
(525,660,cs),
(84,660,l),
(79,630,l),
(89,630,ls),
(132,630,o),
(146,610,o),
(146,575,cs),
(146,562,o),
(144,546,o),
(48,0,c)
);
}
);
width = 602;
}
);
unicode = 69;
},
{
glyphname = Eacute;
kernLeft = B;
layers = (
{
background = {
anchors = (
{
name = bottom;
pos = (256,0);
},
{
name = ogonek;
pos = (493,10);
},
{
name = top;
pos = (372,660);
},
{
name = topleft;
pos = (95,660);
}
);
shapes = (
{
closed = 1;
nodes = (
(150,0,l),
(405,0,ls),
(445,0,o),
(472,19,o),
(488,50,cs),
(540,145,l),
(521,150,l),
(477,70,o),
(423,40,o),
(332,40,cs),
(157,40,l),
(206,320,l),
(476,320,l),
(483,360,l),
(213,360,l),
(259,620,l),
(445,620,ls),
(514,620,o),
(553,595,o),
(553,535,cs),
(553,526,o),
(552,516,o),
(550,505,c),
(570,505,l),
(583,588,o),
(585,594,o),
(585,602,cs),
(585,634,o),
(569,660,o),
(512,660,cs),
(86,660,l),
(82,640,l),
(102,640,ls),
(146,640,o),
(159,618,o),
(159,583,cs),
(159,569,o),
(156,557,o),
(60,0,c)
);
},
{
closed = 1;
nodes = (
(393,700,l),
(511,830,l),
(416,830,l),
(353,700,l)
);
}
);
};
layerId = UUID0;
shapes = (
{
alignment = -1;
ref = E;
},
{
alignment = -1;
pos = (250,0);
ref = acute;
}
);
width = 593;
},
{
layerId = "F7C9FF73-DC1F-4AC6-B1F4-3E0815F912B2";
shapes = (
{
alignment = -1;
ref = E;
},
{
alignment = -1;
pos = (264,0);
ref = acute;
}
);
width = 602;
}
);
unicode = 201;
},
{
color = 9;
glyphname = Ecaron;
layers = (
{
background = {
anchors = (
{
name = bottom;
pos = (256,0);
},
{
name = ogonek;
pos = (493,10);
},
{
name = top;
pos = (401,825);
},
{
name = topleft;
pos = (95,660);
}
);
shapes = (
{
closed = 1;
nodes = (
(150,0,l),
(405,0,ls),
(445,0,o),
(472,19,o),
(488,50,cs),
(540,145,l),
(521,150,l),
(477,70,o),
(423,40,o),
(332,40,cs),
(157,40,l),
(206,320,l),
(476,320,l),
(483,360,l),
(213,360,l),
(259,620,l),
(445,620,ls),
(514,620,o),
(553,595,o),
(553,535,cs),
(553,526,o),
(552,516,o),
(550,505,c),
(570,505,l),
(583,588,o),
(585,594,o),
(585,602,cs),
(585,634,o),
(569,660,o),
(512,660,cs),
(86,660,l),
(82,640,l),
(102,640,ls),
(146,640,o),
(159,618,o),
(159,583,cs),
(159,569,o),
(156,557,o),
(60,0,c)
);
},
{
closed = 1;
nodes = (
(426,710,l),
(526,825,l),
(476,825,l),
(377,745,l),
(306,825,l),
(256,825,l),
(316,710,l)
);
}
);
};
layerId = UUID0;
shapes = (
{
ref = E;
},
{
pos = (135,190);
ref = caroncomb;
}
);
width = 593;
},
{
layerId = "F7C9FF73-DC1F-4AC6-B1F4-3E0815F912B2";
shapes = (
{
ref = E;
},
{
pos = (129,190);
ref = caroncomb;
}
);
width = 602;
}
);
unicode = 282;
},
{
glyphname = Ecircumflex;
kernLeft = B;
layers = (
{
background = {
anchors = (
{
name = bottom;
pos = (256,0);
},
{
name = ogonek;
pos = (493,10);
},
{
name = top;
pos = (372,660);
},
{
name = topleft;
pos = (95,660);
}
);
shapes = (
{
closed = 1;
nodes = (
(150,0,l),
(405,0,ls),
(445,0,o),
(472,19,o),
(488,50,cs),
(540,145,l),
(521,150,l),
(477,70,o),
(423,40,o),
(332,40,cs),
(157,40,l),
(206,320,l),
(476,320,l),
(483,360,l),
(213,360,l),
(259,620,l),
(445,620,ls),
(514,620,o),
(553,595,o),
(553,535,cs),
(553,526,o),
(552,516,o),
(550,505,c),
(570,505,l),
(583,588,o),
(585,594,o),
(585,602,cs),
(585,634,o),
(569,660,o),
(512,660,cs),
(86,660,l),
(82,640,l),
(102,640,ls),
(146,640,o),
(159,618,o),
(159,583,cs),
(159,569,o),
(156,557,o),
(60,0,c)
);
},
{
closed = 1;
nodes = (
(297,721,l),
(396,801,l),
(467,721,l),
(517,721,l),
(457,836,l),
(347,836,l),
(247,721,l)
);
}
);
};
layerId = UUID0;
shapes = (
{
alignment = -1;
ref = E;
},
{
alignment = -1;
pos = (151,61);
ref = circumflex;
}
);
width = 593;
},
{
layerId = "F7C9FF73-DC1F-4AC6-B1F4-3E0815F912B2";
shapes = (
{
alignment = -1;
ref = E;
},
{
alignment = -1;
pos = (155,62);
ref = circumflex;
}
);
width = 602;
}
);
unicode = 202;
},
{
glyphname = Ecircumflexacute;
kernLeft = B;
layers = (
{
background = {
anchors = (
{
name = bottom;
pos = (256,0);
},
{
name = ogonek;
pos = (493,10);
},
{
name = top;
pos = (571,893);
},
{
name = topleft;
pos = (95,660);
}
);
shapes = (
{
closed = 1;
nodes = (
(150,0,l),
(405,0,ls),
(445,0,o),
(472,19,o),
(488,50,cs),
(540,145,l),
(521,150,l),
(477,70,o),
(423,40,o),
(332,40,cs),
(157,40,l),
(206,320,l),
(476,320,l),
(483,360,l),
(213,360,l),
(259,620,l),
(445,620,ls),
(514,620,o),
(553,595,o),
(553,535,cs),
(553,526,o),
(552,516,o),
(550,505,c),
(570,505,l),
(583,588,o),
(585,594,o),
(585,602,cs),
(585,634,o),
(569,660,o),
(512,660,cs),
(86,660,l),
(82,640,l),
(102,640,ls),
(146,640,o),
(159,618,o),
(159,583,cs),
(159,569,o),
(156,557,o),
(60,0,c)
);
},
{
closed = 1;
nodes = (
(289,710,l),
(388,790,l),
(459,710,l),
(509,710,l),
(449,825,l),
(339,825,l),
(239,710,l)
);
},
{
closed = 1;
nodes = (
(564,773,l),
(690,888,l),
(605,888,l),
(514,773,l)
);
}
);
};
layerId = UUID0;
shapes = (
{
ref = E;
},
{
pos = (139,190);
ref = circumflexcomb_acutecomb;
}
);
width = 593;
},
{
layerId = "F7C9FF73-DC1F-4AC6-B1F4-3E0815F912B2";
shapes = (
{
ref = E;
},
{
pos = (127,190);
ref = circumflexcomb_acutecomb;
}
);
width = 602;
}
);
unicode = 7870;
},
{
glyphname = Ecircumflexdotbelow;
kernLeft = B;
layers = (
{
background = {
anchors = (
{
name = bottom;
pos = (227,-161);
},
{
name = ogonek;
pos = (493,10);
},
{
name = top;
pos = (384,825);
},
{
name = topleft;
pos = (95,660);
}
);
shapes = (
{
closed = 1;
nodes = (
(150,0,l),
(405,0,ls),
(445,0,o),
(472,19,o),
(488,50,cs),
(540,145,l),
(521,150,l),
(477,70,o),
(423,40,o),
(332,40,cs),
(157,40,l),
(206,320,l),
(476,320,l),
(483,360,l),
(213,360,l),
(259,620,l),
(445,620,ls),
(514,620,o),
(553,595,o),
(553,535,cs),
(553,526,o),
(552,516,o),
(550,505,c),
(570,505,l),
(583,588,o),
(585,594,o),
(585,602,cs),
(585,634,o),
(569,660,o),
(512,660,cs),
(86,660,l),
(82,640,l),
(102,640,ls),
(146,640,o),
(159,618,o),
(159,583,cs),
(159,569,o),
(156,557,o),
(60,0,c)
);
},
{
closed = 1;
nodes = (
(256,-161,o),
(281,-134,o),
(281,-108,cs),
(281,-87,o),
(266,-71,o),
(243,-71,cs),
(214,-71,o),
(190,-97,o),
(190,-123,cs),
(190,-146,o),
(205,-161,o),
(227,-161,cs)
);
},
{
closed = 1;
nodes = (
(289,710,l),
(388,790,l),
(459,710,l),
(509,710,l),
(449,825,l),
(339,825,l),
(239,710,l)
);
}
);
};
layerId = UUID0;
shapes = (
{
ref = E;
},
{
pos = (193,0);
ref = dotbelowcomb;
},
{
pos = (139,190);
ref = circumflexcomb;
}
);
width = 593;
},
{
layerId = "F7C9FF73-DC1F-4AC6-B1F4-3E0815F912B2";
shapes = (
{
ref = E;
},
{
pos = (191,0);
ref = dotbelowcomb;
},
{
pos = (127,190);
ref = circumflexcomb;
}
);
width = 602;
}
);
unicode = 7878;
},
{
glyphname = Ecircumflexgrave;
kernLeft = B;
layers = (
{
background = {
anchors = (
{
name = bottom;
pos = (256,0);
},
{
name = ogonek;
pos = (493,10);
},
{
name = top;
pos = (525,919);
},
{
name = topleft;
pos = (95,660);
}
);
shapes = (
{
closed = 1;
nodes = (
(150,0,l),
(405,0,ls),
(445,0,o),
(472,19,o),
(488,50,cs),
(540,145,l),
(521,150,l),
(477,70,o),
(423,40,o),
(332,40,cs),
(157,40,l),
(206,320,l),
(476,320,l),
(483,360,l),
(213,360,l),
(259,620,l),
(445,620,ls),
(514,620,o),
(553,595,o),
(553,535,cs),
(553,526,o),
(552,516,o),
(550,505,c),
(570,505,l),
(583,588,o),
(585,594,o),
(585,602,cs),
(585,634,o),
(569,660,o),
(512,660,cs),
(86,660,l),
(82,640,l),
(102,640,ls),
(146,640,o),
(159,618,o),
(159,583,cs),
(159,569,o),
(156,557,o),
(60,0,c)
);
},
{
closed = 1;
nodes = (
(289,710,l),
(388,790,l),
(459,710,l),
(509,710,l),
(449,825,l),
(339,825,l),
(239,710,l)
);
},
{
closed = 1;
nodes = (
(570,789,l),
(553,919,l),
(458,919,l),
(530,789,l)
);
}
);
};
layerId = UUID0;
shapes = (
{
ref = E;
},
{
pos = (139,190);
ref = circumflexcomb_gravecomb;
}
);
width = 593;
},
{
layerId = "F7C9FF73-DC1F-4AC6-B1F4-3E0815F912B2";
shapes = (
{
ref = E;
},
{
pos = (127,190);
ref = circumflexcomb_gravecomb;
}
);
width = 602;
}
);
unicode = 7872;
},
{
glyphname = Ecircumflexhookabove;
kernLeft = B;
layers = (
{
background = {
anchors = (
{
name = bottom;
pos = (256,0);
},
{
name = ogonek;
pos = (493,10);
},
{
name = top;
pos = (557,961);
},
{
name = topleft;
pos = (95,660);
}
);
shapes = (
{
closed = 1;
nodes = (
(150,0,l),
(405,0,ls),
(445,0,o),
(472,19,o),
(488,50,cs),
(540,145,l),
(521,150,l),
(477,70,o),
(423,40,o),
(332,40,cs),
(157,40,l),
(206,320,l),
(476,320,l),
(483,360,l),
(213,360,l),
(259,620,l),
(445,620,ls),
(514,620,o),
(553,595,o),
(553,535,cs),
(553,526,o),
(552,516,o),
(550,505,c),
(570,505,l),
(583,588,o),
(585,594,o),
(585,602,cs),
(585,634,o),
(569,660,o),
(512,660,cs),
(86,660,l),
(82,640,l),
(102,640,ls),
(146,640,o),
(159,618,o),
(159,583,cs),
(159,569,o),
(156,557,o),
(60,0,c)
);
},
{
closed = 1;
nodes = (
(289,710,l),
(388,790,l),
(459,710,l),
(509,710,l),
(449,825,l),
(339,825,l),
(239,710,l)
);
},
{
closed = 1;
nodes = (
(557,794,l),
(569,840,o),
(622,849,o),
(629,884,cs),
(640,938,o),
(599,961,o),
(560,961,cs),
(526,961,o),
(501,952,o),
(475,922,c),
(465,911,o),
(457,894,o),
(454,875,c),
(495,874,l),
(510,913,o),
(528,924,o),
(553,924,cs),
(572,924,o),
(584,913,o),
(578,884,cs),
(574,860,o),
(537,841,o),
(526,794,c)
);
}
);
};
layerId = UUID0;
shapes = (
{
ref = E;
},
{
pos = (139,190);
ref = circumflexcomb_hookabovecomb;
}
);
width = 593;
},
{
layerId = "F7C9FF73-DC1F-4AC6-B1F4-3E0815F912B2";
shapes = (
{
ref = E;
},
{
pos = (127,190);
ref = circumflexcomb_hookabovecomb;
}
);
width = 602;
}
);
unicode = 7874;
},
{
glyphname = Ecircumflextilde;
kernLeft = B;
layers = (
{
background = {
anchors = (
{
name = bottom;
pos = (256,0);
},
{
name = ogonek;
pos = (493,10);
},
{
name = top;
pos = (423,954);
},
{
name = topleft;
pos = (95,660);
}
);
shapes = (
{
closed = 1;
nodes = (
(150,0,l),
(405,0,ls),
(445,0,o),
(472,19,o),
(488,50,cs),
(540,145,l),
(521,150,l),
(477,70,o),
(423,40,o),
(332,40,cs),
(157,40,l),
(206,320,l),
(476,320,l),
(483,360,l),
(213,360,l),
(259,620,l),
(445,620,ls),
(514,620,o),
(553,595,o),
(553,535,cs),
(553,526,o),
(552,516,o),
(550,505,c),
(570,505,l),
(583,588,o),
(585,594,o),
(585,602,cs),
(585,634,o),
(569,660,o),
(512,660,cs),
(86,660,l),
(82,640,l),
(102,640,ls),
(146,640,o),
(159,618,o),
(159,583,cs),
(159,569,o),
(156,557,o),
(60,0,c)
);
},
{
closed = 1;
nodes = (
(289,710,l),
(388,790,l),
(459,710,l),
(509,710,l),
(449,825,l),
(339,825,l),
(239,710,l)
);
},
{
closed = 1;
nodes = (
(324,859,l),
(327,875,o),
(346,899,o),
(361,899,cs),
(402,899,o),
(417,859,o),
(459,859,cs),
(499,859,o),
(524,883,o),
(536,954,c),
(506,954,l),
(503,938,o),
(485,914,o),
(469,914,cs),
(429,914,o),
(414,954,o),
(371,954,cs),
(331,954,o),
(307,930,o),
(294,859,c)
);
}
);
};
layerId = UUID0;
shapes = (
{
ref = E;
},
{
pos = (139,190);
ref = circumflexcomb_tildecomb;
}
);
width = 593;
},
{
layerId = "F7C9FF73-DC1F-4AC6-B1F4-3E0815F912B2";
shapes = (
{
ref = E;
},
{
pos = (127,190);
ref = circumflexcomb_tildecomb;
}
);
width = 602;
}
);
unicode = 7876;
},
{
glyphname = Edieresis;
kernLeft = B;
layers = (
{
background = {
anchors = (
{
name = bottom;
pos = (256,0);
},
{
name = ogonek;
pos = (493,10);
},
{
name = top;
pos = (372,660);
},
{
name = topleft;
pos = (95,660);
}
);
shapes = (
{
closed = 1;
nodes = (
(150,0,l),
(405,0,ls),
(445,0,o),
(472,19,o),
(488,50,cs),
(540,145,l),
(521,150,l),
(477,70,o),
(423,40,o),
(332,40,cs),
(157,40,l),
(206,320,l),
(476,320,l),
(483,360,l),
(213,360,l),
(259,620,l),
(445,620,ls),
(514,620,o),
(553,595,o),
(553,535,cs),
(553,526,o),
(552,516,o),
(550,505,c),
(570,505,l),
(583,588,o),
(585,594,o),
(585,602,cs),
(585,634,o),
(569,660,o),
(512,660,cs),
(86,660,l),
(82,640,l),
(102,640,ls),
(146,640,o),
(159,618,o),
(159,583,cs),
(159,569,o),
(156,557,o),
(60,0,c)
);
},
{
closed = 1;
nodes = (
(494,730,o),
(519,759,o),
(519,790,cs),
(519,814,o),
(504,830,o),
(477,830,cs),
(442,830,o),
(417,801,o),
(417,770,cs),
(417,746,o),
(432,730,o),
(459,730,cs)
);
},
{
closed = 1;
nodes = (
(324,730,o),
(349,759,o),
(349,790,cs),
(349,814,o),
(334,830,o),
(307,830,cs),
(272,830,o),
(247,801,o),
(247,770,cs),
(247,746,o),
(262,730,o),
(289,730,cs)
);
}
);
};
layerId = UUID0;
shapes = (
{
alignment = -1;
ref = E;
},
{
alignment = -1;
pos = (138,40);
ref = dieresis;
}
);
width = 593;
},
{
layerId = "F7C9FF73-DC1F-4AC6-B1F4-3E0815F912B2";
shapes = (
{
ref = E;
},
{
pos = (138,190);
ref = dieresiscomb;
}
);
width = 602;
}
);
unicode = 203;
},
{
glyphname = Edotbelow;
kernLeft = B;
layers = (
{
background = {
anchors = (
{
name = bottom;
pos = (227,-161);
},
{
name = ogonek;
pos = (493,10);
},
{
name = top;
pos = (372,660);
},
{
name = topleft;
pos = (95,660);
}
);
shapes = (
{
closed = 1;
nodes = (
(150,0,l),
(405,0,ls),
(445,0,o),
(472,19,o),
(488,50,cs),
(540,145,l),
(521,150,l),
(477,70,o),
(423,40,o),
(332,40,cs),
(157,40,l),
(206,320,l),
(476,320,l),
(483,360,l),
(213,360,l),
(259,620,l),
(445,620,ls),
(514,620,o),
(553,595,o),
(553,535,cs),
(553,526,o),
(552,516,o),
(550,505,c),
(570,505,l),
(583,588,o),
(585,594,o),
(585,602,cs),
(585,634,o),
(569,660,o),
(512,660,cs),
(86,660,l),
(82,640,l),
(102,640,ls),
(146,640,o),
(159,618,o),
(159,583,cs),
(159,569,o),
(156,557,o),
(60,0,c)
);
},
{
closed = 1;
nodes = (
(256,-161,o),
(281,-134,o),
(281,-108,cs),
(281,-87,o),
(266,-71,o),
(243,-71,cs),
(214,-71,o),
(190,-97,o),
(190,-123,cs),
(190,-146,o),
(205,-161,o),
(227,-161,cs)
);
}
);
};
layerId = UUID0;
shapes = (
{
ref = E;
},
{
pos = (193,0);
ref = dotbelowcomb;
}
);
width = 593;
},
{
layerId = "F7C9FF73-DC1F-4AC6-B1F4-3E0815F912B2";
shapes = (
{
ref = E;
},
{
pos = (191,0);
ref = dotbelowcomb;
}
);
width = 602;
}
);
unicode = 7864;
},
{
glyphname = Egrave;
kernLeft = B;
layers = (
{
background = {
anchors = (
{
name = bottom;
pos = (256,0);
},
{
name = ogonek;
pos = (493,10);
},
{
name = top;
pos = (346,845);
},
{
name = topleft;
pos = (95,660);
}
);
shapes = (
{
closed = 1;
nodes = (
(150,0,l),
(405,0,ls),
(445,0,o),
(472,19,o),
(488,50,cs),
(540,145,l),
(521,150,l),
(477,70,o),
(423,40,o),
(332,40,cs),
(157,40,l),
(206,320,l),
(476,320,l),
(483,360,l),
(213,360,l),
(259,620,l),
(445,620,ls),
(514,620,o),
(553,595,o),
(553,535,cs),
(553,526,o),
(552,516,o),
(550,505,c),
(570,505,l),
(583,588,o),
(585,594,o),
(585,602,cs),
(585,634,o),
(569,660,o),
(512,660,cs),
(86,660,l),
(82,640,l),
(102,640,ls),
(146,640,o),
(159,618,o),
(159,583,cs),
(159,569,o),
(156,557,o),
(60,0,c)
);
},
{
closed = 1;
nodes = (
(391,715,l),
(374,845,l),
(279,845,l),
(351,715,l)
);
}
);
};
layerId = UUID0;
shapes = (
{
ref = E;
},
{
pos = (155,190);
ref = gravecomb;
}
);
width = 593;
},
{
layerId = "F7C9FF73-DC1F-4AC6-B1F4-3E0815F912B2";
shapes = (
{
ref = E;
},
{
pos = (143,190);
ref = gravecomb;
}
);
width = 602;
}
);
unicode = 200;
},
{
glyphname = Ehookabove;
kernLeft = B;
layers = (
{
background = {
anchors = (
{
name = bottom;
pos = (256,0);
},
{
name = ogonek;
pos = (493,10);
},
{
name = top;
pos = (410,878);
},
{
name = topleft;
pos = (95,660);
}
);
shapes = (
{
closed = 1;
nodes = (
(150,0,l),
(405,0,ls),
(445,0,o),
(472,19,o),
(488,50,cs),
(540,145,l),
(521,150,l),
(477,70,o),
(423,40,o),
(332,40,cs),
(157,40,l),
(206,320,l),
(476,320,l),
(483,360,l),
(213,360,l),
(259,620,l),
(445,620,ls),
(514,620,o),
(553,595,o),
(553,535,cs),
(553,526,o),
(552,516,o),
(550,505,c),
(570,505,l),
(583,588,o),
(585,594,o),
(585,602,cs),
(585,634,o),
(569,660,o),
(512,660,cs),
(86,660,l),
(82,640,l),
(102,640,ls),
(146,640,o),
(159,618,o),
(159,583,cs),
(159,569,o),
(156,557,o),
(60,0,c)
);
},
{
closed = 1;
nodes = (
(410,711,l),
(422,757,o),
(475,766,o),
(482,801,cs),
(493,855,o),
(452,878,o),
(413,878,cs),
(379,878,o),
(354,869,o),
(328,839,c),
(318,828,o),
(310,811,o),
(307,792,c),
(348,791,l),
(363,830,o),
(381,841,o),
(406,841,cs),
(425,841,o),
(437,830,o),
(431,801,cs),
(427,777,o),
(390,758,o),
(379,711,c)
);
}
);
};
layerId = UUID0;
shapes = (
{
ref = E;
},
{
pos = (142,190);
ref = hookabovecomb;
}
);
width = 593;
},
{
layerId = "F7C9FF73-DC1F-4AC6-B1F4-3E0815F912B2";
shapes = (
{
ref = E;
},
{
pos = (136,190);
ref = hookabovecomb;
}
);
width = 602;
}
);
unicode = 7866;
},
{
color = 9;
glyphname = Emacron;
layers = (
{
background = {
anchors = (
{
name = bottom;
pos = (256,0);
},
{
name = ogonek;
pos = (493,10);
},
{
name = top;
pos = (389,810);
},
{
name = topleft;
pos = (95,660);
}
);
shapes = (
{
closed = 1;
nodes = (
(150,0,l),
(405,0,ls),
(445,0,o),
(472,19,o),
(488,50,cs),
(540,145,l),
(521,150,l),
(477,70,o),
(423,40,o),
(332,40,cs),
(157,40,l),
(206,320,l),
(476,320,l),
(483,360,l),
(213,360,l),
(259,620,l),
(445,620,ls),
(514,620,o),
(553,595,o),
(553,535,cs),
(553,526,o),
(552,516,o),
(550,505,c),
(570,505,l),
(583,588,o),
(585,594,o),
(585,602,cs),
(585,634,o),
(569,660,o),
(512,660,cs),
(86,660,l),
(82,640,l),
(102,640,ls),
(146,640,o),
(159,618,o),
(159,583,cs),
(159,569,o),
(156,557,o),
(60,0,c)
);
},
{
closed = 1;
nodes = (
(511,750,l),
(511,810,l),
(256,810,l),
(256,750,l)
);
}
);
};
layerId = UUID0;
shapes = (
{
ref = E;
},
{
pos = (138,190);
ref = macroncomb;
}
);
width = 593;
},
{
layerId = "F7C9FF73-DC1F-4AC6-B1F4-3E0815F912B2";
shapes = (
{
ref = E;
},
{
pos = (127,190);
ref = macroncomb;
}
);
width = 602;
}
);
unicode = 274;
},
{
glyphname = Etilde;
kernLeft = B;
layers = (
{
background = {
anchors = (
{
name = bottom;
pos = (256,0);
},
{
name = ogonek;
pos = (493,10);
},
{
name = top;
pos = (394,845);
},
{
name = topleft;
pos = (95,660);
}
);
shapes = (
{
closed = 1;
nodes = (
(150,0,l),
(405,0,ls),
(445,0,o),
(472,19,o),
(488,50,cs),
(540,145,l),
(521,150,l),
(477,70,o),
(423,40,o),
(332,40,cs),
(157,40,l),
(206,320,l),
(476,320,l),
(483,360,l),
(213,360,l),
(259,620,l),
(445,620,ls),
(514,620,o),
(553,595,o),
(553,535,cs),
(553,526,o),
(552,516,o),
(550,505,c),
(570,505,l),
(583,588,o),
(585,594,o),
(585,602,cs),
(585,634,o),
(569,660,o),
(512,660,cs),
(86,660,l),
(82,640,l),
(102,640,ls),
(146,640,o),
(159,618,o),
(159,583,cs),
(159,569,o),
(156,557,o),
(60,0,c)
);
},
{
closed = 1;
nodes = (
(295,750,l),
(298,766,o),
(317,790,o),
(332,790,cs),
(373,790,o),
(388,750,o),
(430,750,cs),
(470,750,o),
(495,774,o),
(507,845,c),
(477,845,l),
(474,829,o),
(456,805,o),
(440,805,cs),
(400,805,o),
(385,845,o),
(342,845,cs),
(302,845,o),
(278,821,o),
(265,750,c)
);
}
);
};
layerId = UUID0;
shapes = (
{
ref = E;
},
{
pos = (158,190);
ref = tildecomb;
}
);
width = 593;
},
{
layerId = "F7C9FF73-DC1F-4AC6-B1F4-3E0815F912B2";
shapes = (
{
ref = E;
},
{
pos = (157,190);
ref = tildecomb;
}
);
width = 602;
}
);
unicode = 7868;
},
{
glyphname = F;
kernLeft = B;
layers = (
{
background = {
shapes = (
{
closed = 1;
nodes = (
(150,0,l),
(205,315,l),
(431,315,l),
(438,355,l),
(212,355,l),
(259,620,l),
(418,620,ls),
(487,620,o),
(526,595,o),
(526,535,cs),
(526,526,o),
(525,516,o),
(523,505,c),
(543,505,l),
(556,588,o),
(558,594,o),
(558,602,cs),
(558,634,o),
(542,660,o),
(485,660,cs),
(86,660,l),
(82,640,l),
(102,640,ls),
(146,640,o),
(159,618,o),
(159,583,cs),
(159,569,o),
(156,557,o),
(60,0,c)
);
}
);
};
layerId = UUID0;
shapes = (
{
closed = 1;
nodes = (
(150,0,l),
(205,315,l),
(431,315,l),
(438,355,l),
(212,355,l),
(259,620,l),
(418,620,ls),
(487,620,o),
(526,595,o),
(526,535,cs),
(526,526,o),
(525,516,o),
(523,505,c),
(543,505,l),
(556,588,o),
(558,594,o),
(558,602,cs),
(558,634,o),
(542,660,o),
(485,660,cs),
(86,660,l),
(82,640,l),
(102,640,ls),
(146,640,o),
(159,618,o),
(159,583,cs),
(159,569,o),
(156,557,o),
(60,0,c)
);
}
);
width = 531;
},
{
layerId = "F7C9FF73-DC1F-4AC6-B1F4-3E0815F912B2";
shapes = (
{
closed = 1;
nodes = (
(178,0,l),
(233,315,l),
(453,315,l),
(461,360,l),
(241,360,l),
(286,615,l),
(425,615,ls),
(494,615,o),
(532,591,o),
(532,528,cs),
(532,518,o),
(531,507,o),
(529,495,c),
(559,495,l),
(575,587,o),
(576,595,o),
(576,602,cs),
(576,634,o),
(560,660,o),
(503,660,cs),
(84,660,l),
(79,630,l),
(89,630,ls),
(132,630,o),
(146,610,o),
(146,575,cs),
(146,564,o),
(144,549,o),
(141,530,cs),
(48,0,l)
);
}
);
width = 542;
}
);
unicode = 70;
},
{
glyphname = G;
kernLeft = C;
kernRight = G;
layers = (
{
background = {
shapes = (
{
closed = 1;
nodes = (
(429,-20,o),
(508,-1,o),
(588,43,c),
(621,231,ls),
(632,290,o),
(649,326,o),
(713,326,c),
(717,346,l),
(567,346,o),
(541,284,o),
(531,229,cs),
(500,55,l),
(457,34,o),
(411,20,o),
(339,20,cs),
(230,20,o),
(145,77,o),
(145,236,cs),
(145,419,o),
(243,640,o),
(448,640,cs),
(567,640,o),
(628,582,o),
(632,465,c),
(652,465,l),
(657,492,o),
(662,523,o),
(662,550,cs),
(662,662,o),
(505,680,o),
(425,680,cs),
(200,680,o),
(49,465,o),
(49,269,cs),
(49,104,o),
(156,-20,o),
(332,-20,cs)
);
}
);
};
layerId = UUID0;
shapes = (
{
closed = 1;
nodes = (
(429,-20,o),
(508,-1,o),
(588,43,c),
(621,231,ls),
(632,290,o),
(649,326,o),
(713,326,c),
(717,346,l),
(567,346,o),
(541,284,o),
(531,229,cs),
(500,55,l),
(457,34,o),
(411,20,o),
(339,20,cs),
(230,20,o),
(145,77,o),
(145,236,cs),
(145,419,o),
(243,640,o),
(448,640,cs),
(567,640,o),
(628,582,o),
(632,465,c),
(652,465,l),
(657,492,o),
(662,523,o),
(662,550,cs),
(662,662,o),
(505,680,o),
(425,680,cs),
(200,680,o),
(49,465,o),
(49,269,cs),
(49,104,o),
(156,-20,o),
(332,-20,cs)
);
}
);
width = 720;
},
{
layerId = "F7C9FF73-DC1F-4AC6-B1F4-3E0815F912B2";
shapes = (
{
closed = 1;
nodes = (
(446,-20,o),
(535,0,o),
(620,47,c),
(651,226,ls),
(662,286,o),
(687,321,o),
(732,321,c),
(737,346,l),
(567,346,o),
(531,279,o),
(521,224,cs),
(490,46,l),
(453,30,o),
(410,20,o),
(350,20,cs),
(250,20,o),
(175,71,o),
(175,226,cs),
(175,401,o),
(255,635,o),
(458,635,cs),
(574,635,o),
(632,583,o),
(636,460,c),
(666,460,l),
(671,485,o),
(676,515,o),
(676,543,cs),
(676,659,o),
(521,680,o),
(436,680,cs),
(208,680,o),
(40,477,o),
(40,273,cs),
(40,104,o),
(159,-20,o),
(343,-20,cs)
);
}
);
width = 734;
}
);
unicode = 71;
},
{
glyphname = Gbreve;
kernLeft = C;
kernRight = G;
layers = (
{
background = {
anchors = (
{
name = top;
pos = (469,835);
}
);
shapes = (
{
closed = 1;
nodes = (
(429,-20,o),
(508,-1,o),
(588,43,c),
(621,231,ls),
(632,290,o),
(649,326,o),
(713,326,c),
(717,346,l),
(567,346,o),
(541,284,o),
(531,229,cs),
(500,55,l),
(457,34,o),
(411,20,o),
(339,20,cs),
(230,20,o),
(145,77,o),
(145,236,cs),
(145,419,o),
(243,640,o),
(448,640,cs),
(567,640,o),
(628,582,o),
(632,465,c),
(652,465,l),
(657,492,o),
(662,523,o),
(662,550,cs),
(662,662,o),
(505,680,o),
(425,680,cs),
(200,680,o),
(49,465,o),
(49,269,cs),
(49,104,o),
(156,-20,o),
(332,-20,cs)
);
},
{
closed = 1;
nodes = (
(509,730,o),
(555,764,o),
(590,820,c),
(572,835,l),
(548,810,o),
(510,790,o),
(454,790,cs),
(398,790,o),
(368,810,o),
(352,835,c),
(330,820,l),
(345,764,o),
(379,730,o),
(444,730,cs)
);
}
);
};
layerId = UUID0;
shapes = (
{
ref = G;
},
{
pos = (304,20);
ref = brevecomb.case;
}
);
width = 720;
},
{
layerId = "F7C9FF73-DC1F-4AC6-B1F4-3E0815F912B2";
shapes = (
{
alignment = -1;
ref = G;
},
{
alignment = -1;
pos = (264,220);
ref = breve;
}
);
width = 734;
}
);
unicode = 286;
},
{
color = 9;
glyphname = Gcommaaccent;
layers = (
{
background = {
anchors = (
{
name = bottom;
pos = (88,-325);
}
);
shapes = (
{
closed = 1;
nodes = (
(429,-20,o),
(508,-1,o),
(588,43,c),
(621,231,ls),
(632,290,o),
(649,326,o),
(713,326,c),
(717,346,l),
(567,346,o),
(541,284,o),
(531,229,cs),
(500,55,l),
(457,34,o),
(411,20,o),
(339,20,cs),
(230,20,o),
(145,77,o),
(145,236,cs),
(145,419,o),
(243,640,o),
(448,640,cs),
(567,640,o),
(628,582,o),
(632,465,c),
(652,465,l),
(657,492,o),
(662,523,o),
(662,550,cs),
(662,662,o),
(505,680,o),
(425,680,cs),
(200,680,o),
(49,465,o),
(49,269,cs),
(49,104,o),
(156,-20,o),
(332,-20,cs)
);
},
{
closed = 1;
nodes = (
(42,-283,o),
(111,-209,o),
(111,-122,cs),
(111,-87,o),
(91,-70,o),
(56,-70,cs),
(17,-70,o),
(-15,-104,o),
(-15,-140,cs),
(-15,-165,o),
(4,-185,o),
(31,-185,c),
(63,-175,l),
(52,-235,o),
(15,-275,o),
(-41,-310,c),
(-34,-325,l)
);
}
);
};
layerId = UUID0;
shapes = (
{
ref = G;
},
{
ref = commaaccentcomb;
}
);
width = 720;
},
{
layerId = "F7C9FF73-DC1F-4AC6-B1F4-3E0815F912B2";
shapes = (
{
ref = G;
},
{
ref = commaaccentcomb;
}
);
width = 734;
}
);
unicode = 290;
},
{
glyphname = H;
kernLeft = B;
kernRight = H;
layers = (
{
background = {
shapes = (
{
closed = 1;
nodes = (
(149,0,l),
(205,320,l),
(505,320,l),
(470,120,ls),
(466,96,o),
(463,77,o),
(463,61,cs),
(463,12,o),
(486,0,o),
(539,0,cs),
(629,0,l),
(632,20,l),
(612,20,ls),
(569,20,o),
(555,40,o),
(555,75,cs),
(555,86,o),
(557,101,o),
(560,120,cs),
(655,660,l),
(565,660,l),
(512,360,l),
(212,360,l),
(244,540,ls),
(248,564,o),
(250,584,o),
(250,599,cs),
(250,650,o),
(228,660,o),
(175,660,cs),
(85,660,l),
(81,640,l),
(101,640,ls),
(145,640,o),
(158,618,o),
(158,583,cs),
(158,570,o),
(157,556,o),
(154,540,cs),
(59,0,l)
);
}
);
};
layerId = UUID0;
shapes = (
{
closed = 1;
nodes = (
(149,0,l),
(205,320,l),
(505,320,l),
(470,120,ls),
(466,96,o),
(463,77,o),
(463,61,cs),
(463,12,o),
(486,0,o),
(539,0,cs),
(629,0,l),
(632,20,l),
(612,20,ls),
(569,20,o),
(555,40,o),
(555,75,cs),
(555,86,o),
(557,101,o),
(560,120,cs),
(655,660,l),
(565,660,l),
(512,360,l),
(212,360,l),
(244,540,ls),
(248,564,o),
(250,584,o),
(250,599,cs),
(250,650,o),
(228,660,o),
(175,660,cs),
(85,660,l),
(81,640,l),
(101,640,ls),
(145,640,o),
(158,618,o),
(158,583,cs),
(158,570,o),
(157,556,o),
(154,540,cs),
(59,0,l)
);
}
);
width = 696;
},
{
layerId = "F7C9FF73-DC1F-4AC6-B1F4-3E0815F912B2";
shapes = (
{
closed = 1;
nodes = (
(178,0,l),
(234,320,l),
(504,320,l),
(470,130,ls),
(466,106,o),
(464,86,o),
(464,69,cs),
(464,17,o),
(485,0,o),
(538,0,cs),
(658,0,l),
(663,30,l),
(653,30,ls),
(609,30,o),
(596,52,o),
(596,87,cs),
(596,100,o),
(597,114,o),
(600,130,cs),
(694,660,l),
(564,660,l),
(512,365,l),
(242,365,l),
(271,530,l),
(276,553,o),
(278,574,o),
(278,593,cs),
(278,644,o),
(256,660,o),
(204,660,cs),
(84,660,l),
(79,630,l),
(89,630,ls),
(132,630,o),
(146,610,o),
(146,575,cs),
(146,564,o),
(144,549,o),
(141,530,cs),
(48,0,l)
);
}
);
width = 723;
}
);
unicode = 72;
},
{
glyphname = I;
kernLeft = I;
kernRight = H;
layers = (
{
anchors = (
{
name = bottom;
pos = (104,0);
},
{
name = ogonek;
pos = (219,10);
},
{
name = top;
pos = (204,660);
},
{
name = topleft;
pos = (95,660);
}
);
background = {
anchors = (
{
name = bottom;
pos = (104,0);
},
{
name = ogonek;
pos = (219,10);
},
{
name = top;
pos = (204,660);
},
{
name = topleft;
pos = (95,660);
}
);
shapes = (
{
closed = 1;
nodes = (
(222,0,l),
(225,20,l),
(205,20,ls),
(162,20,o),
(148,40,o),
(148,75,cs),
(148,86,o),
(150,101,o),
(153,120,cs),
(248,660,l),
(158,660,l),
(63,120,ls),
(59,96,o),
(56,77,o),
(56,61,cs),
(56,12,o),
(79,0,o),
(132,0,cs)
);
}
);
};
layerId = UUID0;
shapes = (
{
closed = 1;
nodes = (
(222,0,l),
(225,20,l),
(205,20,ls),
(162,20,o),
(148,40,o),
(148,75,cs),
(148,86,o),
(150,101,o),
(153,120,cs),
(248,660,l),
(158,660,l),
(63,120,ls),
(59,96,o),
(56,77,o),
(56,61,cs),
(56,12,o),
(79,0,o),
(132,0,cs)
);
}
);
width = 289;
},
{
anchors = (
{
name = bottom;
pos = (113,0);
},
{
name = ogonek;
pos = (235,10);
},
{
name = top;
pos = (209,660);
},
{
name = topleft;
pos = (95,660);
}
);
layerId = "F7C9FF73-DC1F-4AC6-B1F4-3E0815F912B2";
shapes = (
{
closed = 1;
nodes = (
(242,0,l),
(247,30,l),
(237,30,ls),
(193,30,o),
(180,52,o),
(180,87,cs),
(180,100,o),
(181,114,o),
(184,130,cs),
(278,660,l),
(148,660,l),
(54,130,ls),
(50,106,o),
(48,86,o),
(48,69,cs),
(48,17,o),
(69,0,o),
(122,0,cs)
);
}
);
width = 307;
}
);
unicode = 73;
},
{
glyphname = Iacute;
kernLeft = I;
kernRight = H;
layers = (
{
background = {
anchors = (
{
name = bottom;
pos = (104,0);
},
{
name = ogonek;
pos = (219,10);
},
{
name = top;
pos = (204,660);
},
{
name = topleft;
pos = (95,660);
}
);
shapes = (
{
closed = 1;
nodes = (
(222,0,l),
(225,20,l),
(205,20,ls),
(162,20,o),
(148,40,o),
(148,75,cs),
(148,86,o),
(150,101,o),
(153,120,cs),
(248,660,l),
(158,660,l),
(63,120,ls),
(59,96,o),
(56,77,o),
(56,61,cs),
(56,12,o),
(79,0,o),
(132,0,cs)
);
},
{
closed = 1;
nodes = (
(225,700,l),
(343,830,l),
(248,830,l),
(185,700,l)
);
}
);
};
layerId = UUID0;
shapes = (
{
alignment = -1;
ref = I;
},
{
alignment = -1;
pos = (82,0);
ref = acute;
}
);
width = 289;
},
{
layerId = "F7C9FF73-DC1F-4AC6-B1F4-3E0815F912B2";
shapes = (
{
alignment = -1;
ref = I;
},
{
alignment = -1;
pos = (95,0);
ref = acute;
}
);
width = 307;
}
);
unicode = 205;
},
{
glyphname = Icircumflex;
kernLeft = I;
kernRight = H;
layers = (
{
background = {
anchors = (
{
name = bottom;
pos = (104,0);
},
{
name = ogonek;
pos = (219,10);
},
{
name = top;
pos = (204,660);
},
{
name = topleft;
pos = (95,660);
}
);
shapes = (
{
closed = 1;
nodes = (
(222,0,l),
(225,20,l),
(205,20,ls),
(162,20,o),
(148,40,o),
(148,75,cs),
(148,86,o),
(150,101,o),
(153,120,cs),
(248,660,l),
(158,660,l),
(63,120,ls),
(59,96,o),
(56,77,o),
(56,61,cs),
(56,12,o),
(79,0,o),
(132,0,cs)
);
},
{
closed = 1;
nodes = (
(125,695,l),
(224,775,l),
(295,695,l),
(345,695,l),
(285,810,l),
(175,810,l),
(75,695,l)
);
}
);
};
layerId = UUID0;
shapes = (
{
alignment = -1;
ref = I;
},
{
alignment = -1;
pos = (-21,35);
ref = circumflex;
}
);
width = 289;
},
{
layerId = "F7C9FF73-DC1F-4AC6-B1F4-3E0815F912B2";
shapes = (
{
alignment = -1;
ref = I;
},
{
alignment = -1;
pos = (-13,25);
ref = circumflex;
}
);
width = 307;
}
);
unicode = 206;
},
{
glyphname = Idieresis;
kernLeft = I;
kernRight = H;
layers = (
{
background = {
anchors = (
{
name = bottom;
pos = (104,0);
},
{
name = ogonek;
pos = (219,10);
},
{
name = top;
pos = (231,815);
},
{
name = topleft;
pos = (95,660);
}
);
shapes = (
{
closed = 1;
nodes = (
(222,0,l),
(225,20,l),
(205,20,ls),
(162,20,o),
(148,40,o),
(148,75,cs),
(148,86,o),
(150,101,o),
(153,120,cs),
(248,660,l),
(158,660,l),
(63,120,ls),
(59,96,o),
(56,77,o),
(56,61,cs),
(56,12,o),
(79,0,o),
(132,0,cs)
);
},
{
closed = 1;
nodes = (
(329,725,o),
(354,751,o),
(354,778,cs),
(354,799,o),
(339,815,o),
(316,815,cs),
(285,815,o),
(262,788,o),
(262,761,cs),
(262,740,o),
(277,725,o),
(300,725,cs)
);
},
{
closed = 1;
nodes = (
(159,725,o),
(184,751,o),
(184,778,cs),
(184,799,o),
(169,815,o),
(146,815,cs),
(115,815,o),
(92,788,o),
(92,761,cs),
(92,740,o),
(107,725,o),
(130,725,cs)
);
}
);
};
layerId = UUID0;
shapes = (
{
ref = I;
},
{
pos = (-18,190);
ref = dieresiscomb;
}
);
width = 289;
},
{
layerId = "F7C9FF73-DC1F-4AC6-B1F4-3E0815F912B2";
shapes = (
{
ref = I;
},
{
pos = (-29,190);
ref = dieresiscomb;
}
);
width = 307;
}
);
unicode = 207;
},
{
glyphname = Idotaccent;
kernLeft = I;
kernRight = H;
layers = (
{
background = {
shapes = (
{
closed = 1;
nodes = (
(222,0,l),
(225,20,l),
(205,20,ls),
(162,20,o),
(148,40,o),
(148,75,cs),
(148,86,o),
(150,101,o),
(153,120,cs),
(248,660,l),
(158,660,l),
(63,120,l),
(59,96,o),
(56,77,o),
(56,61,cs),
(56,12,o),
(79,0,o),
(132,0,cs)
);
},
{
closed = 1;
nodes = (
(250,710,o),
(270,736,o),
(270,767,cs),
(270,796,o),
(251,819,o),
(224,819,cs),
(189,819,o),
(169,793,o),
(169,762,cs),
(169,733,o),
(188,710,o),
(215,710,cs)
);
}
);
};
layerId = UUID0;
shapes = (
{
closed = 1;
nodes = (
(222,0,l),
(225,20,l),
(205,20,ls),
(162,20,o),
(148,40,o),
(148,75,cs),
(148,86,o),
(150,101,o),
(153,120,cs),
(248,660,l),
(158,660,l),
(63,120,l),
(59,96,o),
(56,77,o),
(56,61,cs),
(56,12,o),
(79,0,o),
(132,0,cs)
);
},
{
closed = 1;
nodes = (
(250,710,o),
(270,736,o),
(270,767,cs),
(270,796,o),
(251,819,o),
(224,819,cs),
(189,819,o),
(169,793,o),
(169,762,cs),
(169,733,o),
(188,710,o),
(215,710,cs)
);
}
);
width = 289;
},
{
layerId = "F7C9FF73-DC1F-4AC6-B1F4-3E0815F912B2";
shapes = (
{
closed = 1;
nodes = (
(242,0,l),
(247,30,l),
(237,30,ls),
(193,30,o),
(180,52,o),
(180,87,cs),
(180,100,o),
(182,114,o),
(278,660,c),
(148,660,l),
(49,107,o),
(48,85,o),
(48,69,cs),
(48,17,o),
(69,0,o),
(122,0,cs)
);
},
{
closed = 1;
nodes = (
(268,714,o),
(293,750,o),
(293,786,cs),
(293,819,o),
(274,846,o),
(231,846,cs),
(190,846,o),
(165,810,o),
(165,774,cs),
(165,741,o),
(184,714,o),
(227,714,cs)
);
}
);
width = 307;
}
);
unicode = 304;
},
{
glyphname = Idotbelow;
kernLeft = I;
kernRight = H;
layers = (
{
background = {
anchors = (
{
name = bottom;
pos = (75,-161);
},
{
name = ogonek;
pos = (219,10);
},
{
name = top;
pos = (204,660);
},
{
name = topleft;
pos = (95,660);
}
);
shapes = (
{
closed = 1;
nodes = (
(222,0,l),
(225,20,l),
(205,20,ls),
(162,20,o),
(148,40,o),
(148,75,cs),
(148,86,o),
(150,101,o),
(153,120,cs),
(248,660,l),
(158,660,l),
(63,120,ls),
(59,96,o),
(56,77,o),
(56,61,cs),
(56,12,o),
(79,0,o),
(132,0,cs)
);
},
{
closed = 1;
nodes = (
(104,-161,o),
(129,-134,o),
(129,-108,cs),
(129,-87,o),
(114,-71,o),
(91,-71,cs),
(62,-71,o),
(38,-97,o),
(38,-123,cs),
(38,-146,o),
(53,-161,o),
(75,-161,cs)
);
}
);
};
layerId = UUID0;
shapes = (
{
ref = I;
},
{
pos = (41,0);
ref = dotbelowcomb;
}
);
width = 289;
},
{
layerId = "F7C9FF73-DC1F-4AC6-B1F4-3E0815F912B2";
shapes = (
{
ref = I;
},
{
pos = (44,0);
ref = dotbelowcomb;
}
);
width = 307;
}
);
unicode = 7882;
},
{
glyphname = Igrave;
kernLeft = I;
kernRight = H;
layers = (
{
background = {
anchors = (
{
name = bottom;
pos = (104,0);
},
{
name = ogonek;
pos = (219,10);
},
{
name = top;
pos = (178,845);
},
{
name = topleft;
pos = (95,660);
}
);
shapes = (
{
closed = 1;
nodes = (
(222,0,l),
(225,20,l),
(205,20,ls),
(162,20,o),
(148,40,o),
(148,75,cs),
(148,86,o),
(150,101,o),
(153,120,cs),
(248,660,l),
(158,660,l),
(63,120,ls),
(59,96,o),
(56,77,o),
(56,61,cs),
(56,12,o),
(79,0,o),
(132,0,cs)
);
},
{
closed = 1;
nodes = (
(223,715,l),
(206,845,l),
(111,845,l),
(183,715,l)
);
}
);
};
layerId = UUID0;
shapes = (
{
ref = I;
},
{
pos = (-13,190);
ref = gravecomb;
}
);
width = 289;
},
{
layerId = "F7C9FF73-DC1F-4AC6-B1F4-3E0815F912B2";
shapes = (
{
ref = I;
},
{
pos = (-24,190);
ref = gravecomb;
}
);
width = 307;
}
);
unicode = 204;
},
{
glyphname = Ihookabove;
kernLeft = I;
kernRight = H;
layers = (
{
background = {
anchors = (
{
name = bottom;
pos = (104,0);
},
{
name = ogonek;
pos = (219,10);
},
{
name = top;
pos = (242,878);
},
{
name = topleft;
pos = (95,660);
}
);
shapes = (
{
closed = 1;
nodes = (
(222,0,l),
(225,20,l),
(205,20,ls),
(162,20,o),
(148,40,o),
(148,75,cs),
(148,86,o),
(150,101,o),
(153,120,cs),
(248,660,l),
(158,660,l),
(63,120,ls),
(59,96,o),
(56,77,o),
(56,61,cs),
(56,12,o),
(79,0,o),
(132,0,cs)
);
},
{
closed = 1;
nodes = (
(242,711,l),
(254,757,o),
(307,766,o),
(314,801,cs),
(325,855,o),
(284,878,o),
(245,878,cs),
(211,878,o),
(186,869,o),
(160,839,c),
(150,828,o),
(142,811,o),
(139,792,c),
(180,791,l),
(195,830,o),
(213,841,o),
(238,841,cs),
(257,841,o),
(269,830,o),
(263,801,cs),
(259,777,o),
(222,758,o),
(211,711,c)
);
}
);
};
layerId = UUID0;
shapes = (
{
ref = I;
},
{
pos = (-26,190);
ref = hookabovecomb;
}
);
width = 289;
},
{
layerId = "F7C9FF73-DC1F-4AC6-B1F4-3E0815F912B2";
shapes = (
{
ref = I;
},
{
pos = (-31,190);
ref = hookabovecomb;
}
);
width = 307;
}
);
unicode = 7880;
},
{
color = 9;
glyphname = Imacron;
layers = (
{
background = {
anchors = (
{
name = bottom;
pos = (104,0);
},
{
name = ogonek;
pos = (219,10);
},
{
name = top;
pos = (221,810);
},
{
name = topleft;
pos = (95,660);
}
);
shapes = (
{
closed = 1;
nodes = (
(222,0,l),
(225,20,l),
(205,20,ls),
(162,20,o),
(148,40,o),
(148,75,cs),
(148,86,o),
(150,101,o),
(153,120,cs),
(248,660,l),
(158,660,l),
(63,120,ls),
(59,96,o),
(56,77,o),
(56,61,cs),
(56,12,o),
(79,0,o),
(132,0,cs)
);
},
{
closed = 1;
nodes = (
(343,750,l),
(343,810,l),
(88,810,l),
(88,750,l)
);
}
);
};
layerId = UUID0;
shapes = (
{
ref = I;
},
{
pos = (-30,190);
ref = macroncomb;
}
);
width = 289;
},
{
layerId = "F7C9FF73-DC1F-4AC6-B1F4-3E0815F912B2";
shapes = (
{
ref = I;
},
{
pos = (-40,190);
ref = macroncomb;
}
);
width = 307;
}
);
unicode = 298;
},
{
glyphname = Itilde;
kernLeft = I;
kernRight = H;
layers = (
{
background = {
anchors = (
{
name = bottom;
pos = (104,0);
},
{
name = ogonek;
pos = (219,10);
},
{
name = top;
pos = (226,845);
},
{
name = topleft;
pos = (95,660);
}
);
shapes = (
{
closed = 1;
nodes = (
(222,0,l),
(225,20,l),
(205,20,ls),
(162,20,o),
(148,40,o),
(148,75,cs),
(148,86,o),
(150,101,o),
(153,120,cs),
(248,660,l),
(158,660,l),
(63,120,ls),
(59,96,o),
(56,77,o),
(56,61,cs),
(56,12,o),
(79,0,o),
(132,0,cs)
);
},
{
closed = 1;
nodes = (
(127,750,l),
(130,766,o),
(149,790,o),
(164,790,cs),
(205,790,o),
(220,750,o),
(262,750,cs),
(302,750,o),
(327,774,o),
(339,845,c),
(309,845,l),
(306,829,o),
(288,805,o),
(272,805,cs),
(232,805,o),
(217,845,o),
(174,845,cs),
(134,845,o),
(110,821,o),
(97,750,c)
);
}
);
};
layerId = UUID0;
shapes = (
{
ref = I;
},
{
pos = (-10,190);
ref = tildecomb;
}
);
width = 289;
},
{
layerId = "F7C9FF73-DC1F-4AC6-B1F4-3E0815F912B2";
shapes = (
{
ref = I;
},
{
pos = (-10,190);
ref = tildecomb;
}
);
width = 307;
}
);
unicode = 296;
},
{
glyphname = J;
layers = (
{
background = {
shapes = (
{
closed = 1;
nodes = (
(65,-137,o),
(115,-72,o),
(142,78,cs),
(245,660,l),
(155,660,l),
(52,78,ls),
(31,-43,o),
(-12,-117,o),
(-76,-117,c),
(-80,-137,l)
);
}
);
};
layerId = UUID0;
shapes = (
{
closed = 1;
nodes = (
(65,-137,o),
(115,-72,o),
(142,78,cs),
(245,660,l),
(155,660,l),
(52,78,ls),
(31,-43,o),
(-12,-117,o),
(-76,-117,c),
(-80,-137,l)
);
}
);
width = 264;
},
{
layerId = "F7C9FF73-DC1F-4AC6-B1F4-3E0815F912B2";
shapes = (
{
closed = 1;
nodes = (
(88,-137,o),
(142,-89,o),
(171,83,c),
(273,660,l),
(143,660,l),
(41,83,l),
(17,-59,o),
(-25,-99,o),
(-84,-107,c),
(-90,-137,l)
);
}
);
width = 280;
}
);
unicode = 74;
},
{
glyphname = K;
kernLeft = B;
layers = (
{
background = {
shapes = (
{
closed = 1;
nodes = (
(604,-10,o),
(624,-5,o),
(640,0,c),
(643,19,l),
(594,26,o),
(536,73,o),
(492,130,cs),
(305,370,l),
(534,565,l),
(598,621,o),
(636,635,o),
(691,635,c),
(696,660,l),
(646,660,ls),
(567,660,o),
(515,605,o),
(457,555,cs),
(210,345,l),
(250,564,o),
(252,584,o),
(252,599,cs),
(252,648,o),
(229,660,o),
(176,660,cs),
(86,660,l),
(82,640,l),
(102,640,ls),
(146,640,o),
(159,618,o),
(159,583,cs),
(159,569,o),
(156,557,o),
(60,0,c),
(150,0,l),
(208,330,l),
(379,110,ls),
(456,10,o),
(518,-10,o),
(573,-10,cs)
);
}
);
};
layerId = UUID0;
shapes = (
{
closed = 1;
nodes = (
(604,-10,o),
(624,-5,o),
(640,0,c),
(643,19,l),
(594,26,o),
(536,73,o),
(492,130,cs),
(305,370,l),
(534,565,l),
(598,621,o),
(636,635,o),
(691,635,c),
(696,660,l),
(646,660,ls),
(567,660,o),
(515,605,o),
(457,555,cs),
(210,345,l),
(250,564,o),
(252,584,o),
(252,599,cs),
(252,648,o),
(229,660,o),
(176,660,cs),
(86,660,l),
(82,640,l),
(102,640,ls),
(146,640,o),
(159,618,o),
(159,583,cs),
(159,569,o),
(156,557,o),
(60,0,c),
(150,0,l),
(208,330,l),
(379,110,ls),
(456,10,o),
(518,-10,o),
(573,-10,cs)
);
}
);
width = 678;
},
{
layerId = "F7C9FF73-DC1F-4AC6-B1F4-3E0815F912B2";
shapes = (
{
closed = 1;
nodes = (
(613,-10,o),
(641,-5,o),
(657,0,c),
(661,24,l),
(623,29,o),
(562,75,o),
(520,130,cs),
(332,370,l),
(513,554,ls),
(569,610,o),
(633,625,o),
(709,625,c),
(715,660,l),
(645,660,ls),
(565,660,o),
(502,611,o),
(449,555,c),
(238,340,l),
(275,556,o),
(279,575,o),
(279,592,cs),
(279,643,o),
(257,660,o),
(204,660,cs),
(84,660,l),
(79,630,l),
(89,630,ls),
(132,630,o),
(146,610,o),
(146,575,cs),
(146,562,o),
(145,546,o),
(49,0,c),
(179,0,l),
(228,278,l),
(359,110,ls),
(436,10,o),
(508,-10,o),
(582,-10,cs)
);
}
);
width = 694;
}
);
unicode = 75;
},
{
color = 9;
glyphname = Kcommaaccent;
layers = (
{
background = {
anchors = (
{
name = bottom;
pos = (88,-325);
}
);
shapes = (
{
closed = 1;
nodes = (
(604,-10,o),
(624,-5,o),
(640,0,c),
(643,19,l),
(594,26,o),
(536,73,o),
(492,130,cs),
(305,370,l),
(534,565,l),
(598,621,o),
(636,635,o),
(691,635,c),
(696,660,l),
(646,660,ls),
(567,660,o),
(515,605,o),
(457,555,cs),
(210,345,l),
(250,564,o),
(252,584,o),
(252,599,cs),
(252,648,o),
(229,660,o),
(176,660,cs),
(86,660,l),
(82,640,l),
(102,640,ls),
(146,640,o),
(159,618,o),
(159,583,cs),
(159,569,o),
(156,557,o),
(60,0,c),
(150,0,l),
(208,330,l),
(379,110,ls),
(456,10,o),
(518,-10,o),
(573,-10,cs)
);
},
{
closed = 1;
nodes = (
(42,-283,o),
(111,-209,o),
(111,-122,cs),
(111,-87,o),
(91,-70,o),
(56,-70,cs),
(17,-70,o),
(-15,-104,o),
(-15,-140,cs),
(-15,-165,o),
(4,-185,o),
(31,-185,c),
(63,-175,l),
(52,-235,o),
(15,-275,o),
(-41,-310,c),
(-34,-325,l)
);
}
);
};
layerId = UUID0;
shapes = (
{
ref = K;
},
{
ref = commaaccentcomb;
}
);
width = 678;
},
{
layerId = "F7C9FF73-DC1F-4AC6-B1F4-3E0815F912B2";
shapes = (
{
ref = K;
},
{
ref = commaaccentcomb;
}
);
width = 694;
}
);
unicode = 310;
},
{
glyphname = L;
kernLeft = B;
layers = (
{
background = {
shapes = (
{
closed = 1;
nodes = (
(505,0,l),
(512,40,l),
(157,40,l),
(249,563,o),
(251,583,o),
(251,599,cs),
(251,650,o),
(229,660,o),
(176,660,cs),
(86,660,l),
(82,640,l),
(102,640,ls),
(146,640,o),
(159,618,o),
(159,583,cs),
(159,569,o),
(156,557,o),
(60,0,c)
);
}
);
};
layerId = UUID0;
shapes = (
{
closed = 1;
nodes = (
(505,0,l),
(512,40,l),
(157,40,l),
(249,563,o),
(251,583,o),
(251,599,cs),
(251,650,o),
(229,660,o),
(176,660,cs),
(86,660,l),
(82,640,l),
(102,640,ls),
(146,640,o),
(159,618,o),
(159,583,cs),
(159,569,o),
(156,557,o),
(60,0,c)
);
}
);
width = 557;
},
{
layerId = "F7C9FF73-DC1F-4AC6-B1F4-3E0815F912B2";
shapes = (
{
closed = 1;
nodes = (
(523,0,l),
(530,45,l),
(185,45,l),
(271,530,l),
(276,553,o),
(278,574,o),
(278,593,cs),
(278,644,o),
(256,660,o),
(204,660,cs),
(84,660,l),
(79,630,l),
(89,630,ls),
(132,630,o),
(146,610,o),
(146,575,cs),
(146,564,o),
(144,549,o),
(141,530,cs),
(48,0,l)
);
}
);
width = 567;
}
);
unicode = 76;
},
{
color = 9;
glyphname = Lacute;
layers = (
{
background = {
anchors = (
{
name = top;
pos = (161,660);
}
);
shapes = (
{
closed = 1;
nodes = (
(505,0,l),
(512,40,l),
(157,40,l),
(249,563,o),
(251,583,o),
(251,599,cs),
(251,650,o),
(229,660,o),
(176,660,cs),
(86,660,l),
(82,640,l),
(102,640,ls),
(146,640,o),
(159,618,o),
(159,583,cs),
(159,569,o),
(156,557,o),
(60,0,c)
);
},
{
closed = 1;
nodes = (
(154,540,l),
(280,655,l),
(195,655,l),
(104,540,l)
);
}
);
};
layerId = UUID0;
shapes = (
{
ref = L;
},
{
ref = acutecomb;
}
);
width = 557;
},
{
layerId = "F7C9FF73-DC1F-4AC6-B1F4-3E0815F912B2";
shapes = (
{
ref = L;
},
{
ref = acutecomb;
}
);
width = 567;
}
);
unicode = 313;
},
{
color = 9;
glyphname = Lcaron;
layers = (
{
background = {
anchors = (
{
name = top;
pos = (266,635);
}
);
shapes = (
{
closed = 1;
nodes = (
(505,0,l),
(512,40,l),
(157,40,l),
(249,563,o),
(251,583,o),
(251,599,cs),
(251,650,o),
(229,660,o),
(176,660,cs),
(86,660,l),
(82,640,l),
(102,640,ls),
(146,640,o),
(159,618,o),
(159,583,cs),
(159,569,o),
(156,557,o),
(60,0,c)
);
},
{
closed = 1;
nodes = (
(291,520,l),
(391,635,l),
(341,635,l),
(242,555,l),
(171,635,l),
(121,635,l),
(181,520,l)
);
}
);
};
layerId = UUID0;
shapes = (
{
ref = L;
},
{
ref = caroncomb;
}
);
width = 557;
},
{
layerId = "F7C9FF73-DC1F-4AC6-B1F4-3E0815F912B2";
shapes = (
{
ref = L;
},
{
ref = caroncomb;
}
);
width = 567;
}
);
unicode = 317;
},
{
color = 9;
glyphname = Lcommaaccent;
layers = (
{
background = {
anchors = (
{
name = bottom;
pos = (88,-325);
}
);
shapes = (
{
closed = 1;
nodes = (
(505,0,l),
(512,40,l),
(157,40,l),
(249,563,o),
(251,583,o),
(251,599,cs),
(251,650,o),
(229,660,o),
(176,660,cs),
(86,660,l),
(82,640,l),
(102,640,ls),
(146,640,o),
(159,618,o),
(159,583,cs),
(159,569,o),
(156,557,o),
(60,0,c)
);
},
{
closed = 1;
nodes = (
(42,-283,o),
(111,-209,o),
(111,-122,cs),
(111,-87,o),
(91,-70,o),
(56,-70,cs),
(17,-70,o),
(-15,-104,o),
(-15,-140,cs),
(-15,-165,o),
(4,-185,o),
(31,-185,c),
(63,-175,l),
(52,-235,o),
(15,-275,o),
(-41,-310,c),
(-34,-325,l)
);
}
);
};
layerId = UUID0;
shapes = (
{
ref = L;
},
{
ref = commaaccentcomb;
}
);
width = 557;
},
{
layerId = "F7C9FF73-DC1F-4AC6-B1F4-3E0815F912B2";
shapes = (
{
ref = L;
},
{
ref = commaaccentcomb;
}
);
width = 567;
}
);
unicode = 315;
},
{
glyphname = M;
layers = (
{
background = {
shapes = (
{
closed = 1;
nodes = (
(788,-25,l),
(740,-25,o),
(718,15,o),
(718,84,cs),
(718,109,o),
(721,138,o),
(727,170,cs),
(814,660,l),
(724,660,l),
(397,140,l),
(249,660,l),
(154,660,l),
(38,0,l),
(78,0,l),
(177,565,l),
(338,0,l),
(358,0,l),
(705,555,l),
(637,170,ls),
(631,138,o),
(628,110,o),
(628,86,cs),
(628,-6,o),
(670,-45,o),
(785,-45,c)
);
}
);
};
layerId = UUID0;
shapes = (
{
closed = 1;
nodes = (
(788,-25,l),
(740,-25,o),
(718,15,o),
(718,84,cs),
(718,109,o),
(721,138,o),
(727,170,cs),
(814,660,l),
(724,660,l),
(397,140,l),
(249,660,l),
(154,660,l),
(38,0,l),
(78,0,l),
(177,565,l),
(338,0,l),
(358,0,l),
(705,555,l),
(637,170,ls),
(631,138,o),
(628,110,o),
(628,86,cs),
(628,-6,o),
(670,-45,o),
(785,-45,c)
);
}
);
width = 857;
},
{
layerId = "F7C9FF73-DC1F-4AC6-B1F4-3E0815F912B2";
shapes = (
{
closed = 1;
nodes = (
(795,-20,l),
(761,-13,o),
(744,17,o),
(744,70,cs),
(744,97,o),
(748,130,o),
(755,170,cs),
(842,660,l),
(711,660,l),
(419,169,l),
(264,660,l),
(142,660,l),
(26,0,l),
(76,0,l),
(171,544,l),
(344,0,l),
(377,0,l),
(688,524,l),
(625,170,l),
(621,143,o),
(618,121,o),
(618,100,cs),
(618,0,o),
(670,-45,o),
(791,-45,c)
);
}
);
width = 869;
}
);
unicode = 77;
},
{
glyphname = N;
kernLeft = B;
kernRight = N;
layers = (
{
background = {
shapes = (
{
closed = 1;
nodes = (
(550,-10,l),
(668,660,l),
(628,660,l),
(541,165,l),
(267,600,ls),
(244,637,o),
(208,660,o),
(143,660,cs),
(78,660,l),
(74,640,l),
(84,640,ls),
(141,640,o),
(160,615,o),
(160,572,cs),
(160,561,o),
(158,552,o),
(62,0,c),
(102,0,l),
(194,525,l),
(530,-10,l)
);
}
);
};
layerId = UUID0;
shapes = (
{
closed = 1;
nodes = (
(550,-10,l),
(668,660,l),
(628,660,l),
(541,165,l),
(267,600,ls),
(244,637,o),
(208,660,o),
(143,660,cs),
(78,660,l),
(74,640,l),
(84,640,ls),
(141,640,o),
(160,615,o),
(160,572,cs),
(160,561,o),
(158,552,o),
(62,0,c),
(102,0,l),
(194,525,l),
(530,-10,l)
);
}
);
width = 687;
},
{
layerId = "F7C9FF73-DC1F-4AC6-B1F4-3E0815F912B2";
shapes = (
{
closed = 1;
nodes = (
(570,-3,l),
(687,660,l),
(637,660,l),
(556,200,l),
(282,600,l),
(258,640,o),
(218,660,o),
(142,660,cs),
(72,660,l),
(67,630,l),
(72,630,ls),
(129,630,o),
(149,603,o),
(149,566,cs),
(149,558,o),
(147,549,o),
(51,0,c),
(101,0,l),
(188,495,l),
(524,-3,l)
);
}
);
width = 695;
}
);
unicode = 78;
},
{
color = 9;
glyphname = Nacute;
layers = (
{
background = {
anchors = (
{
name = top;
pos = (161,660);
}
);
shapes = (
{
closed = 1;
nodes = (
(550,-10,l),
(668,660,l),
(628,660,l),
(541,165,l),
(267,600,ls),
(244,637,o),
(208,660,o),
(143,660,cs),
(78,660,l),
(74,640,l),
(84,640,ls),
(141,640,o),
(160,615,o),
(160,572,cs),
(160,561,o),
(158,552,o),
(62,0,c),
(102,0,l),
(194,525,l),
(530,-10,l)
);
},
{
closed = 1;
nodes = (
(154,540,l),
(280,655,l),
(195,655,l),
(104,540,l)
);
}
);
};
layerId = UUID0;
shapes = (
{
ref = N;
},
{
ref = acutecomb;
}
);
width = 687;
},
{
layerId = "F7C9FF73-DC1F-4AC6-B1F4-3E0815F912B2";
shapes = (
{
ref = N;
},
{
ref = acutecomb;
}
);
width = 695;
}
);
unicode = 323;
},
{
color = 9;
glyphname = Ncaron;
layers = (
{
background = {
anchors = (
{
name = top;
pos = (266,635);
}
);
shapes = (
{
closed = 1;
nodes = (
(550,-10,l),
(668,660,l),
(628,660,l),
(541,165,l),
(267,600,ls),
(244,637,o),
(208,660,o),
(143,660,cs),
(78,660,l),
(74,640,l),
(84,640,ls),
(141,640,o),
(160,615,o),
(160,572,cs),
(160,561,o),
(158,552,o),
(62,0,c),
(102,0,l),
(194,525,l),
(530,-10,l)
);
},
{
closed = 1;
nodes = (
(291,520,l),
(391,635,l),
(341,635,l),
(242,555,l),
(171,635,l),
(121,635,l),
(181,520,l)
);
}
);
};
layerId = UUID0;
shapes = (
{
ref = N;
},
{
ref = caroncomb;
}
);
width = 687;
},
{
layerId = "F7C9FF73-DC1F-4AC6-B1F4-3E0815F912B2";
shapes = (
{
ref = N;
},
{
ref = caroncomb;
}
);
width = 695;
}
);
unicode = 327;
},
{
color = 9;
glyphname = Ncommaaccent;
layers = (
{
background = {
anchors = (
{
name = bottom;
pos = (88,-325);
}
);
shapes = (
{
closed = 1;
nodes = (
(550,-10,l),
(668,660,l),
(628,660,l),
(541,165,l),
(267,600,ls),
(244,637,o),
(208,660,o),
(143,660,cs),
(78,660,l),
(74,640,l),
(84,640,ls),
(141,640,o),
(160,615,o),
(160,572,cs),
(160,561,o),
(158,552,o),
(62,0,c),
(102,0,l),
(194,525,l),
(530,-10,l)
);
},
{
closed = 1;
nodes = (
(42,-283,o),
(111,-209,o),
(111,-122,cs),
(111,-87,o),
(91,-70,o),
(56,-70,cs),
(17,-70,o),
(-15,-104,o),
(-15,-140,cs),
(-15,-165,o),
(4,-185,o),
(31,-185,c),
(63,-175,l),
(52,-235,o),
(15,-275,o),
(-41,-310,c),
(-34,-325,l)
);
}
);
};
layerId = UUID0;
shapes = (
{
ref = N;
},
{
ref = commaaccentcomb;
}
);
width = 687;
},
{
layerId = "F7C9FF73-DC1F-4AC6-B1F4-3E0815F912B2";
shapes = (
{
ref = N;
},
{
ref = commaaccentcomb;
}
);
width = 695;
}
);
unicode = 325;
},
{
glyphname = Ntilde;
kernLeft = B;
kernRight = N;
layers = (
{
background = {
shapes = (
{
closed = 1;
nodes = (
(550,-10,l),
(668,660,l),
(628,660,l),
(541,165,l),
(267,600,ls),
(244,637,o),
(208,660,o),
(143,660,cs),
(78,660,l),
(74,640,l),
(84,640,ls),
(141,640,o),
(160,615,o),
(160,572,cs),
(160,561,o),
(158,552,o),
(62,0,c),
(102,0,l),
(194,525,l),
(530,-10,l)
);
},
{
closed = 1;
nodes = (
(341,694,l),
(344,710,o),
(363,734,o),
(378,734,cs),
(419,734,o),
(434,694,o),
(476,694,cs),
(516,694,o),
(541,718,o),
(553,789,c),
(523,789,l),
(520,773,o),
(502,749,o),
(486,749,cs),
(446,749,o),
(431,789,o),
(388,789,cs),
(348,789,o),
(324,765,o),
(311,694,c)
);
}
);
};
layerId = UUID0;
shapes = (
{
alignment = -1;
ref = N;
},
{
alignment = -1;
pos = (212,14);
ref = tilde;
}
);
width = 687;
},
{
layerId = "F7C9FF73-DC1F-4AC6-B1F4-3E0815F912B2";
shapes = (
{
alignment = -1;
ref = N;
},
{
alignment = -1;
pos = (222,14);
ref = tilde;
}
);
width = 695;
}
);
unicode = 209;
},
{
glyphname = O;
kernLeft = C;
kernRight = O;
layers = (
{
anchors = (
{
name = bottom;
pos = (315,0);
},
{
name = center;
pos = (373,330);
},
{
name = ogonek;
pos = (600,10);
},
{
name = top;
pos = (431,660);
},
{
name = topleft;
pos = (95,660);
},
{
name = topright;
pos = (617,660);
}
);
background = {
anchors = (
{
name = bottom;
pos = (315,0);
},
{
name = center;
pos = (373,330);
},
{
name = ogonek;
pos = (600,10);
},
{
name = top;
pos = (431,660);
},
{
name = topleft;
pos = (95,660);
},
{
name = topright;
pos = (617,660);
}
);
shapes = (
{
closed = 1;
nodes = (
(535,-20,o),
(682,207,o),
(682,407,cs),
(682,564,o),
(590,680,o),
(426,680,cs),
(194,680,o),
(48,450,o),
(48,251,cs),
(48,95,o),
(139,-20,o),
(303,-20,cs)
);
},
{
closed = 1;
nodes = (
(203,20,o),
(146,98,o),
(146,231,cs),
(146,394,o),
(227,640,o),
(419,640,cs),
(526,640,o),
(584,560,o),
(584,427,cs),
(584,265,o),
(501,20,o),
(310,20,cs)
);
}
);
};
layerId = UUID0;
shapes = (
{
closed = 1;
nodes = (
(535,-20,o),
(682,207,o),
(682,407,cs),
(682,564,o),
(590,680,o),
(426,680,cs),
(194,680,o),
(48,450,o),
(48,251,cs),
(48,95,o),
(139,-20,o),
(303,-20,cs)
);
},
{
closed = 1;
nodes = (
(203,20,o),
(146,98,o),
(146,231,cs),
(146,394,o),
(227,640,o),
(419,640,cs),
(526,640,o),
(584,560,o),
(584,427,cs),
(584,265,o),
(501,20,o),
(310,20,cs)
);
}
);
width = 712;
},
{
anchors = (
{
name = bottom;
pos = (327,0);
},
{
name = center;
pos = (385,330);
},
{
name = ogonek;
pos = (620,10);
},
{
name = top;
pos = (443,660);
},
{
name = topleft;
pos = (95,660);
},
{
name = topright;
pos = (644,660);
}
);
layerId = "F7C9FF73-DC1F-4AC6-B1F4-3E0815F912B2";
shapes = (
{
closed = 1;
nodes = (
(551,-20,o),
(713,196,o),
(713,404,cs),
(713,565,o),
(611,680,o),
(438,680,cs),
(202,680,o),
(40,464,o),
(40,256,cs),
(40,95,o),
(142,-20,o),
(315,-20,cs)
);
},
{
closed = 1;
nodes = (
(227,25,o),
(176,96,o),
(176,221,cs),
(176,373,o),
(244,635,o),
(430,635,cs),
(526,635,o),
(578,565,o),
(578,438,cs),
(578,283,o),
(511,25,o),
(323,25,cs)
);
}
);
width = 735;
}
);
unicode = 79;
},
{
glyphname = Oacute;
kernLeft = C;
kernRight = O;
layers = (
{
background = {
anchors = (
{
name = bottom;
pos = (315,0);
},
{
name = center;
pos = (373,330);
},
{
name = ogonek;
pos = (600,10);
},
{
name = top;
pos = (431,660);
},
{
name = topleft;
pos = (95,660);
},
{
name = topright;
pos = (617,660);
}
);
shapes = (
{
closed = 1;
nodes = (
(535,-20,o),
(682,207,o),
(682,407,cs),
(682,564,o),
(590,680,o),
(426,680,cs),
(194,680,o),
(48,450,o),
(48,251,cs),
(48,95,o),
(139,-20,o),
(303,-20,cs)
);
},
{
closed = 1;
nodes = (
(203,20,o),
(146,98,o),
(146,231,cs),
(146,394,o),
(227,640,o),
(419,640,cs),
(526,640,o),
(584,560,o),
(584,427,cs),
(584,265,o),
(501,20,o),
(310,20,cs)
);
},
{
closed = 1;
nodes = (
(452,720,l),
(570,850,l),
(475,850,l),
(412,720,l)
);
}
);
};
layerId = UUID0;
shapes = (
{
alignment = -1;
ref = O;
},
{
alignment = -1;
pos = (309,20);
ref = acute;
}
);
width = 712;
},
{
layerId = "F7C9FF73-DC1F-4AC6-B1F4-3E0815F912B2";
shapes = (
{
alignment = -1;
ref = O;
},
{
alignment = -1;
pos = (324,24);
ref = acute;
}
);
width = 735;
}
);
unicode = 211;
},
{
glyphname = Ocircumflex;
kernLeft = C;
kernRight = O;
layers = (
{
background = {
anchors = (
{
name = bottom;
pos = (315,0);
},
{
name = center;
pos = (373,330);
},
{
name = ogonek;
pos = (600,10);
},
{
name = top;
pos = (431,660);
},
{
name = topleft;
pos = (95,660);
},
{
name = topright;
pos = (617,660);
}
);
shapes = (
{
closed = 1;
nodes = (
(535,-20,o),
(682,207,o),
(682,407,cs),
(682,564,o),
(590,680,o),
(426,680,cs),
(194,680,o),
(48,450,o),
(48,251,cs),
(48,95,o),
(139,-20,o),
(303,-20,cs)
);
},
{
closed = 1;
nodes = (
(203,20,o),
(146,98,o),
(146,231,cs),
(146,394,o),
(227,640,o),
(419,640,cs),
(526,640,o),
(584,560,o),
(584,427,cs),
(584,265,o),
(501,20,o),
(310,20,cs)
);
},
{
closed = 1;
nodes = (
(343,720,l),
(442,800,l),
(513,720,l),
(563,720,l),
(503,835,l),
(393,835,l),
(293,720,l)
);
}
);
};
layerId = UUID0;
shapes = (
{
alignment = -1;
ref = O;
},
{
alignment = -1;
pos = (197,60);
ref = circumflex;
}
);
width = 712;
},
{
layerId = "F7C9FF73-DC1F-4AC6-B1F4-3E0815F912B2";
shapes = (
{
alignment = -1;
ref = O;
},
{
alignment = -1;
pos = (221,70);
ref = circumflex;
}
);
width = 735;
}
);
unicode = 212;
},
{
glyphname = Ocircumflexacute;
kernLeft = C;
kernRight = O;
layers = (
{
background = {
anchors = (
{
name = bottom;
pos = (315,0);
},
{
name = center;
pos = (373,330);
},
{
name = ogonek;
pos = (600,10);
},
{
name = top;
pos = (630,893);
},
{
name = topleft;
pos = (95,660);
},
{
name = topright;
pos = (617,660);
}
);
shapes = (
{
closed = 1;
nodes = (
(535,-20,o),
(682,207,o),
(682,407,cs),
(682,564,o),
(590,680,o),
(426,680,cs),
(194,680,o),
(48,450,o),
(48,251,cs),
(48,95,o),
(139,-20,o),
(303,-20,cs)
);
},
{
closed = 1;
nodes = (
(203,20,o),
(146,98,o),
(146,231,cs),
(146,394,o),
(227,640,o),
(419,640,cs),
(526,640,o),
(584,560,o),
(584,427,cs),
(584,265,o),
(501,20,o),
(310,20,cs)
);
},
{
closed = 1;
nodes = (
(348,710,l),
(447,790,l),
(518,710,l),
(568,710,l),
(508,825,l),
(398,825,l),
(298,710,l)
);
},
{
closed = 1;
nodes = (
(623,773,l),
(749,888,l),
(664,888,l),
(573,773,l)
);
}
);
};
layerId = UUID0;
shapes = (
{
ref = O;
},
{
pos = (198,190);
ref = circumflexcomb_acutecomb;
}
);
width = 712;
},
{
layerId = "F7C9FF73-DC1F-4AC6-B1F4-3E0815F912B2";
shapes = (
{
ref = O;
},
{
pos = (194,190);
ref = circumflexcomb_acutecomb;
}
);
width = 735;
}
);
unicode = 7888;
},
{
glyphname = Ocircumflexdotbelow;
kernLeft = C;
kernRight = O;
layers = (
{
background = {
anchors = (
{
name = bottom;
pos = (286,-161);
},
{
name = center;
pos = (373,330);
},
{
name = ogonek;
pos = (600,10);
},
{
name = top;
pos = (443,825);
},
{
name = topleft;
pos = (95,660);
},
{
name = topright;
pos = (617,660);
}
);
shapes = (
{
closed = 1;
nodes = (
(535,-20,o),
(682,207,o),
(682,407,cs),
(682,564,o),
(590,680,o),
(426,680,cs),
(194,680,o),
(48,450,o),
(48,251,cs),
(48,95,o),
(139,-20,o),
(303,-20,cs)
);
},
{
closed = 1;
nodes = (
(203,20,o),
(146,98,o),
(146,231,cs),
(146,394,o),
(227,640,o),
(419,640,cs),
(526,640,o),
(584,560,o),
(584,427,cs),
(584,265,o),
(501,20,o),
(310,20,cs)
);
},
{
closed = 1;
nodes = (
(315,-161,o),
(340,-134,o),
(340,-108,cs),
(340,-87,o),
(325,-71,o),
(302,-71,cs),
(273,-71,o),
(249,-97,o),
(249,-123,cs),
(249,-146,o),
(264,-161,o),
(286,-161,cs)
);
},
{
closed = 1;
nodes = (
(348,710,l),
(447,790,l),
(518,710,l),
(568,710,l),
(508,825,l),
(398,825,l),
(298,710,l)
);
}
);
};
layerId = UUID0;
shapes = (
{
ref = O;
},
{
pos = (252,0);
ref = dotbelowcomb;
},
{
pos = (198,190);
ref = circumflexcomb;
}
);
width = 712;
},
{
layerId = "F7C9FF73-DC1F-4AC6-B1F4-3E0815F912B2";
shapes = (
{
ref = O;
},
{
pos = (258,0);
ref = dotbelowcomb;
},
{
pos = (194,190);
ref = circumflexcomb;
}
);
width = 735;
}
);
unicode = 7896;
},
{
glyphname = Ocircumflexgrave;
kernLeft = C;
kernRight = O;
layers = (
{
background = {
anchors = (
{
name = bottom;
pos = (315,0);
},
{
name = center;
pos = (373,330);
},
{
name = ogonek;
pos = (600,10);
},
{
name = top;
pos = (584,919);
},
{
name = topleft;
pos = (95,660);
},
{
name = topright;
pos = (617,660);
}
);
shapes = (
{
closed = 1;
nodes = (
(535,-20,o),
(682,207,o),
(682,407,cs),
(682,564,o),
(590,680,o),
(426,680,cs),
(194,680,o),
(48,450,o),
(48,251,cs),
(48,95,o),
(139,-20,o),
(303,-20,cs)
);
},
{
closed = 1;
nodes = (
(203,20,o),
(146,98,o),
(146,231,cs),
(146,394,o),
(227,640,o),
(419,640,cs),
(526,640,o),
(584,560,o),
(584,427,cs),
(584,265,o),
(501,20,o),
(310,20,cs)
);
},
{
closed = 1;
nodes = (
(348,710,l),
(447,790,l),
(518,710,l),
(568,710,l),
(508,825,l),
(398,825,l),
(298,710,l)
);
},
{
closed = 1;
nodes = (
(629,789,l),
(612,919,l),
(517,919,l),
(589,789,l)
);
}
);
};
layerId = UUID0;
shapes = (
{
ref = O;
},
{
pos = (198,190);
ref = circumflexcomb_gravecomb;
}
);
width = 712;
},
{
layerId = "F7C9FF73-DC1F-4AC6-B1F4-3E0815F912B2";
shapes = (
{
ref = O;
},
{
pos = (194,190);
ref = circumflexcomb_gravecomb;
}
);
width = 735;
}
);
unicode = 7890;
},
{
glyphname = Ocircumflexhookabove;
kernLeft = C;
kernRight = O;
layers = (
{
background = {
anchors = (
{
name = bottom;
pos = (315,0);
},
{
name = center;
pos = (373,330);
},
{
name = ogonek;
pos = (600,10);
},
{
name = top;
pos = (616,961);
},
{
name = topleft;
pos = (95,660);
},
{
name = topright;
pos = (617,660);
}
);
shapes = (
{
closed = 1;
nodes = (
(535,-20,o),
(682,207,o),
(682,407,cs),
(682,564,o),
(590,680,o),
(426,680,cs),
(194,680,o),
(48,450,o),
(48,251,cs),
(48,95,o),
(139,-20,o),
(303,-20,cs)
);
},
{
closed = 1;
nodes = (
(203,20,o),
(146,98,o),
(146,231,cs),
(146,394,o),
(227,640,o),
(419,640,cs),
(526,640,o),
(584,560,o),
(584,427,cs),
(584,265,o),
(501,20,o),
(310,20,cs)
);
},
{
closed = 1;
nodes = (
(348,710,l),
(447,790,l),
(518,710,l),
(568,710,l),
(508,825,l),
(398,825,l),
(298,710,l)
);
},
{
closed = 1;
nodes = (
(616,794,l),
(628,840,o),
(681,849,o),
(688,884,cs),
(699,938,o),
(658,961,o),
(619,961,cs),
(585,961,o),
(560,952,o),
(534,922,c),
(524,911,o),
(516,894,o),
(513,875,c),
(554,874,l),
(569,913,o),
(587,924,o),
(612,924,cs),
(631,924,o),
(643,913,o),
(637,884,cs),
(633,860,o),
(596,841,o),
(585,794,c)
);
}
);
};
layerId = UUID0;
shapes = (
{
ref = O;
},
{
pos = (198,190);
ref = circumflexcomb_hookabovecomb;
}
);
width = 712;
},
{
layerId = "F7C9FF73-DC1F-4AC6-B1F4-3E0815F912B2";
shapes = (
{
ref = O;
},
{
pos = (194,190);
ref = circumflexcomb_hookabovecomb;
}
);
width = 735;
}
);
unicode = 7892;
},
{
glyphname = Ocircumflextilde;
kernLeft = C;
kernRight = O;
layers = (
{
background = {
anchors = (
{
name = bottom;
pos = (315,0);
},
{
name = center;
pos = (373,330);
},
{
name = ogonek;
pos = (600,10);
},
{
name = top;
pos = (482,954);
},
{
name = topleft;
pos = (95,660);
},
{
name = topright;
pos = (617,660);
}
);
shapes = (
{
closed = 1;
nodes = (
(535,-20,o),
(682,207,o),
(682,407,cs),
(682,564,o),
(590,680,o),
(426,680,cs),
(194,680,o),
(48,450,o),
(48,251,cs),
(48,95,o),
(139,-20,o),
(303,-20,cs)
);
},
{
closed = 1;
nodes = (
(203,20,o),
(146,98,o),
(146,231,cs),
(146,394,o),
(227,640,o),
(419,640,cs),
(526,640,o),
(584,560,o),
(584,427,cs),
(584,265,o),
(501,20,o),
(310,20,cs)
);
},
{
closed = 1;
nodes = (
(348,710,l),
(447,790,l),
(518,710,l),
(568,710,l),
(508,825,l),
(398,825,l),
(298,710,l)
);
},
{
closed = 1;
nodes = (
(383,859,l),
(386,875,o),
(405,899,o),
(420,899,cs),
(461,899,o),
(476,859,o),
(518,859,cs),
(558,859,o),
(583,883,o),
(595,954,c),
(565,954,l),
(562,938,o),
(544,914,o),
(528,914,cs),
(488,914,o),
(473,954,o),
(430,954,cs),
(390,954,o),
(366,930,o),
(353,859,c)
);
}
);
};
layerId = UUID0;
shapes = (
{
ref = O;
},
{
pos = (198,190);
ref = circumflexcomb_tildecomb;
}
);
width = 712;
},
{
layerId = "F7C9FF73-DC1F-4AC6-B1F4-3E0815F912B2";
shapes = (
{
ref = O;
},
{
pos = (194,190);
ref = circumflexcomb_tildecomb;
}
);
width = 735;
}
);
unicode = 7894;
},
{
glyphname = Odieresis;
kernLeft = C;
kernRight = O;
layers = (
{
background = {
anchors = (
{
name = bottom;
pos = (315,0);
},
{
name = center;
pos = (373,330);
},
{
name = ogonek;
pos = (600,10);
},
{
name = top;
pos = (458,815);
},
{
name = topleft;
pos = (95,660);
},
{
name = topright;
pos = (617,660);
}
);
shapes = (
{
closed = 1;
nodes = (
(535,-20,o),
(682,207,o),
(682,407,cs),
(682,564,o),
(590,680,o),
(426,680,cs),
(194,680,o),
(48,450,o),
(48,251,cs),
(48,95,o),
(139,-20,o),
(303,-20,cs)
);
},
{
closed = 1;
nodes = (
(203,20,o),
(146,98,o),
(146,231,cs),
(146,394,o),
(227,640,o),
(419,640,cs),
(526,640,o),
(584,560,o),
(584,427,cs),
(584,265,o),
(501,20,o),
(310,20,cs)
);
},
{
closed = 1;
nodes = (
(556,725,o),
(581,751,o),
(581,778,cs),
(581,799,o),
(566,815,o),
(543,815,cs),
(512,815,o),
(489,788,o),
(489,761,cs),
(489,740,o),
(504,725,o),
(527,725,cs)
);
},
{
closed = 1;
nodes = (
(386,725,o),
(411,751,o),
(411,778,cs),
(411,799,o),
(396,815,o),
(373,815,cs),
(342,815,o),
(319,788,o),
(319,761,cs),
(319,740,o),
(334,725,o),
(357,725,cs)
);
}
);
};
layerId = UUID0;
shapes = (
{
ref = O;
},
{
pos = (209,190);
ref = dieresiscomb;
}
);
width = 712;
},
{
layerId = "F7C9FF73-DC1F-4AC6-B1F4-3E0815F912B2";
shapes = (
{
ref = O;
},
{
pos = (205,190);
ref = dieresiscomb;
}
);
width = 735;
}
);
unicode = 214;
},
{
glyphname = Odotbelow;
kernLeft = C;
kernRight = O;
layers = (
{
background = {
anchors = (
{
name = bottom;
pos = (286,-161);
},
{
name = center;
pos = (373,330);
},
{
name = ogonek;
pos = (600,10);
},
{
name = top;
pos = (431,660);
},
{
name = topleft;
pos = (95,660);
},
{
name = topright;
pos = (617,660);
}
);
shapes = (
{
closed = 1;
nodes = (
(535,-20,o),
(682,207,o),
(682,407,cs),
(682,564,o),
(590,680,o),
(426,680,cs),
(194,680,o),
(48,450,o),
(48,251,cs),
(48,95,o),
(139,-20,o),
(303,-20,cs)
);
},
{
closed = 1;
nodes = (
(203,20,o),
(146,98,o),
(146,231,cs),
(146,394,o),
(227,640,o),
(419,640,cs),
(526,640,o),
(584,560,o),
(584,427,cs),
(584,265,o),
(501,20,o),
(310,20,cs)
);
},
{
closed = 1;
nodes = (
(315,-161,o),
(340,-134,o),
(340,-108,cs),
(340,-87,o),
(325,-71,o),
(302,-71,cs),
(273,-71,o),
(249,-97,o),
(249,-123,cs),
(249,-146,o),
(264,-161,o),
(286,-161,cs)
);
}
);
};
layerId = UUID0;
shapes = (
{
ref = O;
},
{
pos = (252,0);
ref = dotbelowcomb;
}
);
width = 712;
},
{
layerId = "F7C9FF73-DC1F-4AC6-B1F4-3E0815F912B2";
shapes = (
{
ref = O;
},
{
pos = (258,0);
ref = dotbelowcomb;
}
);
width = 735;
}
);
unicode = 7884;
},
{
glyphname = Ograve;
kernLeft = C;
kernRight = O;
layers = (
{
background = {
anchors = (
{
name = bottom;
pos = (315,0);
},
{
name = center;
pos = (373,330);
},
{
name = ogonek;
pos = (600,10);
},
{
name = top;
pos = (405,845);
},
{
name = topleft;
pos = (95,660);
},
{
name = topright;
pos = (617,660);
}
);
shapes = (
{
closed = 1;
nodes = (
(535,-20,o),
(682,207,o),
(682,407,cs),
(682,564,o),
(590,680,o),
(426,680,cs),
(194,680,o),
(48,450,o),
(48,251,cs),
(48,95,o),
(139,-20,o),
(303,-20,cs)
);
},
{
closed = 1;
nodes = (
(203,20,o),
(146,98,o),
(146,231,cs),
(146,394,o),
(227,640,o),
(419,640,cs),
(526,640,o),
(584,560,o),
(584,427,cs),
(584,265,o),
(501,20,o),
(310,20,cs)
);
},
{
closed = 1;
nodes = (
(450,715,l),
(433,845,l),
(338,845,l),
(410,715,l)
);
}
);
};
layerId = UUID0;
shapes = (
{
ref = O;
},
{
pos = (214,190);
ref = gravecomb;
}
);
width = 712;
},
{
layerId = "F7C9FF73-DC1F-4AC6-B1F4-3E0815F912B2";
shapes = (
{
ref = O;
},
{
pos = (210,190);
ref = gravecomb;
}
);
width = 735;
}
);
unicode = 210;
},
{
glyphname = Ohookabove;
kernLeft = C;
kernRight = O;
layers = (
{
background = {
anchors = (
{
name = bottom;
pos = (315,0);
},
{
name = center;
pos = (373,330);
},
{
name = ogonek;
pos = (600,10);
},
{
name = top;
pos = (469,878);
},
{
name = topleft;
pos = (95,660);
},
{
name = topright;
pos = (617,660);
}
);
shapes = (
{
closed = 1;
nodes = (
(535,-20,o),
(682,207,o),
(682,407,cs),
(682,564,o),
(590,680,o),
(426,680,cs),
(194,680,o),
(48,450,o),
(48,251,cs),
(48,95,o),
(139,-20,o),
(303,-20,cs)
);
},
{
closed = 1;
nodes = (
(203,20,o),
(146,98,o),
(146,231,cs),
(146,394,o),
(227,640,o),
(419,640,cs),
(526,640,o),
(584,560,o),
(584,427,cs),
(584,265,o),
(501,20,o),
(310,20,cs)
);
},
{
closed = 1;
nodes = (
(469,711,l),
(481,757,o),
(534,766,o),
(541,801,cs),
(552,855,o),
(511,878,o),
(472,878,cs),
(438,878,o),
(413,869,o),
(387,839,c),
(377,828,o),
(369,811,o),
(366,792,c),
(407,791,l),
(422,830,o),
(440,841,o),
(465,841,cs),
(484,841,o),
(496,830,o),
(490,801,cs),
(486,777,o),
(449,758,o),
(438,711,c)
);
}
);
};
layerId = UUID0;
shapes = (
{
ref = O;
},
{
pos = (201,190);
ref = hookabovecomb;
}
);
width = 712;
},
{
layerId = "F7C9FF73-DC1F-4AC6-B1F4-3E0815F912B2";
shapes = (
{
ref = O;
},
{
pos = (203,190);
ref = hookabovecomb;
}
);
width = 735;
}
);
unicode = 7886;
},
{
glyphname = Ohorn;
kernLeft = C;
kernRight = O;
layers = (
{
background = {
anchors = (
{
name = bottom;
pos = (315,0);
},
{
name = center;
pos = (373,330);
},
{
name = ogonek;
pos = (600,10);
},
{
name = top;
pos = (431,660);
},
{
name = topleft;
pos = (95,660);
},
{
name = topright;
pos = (617,660);
}
);
shapes = (
{
closed = 1;
nodes = (
(535,-20,o),
(682,207,o),
(682,407,cs),
(682,564,o),
(590,680,o),
(426,680,cs),
(194,680,o),
(48,450,o),
(48,251,cs),
(48,95,o),
(139,-20,o),
(303,-20,cs)
);
},
{
closed = 1;
nodes = (
(203,20,o),
(146,98,o),
(146,231,cs),
(146,394,o),
(227,640,o),
(419,640,cs),
(526,640,o),
(584,560,o),
(584,427,cs),
(584,265,o),
(501,20,o),
(310,20,cs)
);
},
{
closed = 1;
nodes = (
(649,634,o),
(694,695,o),
(708,764,c),
(651,764,l),
(641,715,o),
(602,660,o),
(530,660,c),
(525,634,l)
);
}
);
};
layerId = UUID0;
shapes = (
{
ref = O;
},
{
pos = (388,190);
ref = horncomb;
}
);
width = 712;
},
{
layerId = "F7C9FF73-DC1F-4AC6-B1F4-3E0815F912B2";
shapes = (
{
ref = O;
},
{
pos = (406,190);
ref = horncomb;
}
);
width = 735;
}
);
unicode = 416;
},
{
glyphname = Ohornacute;
kernLeft = C;
kernRight = O;
layers = (
{
background = {
anchors = (
{
name = bottom;
pos = (315,0);
},
{
name = center;
pos = (373,330);
},
{
name = ogonek;
pos = (600,10);
},
{
name = top;
pos = (460,850);
},
{
name = topleft;
pos = (95,660);
},
{
name = topright;
pos = (617,660);
}
);
shapes = (
{
closed = 1;
nodes = (
(535,-20,o),
(682,207,o),
(682,407,cs),
(682,564,o),
(590,680,o),
(426,680,cs),
(194,680,o),
(48,450,o),
(48,251,cs),
(48,95,o),
(139,-20,o),
(303,-20,cs)
);
},
{
closed = 1;
nodes = (
(203,20,o),
(146,98,o),
(146,231,cs),
(146,394,o),
(227,640,o),
(419,640,cs),
(526,640,o),
(584,560,o),
(584,427,cs),
(584,265,o),
(501,20,o),
(310,20,cs)
);
},
{
closed = 1;
nodes = (
(649,634,o),
(694,695,o),
(708,764,c),
(651,764,l),
(641,715,o),
(602,660,o),
(530,660,c),
(525,634,l)
);
},
{
closed = 1;
nodes = (
(453,730,l),
(579,845,l),
(494,845,l),
(403,730,l)
);
}
);
};
layerId = UUID0;
shapes = (
{
ref = Ohorn;
},
{
pos = (299,190);
ref = acutecomb;
}
);
width = 712;
},
{
layerId = "F7C9FF73-DC1F-4AC6-B1F4-3E0815F912B2";
shapes = (
{
ref = Ohorn;
},
{
pos = (319,190);
ref = acutecomb;
}
);
width = 735;
}
);
unicode = 7898;
},
{
glyphname = Ohorndotbelow;
kernLeft = C;
kernRight = O;
layers = (
{
background = {
anchors = (
{
name = bottom;
pos = (286,-161);
},
{
name = center;
pos = (373,330);
},
{
name = ogonek;
pos = (600,10);
},
{
name = top;
pos = (431,660);
},
{
name = topleft;
pos = (95,660);
},
{
name = topright;
pos = (617,660);
}
);
shapes = (
{
closed = 1;
nodes = (
(535,-20,o),
(682,207,o),
(682,407,cs),
(682,564,o),
(590,680,o),
(426,680,cs),
(194,680,o),
(48,450,o),
(48,251,cs),
(48,95,o),
(139,-20,o),
(303,-20,cs)
);
},
{
closed = 1;
nodes = (
(203,20,o),
(146,98,o),
(146,231,cs),
(146,394,o),
(227,640,o),
(419,640,cs),
(526,640,o),
(584,560,o),
(584,427,cs),
(584,265,o),
(501,20,o),
(310,20,cs)
);
},
{
closed = 1;
nodes = (
(649,634,o),
(694,695,o),
(708,764,c),
(651,764,l),
(641,715,o),
(602,660,o),
(530,660,c),
(525,634,l)
);
},
{
closed = 1;
nodes = (
(315,-161,o),
(340,-134,o),
(340,-108,cs),
(340,-87,o),
(325,-71,o),
(302,-71,cs),
(273,-71,o),
(249,-97,o),
(249,-123,cs),
(249,-146,o),
(264,-161,o),
(286,-161,cs)
);
}
);
};
layerId = UUID0;
shapes = (
{
ref = Ohorn;
},
{
pos = (252,0);
ref = dotbelowcomb;
}
);
width = 712;
},
{
layerId = "F7C9FF73-DC1F-4AC6-B1F4-3E0815F912B2";
shapes = (
{
ref = Ohorn;
},
{
pos = (258,0);
ref = dotbelowcomb;
}
);
width = 735;
}
);
unicode = 7906;
},
{
glyphname = Ohorngrave;
kernLeft = C;
kernRight = O;
layers = (
{
background = {
anchors = (
{
name = bottom;
pos = (315,0);
},
{
name = center;
pos = (373,330);
},
{
name = ogonek;
pos = (600,10);
},
{
name = top;
pos = (405,845);
},
{
name = topleft;
pos = (95,660);
},
{
name = topright;
pos = (617,660);
}
);
shapes = (
{
closed = 1;
nodes = (
(535,-20,o),
(682,207,o),
(682,407,cs),
(682,564,o),
(590,680,o),
(426,680,cs),
(194,680,o),
(48,450,o),
(48,251,cs),
(48,95,o),
(139,-20,o),
(303,-20,cs)
);
},
{
closed = 1;
nodes = (
(203,20,o),
(146,98,o),
(146,231,cs),
(146,394,o),
(227,640,o),
(419,640,cs),
(526,640,o),
(584,560,o),
(584,427,cs),
(584,265,o),
(501,20,o),
(310,20,cs)
);
},
{
closed = 1;
nodes = (
(649,634,o),
(694,695,o),
(708,764,c),
(651,764,l),
(641,715,o),
(602,660,o),
(530,660,c),
(525,634,l)
);
},
{
closed = 1;
nodes = (
(450,715,l),
(433,845,l),
(338,845,l),
(410,715,l)
);
}
);
};
layerId = UUID0;
shapes = (
{
ref = Ohorn;
},
{
pos = (214,190);
ref = gravecomb;
}
);
width = 712;
},
{
layerId = "F7C9FF73-DC1F-4AC6-B1F4-3E0815F912B2";
shapes = (
{
ref = Ohorn;
},
{
pos = (210,190);
ref = gravecomb;
}
);
width = 735;
}
);
unicode = 7900;
},
{
glyphname = Ohornhookabove;
kernLeft = C;
kernRight = O;
layers = (
{
background = {
anchors = (
{
name = bottom;
pos = (315,0);
},
{
name = center;
pos = (373,330);
},
{
name = ogonek;
pos = (600,10);
},
{
name = top;
pos = (469,878);
},
{
name = topleft;
pos = (95,660);
},
{
name = topright;
pos = (617,660);
}
);
shapes = (
{
closed = 1;
nodes = (
(535,-20,o),
(682,207,o),
(682,407,cs),
(682,564,o),
(590,680,o),
(426,680,cs),
(194,680,o),
(48,450,o),
(48,251,cs),
(48,95,o),
(139,-20,o),
(303,-20,cs)
);
},
{
closed = 1;
nodes = (
(203,20,o),
(146,98,o),
(146,231,cs),
(146,394,o),
(227,640,o),
(419,640,cs),
(526,640,o),
(584,560,o),
(584,427,cs),
(584,265,o),
(501,20,o),
(310,20,cs)
);
},
{
closed = 1;
nodes = (
(649,634,o),
(694,695,o),
(708,764,c),
(651,764,l),
(641,715,o),
(602,660,o),
(530,660,c),
(525,634,l)
);
},
{
closed = 1;
nodes = (
(469,711,l),
(481,757,o),
(534,766,o),
(541,801,cs),
(552,855,o),
(511,878,o),
(472,878,cs),
(438,878,o),
(413,869,o),
(387,839,c),
(377,828,o),
(369,811,o),
(366,792,c),
(407,791,l),
(422,830,o),
(440,841,o),
(465,841,cs),
(484,841,o),
(496,830,o),
(490,801,cs),
(486,777,o),
(449,758,o),
(438,711,c)
);
}
);
};
layerId = UUID0;
shapes = (
{
ref = Ohorn;
},
{
pos = (201,190);
ref = hookabovecomb;
}
);
width = 712;
},
{
layerId = "F7C9FF73-DC1F-4AC6-B1F4-3E0815F912B2";
shapes = (
{
ref = Ohorn;
},
{
pos = (203,190);
ref = hookabovecomb;
}
);
width = 735;
}
);
unicode = 7902;
},
{
glyphname = Ohorntilde;
kernLeft = C;
kernRight = O;
layers = (
{
background = {
anchors = (
{
name = bottom;
pos = (315,0);
},
{
name = center;
pos = (373,330);
},
{
name = ogonek;
pos = (600,10);
},
{
name = top;
pos = (453,845);
},
{
name = topleft;
pos = (95,660);
},
{
name = topright;
pos = (617,660);
}
);
shapes = (
{
closed = 1;
nodes = (
(535,-20,o),
(682,207,o),
(682,407,cs),
(682,564,o),
(590,680,o),
(426,680,cs),
(194,680,o),
(48,450,o),
(48,251,cs),
(48,95,o),
(139,-20,o),
(303,-20,cs)
);
},
{
closed = 1;
nodes = (
(203,20,o),
(146,98,o),
(146,231,cs),
(146,394,o),
(227,640,o),
(419,640,cs),
(526,640,o),
(584,560,o),
(584,427,cs),
(584,265,o),
(501,20,o),
(310,20,cs)
);
},
{
closed = 1;
nodes = (
(649,634,o),
(694,695,o),
(708,764,c),
(651,764,l),
(641,715,o),
(602,660,o),
(530,660,c),
(525,634,l)
);
},
{
closed = 1;
nodes = (
(354,750,l),
(357,766,o),
(376,790,o),
(391,790,cs),
(432,790,o),
(447,750,o),
(489,750,cs),
(529,750,o),
(554,774,o),
(566,845,c),
(536,845,l),
(533,829,o),
(515,805,o),
(499,805,cs),
(459,805,o),
(444,845,o),
(401,845,cs),
(361,845,o),
(337,821,o),
(324,750,c)
);
}
);
};
layerId = UUID0;
shapes = (
{
ref = Ohorn;
},
{
pos = (217,190);
ref = tildecomb;
}
);
width = 712;
},
{
layerId = "F7C9FF73-DC1F-4AC6-B1F4-3E0815F912B2";
shapes = (
{
ref = Ohorn;
},
{
pos = (224,190);
ref = tildecomb;
}
);
width = 735;
}
);
unicode = 7904;
},
{
color = 9;
glyphname = Ohungarumlaut;
layers = (
{
background = {
anchors = (
{
name = bottom;
pos = (315,0);
},
{
name = center;
pos = (373,330);
},
{
name = ogonek;
pos = (600,10);
},
{
name = top;
pos = (441,845);
},
{
name = topleft;
pos = (95,660);
},
{
name = topright;
pos = (617,660);
}
);
shapes = (
{
closed = 1;
nodes = (
(535,-20,o),
(682,207,o),
(682,407,cs),
(682,564,o),
(590,680,o),
(426,680,cs),
(194,680,o),
(48,450,o),
(48,251,cs),
(48,95,o),
(139,-20,o),
(303,-20,cs)
);
},
{
closed = 1;
nodes = (
(203,20,o),
(146,98,o),
(146,231,cs),
(146,394,o),
(227,640,o),
(419,640,cs),
(526,640,o),
(584,560,o),
(584,427,cs),
(584,265,o),
(501,20,o),
(310,20,cs)
);
},
{
closed = 1;
nodes = (
(503,715,l),
(578,845,l),
(513,845,l),
(473,715,l)
);
},
{
closed = 1;
nodes = (
(403,715,l),
(478,845,l),
(413,845,l),
(373,715,l)
);
}
);
};
layerId = UUID0;
shapes = (
{
ref = O;
},
{
pos = (272,190);
ref = hungarumlautcomb;
}
);
width = 712;
},
{
layerId = "F7C9FF73-DC1F-4AC6-B1F4-3E0815F912B2";
shapes = (
{
ref = O;
},
{
pos = (275,190);
ref = hungarumlautcomb;
}
);
width = 735;
}
);
unicode = 336;
},
{
glyphname = Oslash;
kernLeft = C;
kernRight = O;
layers = (
{
background = {
shapes = (
{
closed = 1;
nodes = (
(146,-20,l),
(169,12,l),
(206,-9,o),
(251,-20,o),
(303,-20,cs),
(535,-20,o),
(682,207,o),
(682,407,cs),
(682,494,o),
(654,566,o),
(603,615,c),
(650,680,l),
(577,680,l),
(555,650,l),
(519,669,o),
(477,680,o),
(426,680,cs),
(194,680,o),
(48,450,o),
(48,251,cs),
(48,167,o),
(74,97,o),
(122,48,c),
(73,-20,l)
);
},
{
closed = 1;
nodes = (
(267,20,o),
(231,33,o),
(203,59,c),
(559,554,l),
(576,519,o),
(584,476,o),
(584,426,cs),
(584,263,o),
(500,20,o),
(310,20,cs)
);
},
{
closed = 1;
nodes = (
(152,144,o),
(145,184,o),
(145,229,cs),
(145,392,o),
(227,640,o),
(419,640,cs),
(460,640,o),
(495,628,o),
(522,604,c),
(167,111,l)
);
}
);
};
layerId = UUID0;
shapes = (
{
closed = 1;
nodes = (
(146,-20,l),
(169,12,l),
(206,-9,o),
(251,-20,o),
(303,-20,cs),
(535,-20,o),
(682,207,o),
(682,407,cs),
(682,494,o),
(654,566,o),
(603,615,c),
(650,680,l),
(577,680,l),
(555,650,l),
(519,669,o),
(477,680,o),
(426,680,cs),
(194,680,o),
(48,450,o),
(48,251,cs),
(48,167,o),
(74,97,o),
(122,48,c),
(73,-20,l)
);
},
{
closed = 1;
nodes = (
(267,20,o),
(231,33,o),
(203,59,c),
(559,554,l),
(576,519,o),
(584,476,o),
(584,426,cs),
(584,263,o),
(500,20,o),
(310,20,cs)
);
},
{
closed = 1;
nodes = (
(152,144,o),
(145,184,o),
(145,229,cs),
(145,392,o),
(227,640,o),
(419,640,cs),
(460,640,o),
(495,628,o),
(522,604,c),
(167,111,l)
);
}
);
width = 712;
},
{
layerId = "F7C9FF73-DC1F-4AC6-B1F4-3E0815F912B2";
shapes = (
{
closed = 1;
nodes = (
(147,-20,l),
(173,13,l),
(212,-8,o),
(259,-20,o),
(315,-20,cs),
(550,-20,o),
(712,196,o),
(712,403,cs),
(712,487,o),
(686,558,o),
(635,607,c),
(691,680,l),
(599,680,l),
(576,649,l),
(536,670,o),
(490,680,o),
(438,680,cs),
(202,680,o),
(40,462,o),
(40,254,cs),
(40,173,o),
(65,104,o),
(113,56,c),
(55,-20,l)
);
},
{
closed = 1;
nodes = (
(277,25,o),
(242,40,o),
(217,70,c),
(569,522,l),
(575,498,o),
(578,470,o),
(578,438,cs),
(578,284,o),
(511,25,o),
(323,25,cs)
);
},
{
closed = 1;
nodes = (
(179,168,o),
(176,191,o),
(176,218,cs),
(176,372,o),
(243,635,o),
(430,635,cs),
(472,635,o),
(506,621,o),
(532,593,c),
(183,145,l)
);
}
);
width = 734;
}
);
unicode = 216;
},
{
glyphname = Otilde;
kernLeft = C;
kernRight = O;
layers = (
{
background = {
anchors = (
{
name = bottom;
pos = (315,0);
},
{
name = center;
pos = (373,330);
},
{
name = ogonek;
pos = (600,10);
},
{
name = top;
pos = (431,660);
},
{
name = topleft;
pos = (95,660);
},
{
name = topright;
pos = (617,660);
}
);
shapes = (
{
closed = 1;
nodes = (
(535,-20,o),
(682,207,o),
(682,407,cs),
(682,564,o),
(590,680,o),
(426,680,cs),
(194,680,o),
(48,450,o),
(48,251,cs),
(48,95,o),
(139,-20,o),
(303,-20,cs)
);
},
{
closed = 1;
nodes = (
(203,20,o),
(146,98,o),
(146,231,cs),
(146,394,o),
(227,640,o),
(419,640,cs),
(526,640,o),
(584,560,o),
(584,427,cs),
(584,265,o),
(501,20,o),
(310,20,cs)
);
},
{
closed = 1;
nodes = (
(353,738,l),
(356,754,o),
(375,778,o),
(390,778,cs),
(431,778,o),
(446,738,o),
(488,738,cs),
(528,738,o),
(553,762,o),
(565,833,c),
(535,833,l),
(532,817,o),
(514,793,o),
(498,793,cs),
(458,793,o),
(443,833,o),
(400,833,cs),
(360,833,o),
(336,809,o),
(323,738,c)
);
}
);
};
layerId = UUID0;
shapes = (
{
alignment = -1;
ref = O;
},
{
alignment = -1;
pos = (224,58);
ref = tilde;
}
);
width = 712;
},
{
layerId = "F7C9FF73-DC1F-4AC6-B1F4-3E0815F912B2";
shapes = (
{
alignment = -1;
ref = O;
},
{
alignment = -1;
pos = (242,58);
ref = tilde;
}
);
width = 735;
}
);
unicode = 213;
},
{
glyphname = OE;
kernLeft = C;
layers = (
{
background = {
shapes = (
{
closed = 1;
nodes = (
(343,-20,o),
(378,-15,o),
(417,0,c),
(504,0,l),
(757,0,ls),
(797,0,o),
(824,19,o),
(840,50,cs),
(892,145,l),
(873,150,l),
(829,70,o),
(775,40,o),
(684,40,cs),
(509,40,l),
(558,320,l),
(828,320,l),
(835,360,l),
(565,360,l),
(611,620,l),
(797,620,ls),
(866,620,o),
(905,595,o),
(905,535,cs),
(905,526,o),
(904,516,o),
(902,505,c),
(922,505,l),
(935,588,o),
(937,594,o),
(937,602,cs),
(937,634,o),
(921,660,o),
(864,660,cs),
(533,660,l),
(501,675,o),
(466,680,o),
(426,680,cs),
(194,680,o),
(48,450,o),
(48,251,cs),
(48,95,o),
(139,-20,o),
(303,-20,cs)
);
},
{
closed = 1;
nodes = (
(203,20,o),
(146,98,o),
(146,231,cs),
(146,394,o),
(227,640,o),
(419,640,cs),
(460,640,o),
(493,630,o),
(519,610,c),
(421,52,l),
(388,31,o),
(351,20,o),
(310,20,cs)
);
}
);
};
layerId = UUID0;
shapes = (
{
closed = 1;
nodes = (
(343,-20,o),
(378,-15,o),
(417,0,c),
(504,0,l),
(757,0,ls),
(797,0,o),
(824,19,o),
(840,50,cs),
(892,145,l),
(873,150,l),
(829,70,o),
(775,40,o),
(684,40,cs),
(509,40,l),
(558,320,l),
(828,320,l),
(835,360,l),
(565,360,l),
(611,620,l),
(797,620,ls),
(866,620,o),
(905,595,o),
(905,535,cs),
(905,526,o),
(904,516,o),
(902,505,c),
(922,505,l),
(935,588,o),
(937,594,o),
(937,602,cs),
(937,634,o),
(921,660,o),
(864,660,cs),
(533,660,l),
(501,675,o),
(466,680,o),
(426,680,cs),
(194,680,o),
(48,450,o),
(48,251,cs),
(48,95,o),
(139,-20,o),
(303,-20,cs)
);
},
{
closed = 1;
nodes = (
(203,20,o),
(146,98,o),
(146,231,cs),
(146,394,o),
(227,640,o),
(419,640,cs),
(460,640,o),
(493,630,o),
(519,610,c),
(421,52,l),
(388,31,o),
(351,20,o),
(310,20,cs)
);
}
);
width = 945;
},
{
layerId = "F7C9FF73-DC1F-4AC6-B1F4-3E0815F912B2";
shapes = (
{
closed = 1;
nodes = (
(360,-20,o),
(397,-15,o),
(434,0,c),
(774,0,ls),
(829,0,o),
(850,27,o),
(873,70,cs),
(916,149,l),
(891,159,l),
(840,72,o),
(785,45,o),
(712,45,cs),
(541,45,l),
(590,320,l),
(850,320,l),
(858,365,l),
(598,365,l),
(642,615,l),
(803,615,ls),
(872,615,o),
(910,589,o),
(910,528,cs),
(910,518,o),
(909,507,o),
(907,495,c),
(937,495,l),
(953,587,o),
(954,595,o),
(954,602,cs),
(954,634,o),
(938,660,o),
(881,660,cs),
(550,660,l),
(522,671,o),
(494,680,o),
(438,680,cs),
(202,680,o),
(40,464,o),
(40,256,cs),
(40,95,o),
(142,-20,o),
(315,-20,cs)
);
},
{
closed = 1;
nodes = (
(227,25,o),
(176,96,o),
(176,221,cs),
(176,373,o),
(244,635,o),
(430,635,cs),
(462,635,o),
(489,627,o),
(511,611,c),
(412,48,l),
(383,33,o),
(354,25,o),
(323,25,cs)
);
}
);
width = 958;
}
);
unicode = 338;
},
{
glyphname = P;
kernLeft = B;
layers = (
{
background = {
shapes = (
{
closed = 1;
nodes = (
(150,0,l),
(197,270,l),
(307,270,ls),
(446,270,o),
(565,363,o),
(565,503,cs),
(565,643,o),
(423,660,o),
(346,660,cs),
(86,660,l),
(82,640,l),
(102,640,ls),
(146,640,o),
(159,618,o),
(159,583,cs),
(159,569,o),
(156,557,o),
(60,0,c)
);
},
{
closed = 1;
nodes = (
(253,305,o),
(224,310,o),
(205,315,c),
(258,615,l),
(279,620,o),
(310,625,o),
(335,625,cs),
(383,625,o),
(464,592,o),
(464,499,cs),
(464,366,o),
(349,305,o),
(278,305,cs)
);
}
);
};
layerId = UUID0;
shapes = (
{
closed = 1;
nodes = (
(150,0,l),
(197,270,l),
(307,270,ls),
(446,270,o),
(565,363,o),
(565,503,cs),
(565,643,o),
(423,660,o),
(346,660,cs),
(86,660,l),
(82,640,l),
(102,640,ls),
(146,640,o),
(159,618,o),
(159,583,cs),
(159,569,o),
(156,557,o),
(60,0,c)
);
},
{
closed = 1;
nodes = (
(253,305,o),
(224,310,o),
(205,315,c),
(258,615,l),
(279,620,o),
(310,625,o),
(335,625,cs),
(383,625,o),
(464,592,o),
(464,499,cs),
(464,366,o),
(349,305,o),
(278,305,cs)
);
}
);
width = 555;
},
{
layerId = "F7C9FF73-DC1F-4AC6-B1F4-3E0815F912B2";
shapes = (
{
closed = 1;
nodes = (
(178,0,l),
(225,267,l),
(320,267,ls),
(461,267,o),
(598,351,o),
(598,500,cs),
(598,643,o),
(443,660,o),
(359,660,cs),
(84,660,l),
(79,630,l),
(89,630,ls),
(132,630,o),
(146,610,o),
(146,575,cs),
(146,562,o),
(144,546,o),
(48,0,c)
);
},
{
closed = 1;
nodes = (
(286,613,l),
(307,616,l),
(319,619,o),
(336,620,o),
(352,620,cs),
(406,620,o),
(459,595,o),
(459,511,cs),
(459,406,o),
(400,307,o),
(292,307,cs),
(232,307,l)
);
}
);
width = 580;
}
);
unicode = 80;
},
{
glyphname = Thorn;
kernLeft = B;
layers = (
{
background = {
shapes = (
{
closed = 1;
nodes = (
(147,-30,l),
(167,80,l),
(359,85,o),
(522,166,o),
(522,364,cs),
(522,488,o),
(428,550,o),
(249,550,c),
(260,615,o),
(262,625,o),
(262,636,cs),
(262,677,o),
(240,690,o),
(184,690,cs),
(94,690,l),
(91,670,l),
(111,670,ls),
(150,670,o),
(170,654,o),
(170,623,cs),
(170,615,o),
(169,610,o),
(57,-30,c)
);
},
{
closed = 1;
nodes = (
(242,510,l),
(370,510,o),
(422,452,o),
(422,363,cs),
(422,209,o),
(318,120,o),
(174,120,c)
);
}
);
};
layerId = UUID0;
shapes = (
{
closed = 1;
nodes = (
(147,-30,l),
(167,80,l),
(359,85,o),
(522,166,o),
(522,364,cs),
(522,488,o),
(428,550,o),
(249,550,c),
(260,615,o),
(262,625,o),
(262,636,cs),
(262,677,o),
(240,690,o),
(184,690,cs),
(94,690,l),
(91,670,l),
(111,670,ls),
(150,670,o),
(170,654,o),
(170,623,cs),
(170,615,o),
(169,610,o),
(57,-30,c)
);
},
{
closed = 1;
nodes = (
(242,510,l),
(370,510,o),
(422,452,o),
(422,363,cs),
(422,209,o),
(318,120,o),
(174,120,c)
);
}
);
width = 537;
},
{
layerId = "F7C9FF73-DC1F-4AC6-B1F4-3E0815F912B2";
shapes = (
{
closed = 1;
nodes = (
(175,-30,l),
(195,80,l),
(384,91,o),
(550,163,o),
(550,363,cs),
(550,484,o),
(459,546,o),
(277,550,c),
(284,585,o),
(286,606,o),
(286,623,cs),
(286,674,o),
(264,690,o),
(212,690,cs),
(92,690,l),
(87,660,l),
(97,660,ls),
(140,660,o),
(154,640,o),
(154,605,cs),
(154,592,o),
(153,577,o),
(45,-30,c)
);
},
{
closed = 1;
nodes = (
(269,504,l),
(366,497,o),
(410,446,o),
(410,363,cs),
(410,231,o),
(330,136,o),
(203,125,c)
);
}
);
width = 557;
}
);
unicode = 222;
},
{
glyphname = Q;
kernLeft = C;
kernRight = O;
layers = (
{
background = {
shapes = (
{
closed = 1;
nodes = (
(594,-185,l),
(509,-185,o),
(400,-109,o),
(387,-9,c),
(575,47,o),
(681,230,o),
(681,409,cs),
(681,565,o),
(590,680,o),
(426,680,cs),
(194,680,o),
(48,450,o),
(48,251,cs),
(48,124,o),
(107,26,o),
(215,-7,c),
(311,-160,o),
(445,-205,o),
(590,-205,c)
);
},
{
closed = 1;
nodes = (
(203,20,o),
(146,98,o),
(146,231,cs),
(146,394,o),
(227,640,o),
(419,640,cs),
(526,640,o),
(584,560,o),
(584,427,cs),
(584,265,o),
(501,20,o),
(310,20,cs)
);
}
);
};
layerId = UUID0;
shapes = (
{
closed = 1;
nodes = (
(594,-185,l),
(509,-185,o),
(400,-109,o),
(387,-9,c),
(575,47,o),
(681,230,o),
(681,409,cs),
(681,565,o),
(590,680,o),
(426,680,cs),
(194,680,o),
(48,450,o),
(48,251,cs),
(48,124,o),
(107,26,o),
(215,-7,c),
(311,-160,o),
(445,-205,o),
(590,-205,c)
);
},
{
closed = 1;
nodes = (
(203,20,o),
(146,98,o),
(146,231,cs),
(146,394,o),
(227,640,o),
(419,640,cs),
(526,640,o),
(584,560,o),
(584,427,cs),
(584,265,o),
(501,20,o),
(310,20,cs)
);
}
);
width = 711;
},
{
layerId = "F7C9FF73-DC1F-4AC6-B1F4-3E0815F912B2";
shapes = (
{
closed = 1;
nodes = (
(613,-179,l),
(530,-179,o),
(429,-104,o),
(413,-7,c),
(599,49,o),
(714,225,o),
(714,404,cs),
(714,565,o),
(612,680,o),
(439,680,cs),
(203,680,o),
(41,464,o),
(41,256,cs),
(41,131,o),
(104,30,o),
(215,-4,c),
(310,-152,o),
(455,-205,o),
(608,-205,c)
);
},
{
closed = 1;
nodes = (
(228,25,o),
(177,96,o),
(177,221,cs),
(177,373,o),
(245,635,o),
(431,635,cs),
(527,635,o),
(579,565,o),
(579,438,cs),
(579,283,o),
(512,25,o),
(324,25,cs)
);
}
);
width = 737;
}
);
unicode = 81;
},
{
glyphname = R;
kernLeft = B;
layers = (
{
background = {
shapes = (
{
closed = 1;
nodes = (
(523,-10,o),
(549,-5,o),
(560,0,c),
(563,20,l),
(515,25,o),
(483,50,o),
(448,135,cs),
(374,310,l),
(485,336,o),
(567,406,o),
(567,515,cs),
(567,643,o),
(424,660,o),
(346,660,cs),
(86,660,l),
(82,640,l),
(102,640,ls),
(146,640,o),
(159,618,o),
(159,583,cs),
(159,569,o),
(156,557,o),
(60,0,c),
(150,0,l),
(203,305,l),
(273,305,l),
(343,135,l),
(389,25,o),
(428,-10,o),
(498,-10,cs)
);
},
{
closed = 1;
nodes = (
(259,340,o),
(230,345,o),
(211,350,c),
(258,615,l),
(279,620,o),
(310,625,o),
(335,625,cs),
(386,625,o),
(467,592,o),
(467,507,cs),
(467,411,o),
(372,340,o),
(284,340,cs)
);
}
);
};
layerId = UUID0;
shapes = (
{
closed = 1;
nodes = (
(523,-10,o),
(549,-5,o),
(560,0,c),
(563,20,l),
(515,25,o),
(483,50,o),
(448,135,cs),
(374,310,l),
(485,336,o),
(567,406,o),
(567,515,cs),
(567,643,o),
(424,660,o),
(346,660,cs),
(86,660,l),
(82,640,l),
(102,640,ls),
(146,640,o),
(159,618,o),
(159,583,cs),
(159,569,o),
(156,557,o),
(60,0,c),
(150,0,l),
(203,305,l),
(273,305,l),
(343,135,l),
(389,25,o),
(428,-10,o),
(498,-10,cs)
);
},
{
closed = 1;
nodes = (
(259,340,o),
(230,345,o),
(211,350,c),
(258,615,l),
(279,620,o),
(310,625,o),
(335,625,cs),
(386,625,o),
(467,592,o),
(467,507,cs),
(467,411,o),
(372,340,o),
(284,340,cs)
);
}
);
width = 595;
},
{
layerId = "F7C9FF73-DC1F-4AC6-B1F4-3E0815F912B2";
shapes = (
{
closed = 1;
nodes = (
(536,-10,o),
(570,-5,o),
(581,0,c),
(585,25,l),
(557,30,o),
(515,50,o),
(480,135,cs),
(406,310,l),
(511,337,o),
(600,399,o),
(600,511,cs),
(600,643,o),
(448,660,o),
(360,660,cs),
(84,660,l),
(79,630,l),
(89,630,ls),
(132,630,o),
(146,610,o),
(146,575,cs),
(146,562,o),
(144,546,o),
(48,0,c),
(179,0,l),
(232,302,l),
(272,302,l),
(342,135,l),
(390,25,o),
(441,-10,o),
(511,-10,cs)
);
},
{
closed = 1;
nodes = (
(287,613,l),
(308,616,l),
(320,619,o),
(337,620,o),
(353,620,cs),
(405,620,o),
(461,593,o),
(461,516,cs),
(461,419,o),
(393,342,o),
(299,342,cs),
(239,342,l)
);
}
);
width = 616;
}
);
unicode = 82;
},
{
color = 9;
glyphname = Racute;
layers = (
{
background = {
anchors = (
{
name = top;
pos = (161,660);
}
);
shapes = (
{
closed = 1;
nodes = (
(523,-10,o),
(549,-5,o),
(560,0,c),
(563,20,l),
(515,25,o),
(483,50,o),
(448,135,cs),
(374,310,l),
(485,336,o),
(567,406,o),
(567,515,cs),
(567,643,o),
(424,660,o),
(346,660,cs),
(86,660,l),
(82,640,l),
(102,640,ls),
(146,640,o),
(159,618,o),
(159,583,cs),
(159,569,o),
(156,557,o),
(60,0,c),
(150,0,l),
(203,305,l),
(273,305,l),
(343,135,l),
(389,25,o),
(428,-10,o),
(498,-10,cs)
);
},
{
closed = 1;
nodes = (
(259,340,o),
(230,345,o),
(211,350,c),
(258,615,l),
(279,620,o),
(310,625,o),
(335,625,cs),
(386,625,o),
(467,592,o),
(467,507,cs),
(467,411,o),
(372,340,o),
(284,340,cs)
);
},
{
closed = 1;
nodes = (
(154,540,l),
(280,655,l),
(195,655,l),
(104,540,l)
);
}
);
};
layerId = UUID0;
shapes = (
{
ref = R;
},
{
ref = acutecomb;
}
);
width = 595;
},
{
layerId = "F7C9FF73-DC1F-4AC6-B1F4-3E0815F912B2";
shapes = (
{
ref = R;
},
{
ref = acutecomb;
}
);
width = 616;
}
);
unicode = 340;
},
{
color = 9;
glyphname = Rcaron;
layers = (
{
background = {
anchors = (
{
name = top;
pos = (266,635);
}
);
shapes = (
{
closed = 1;
nodes = (
(523,-10,o),
(549,-5,o),
(560,0,c),
(563,20,l),
(515,25,o),
(483,50,o),
(448,135,cs),
(374,310,l),
(485,336,o),
(567,406,o),
(567,515,cs),
(567,643,o),
(424,660,o),
(346,660,cs),
(86,660,l),
(82,640,l),
(102,640,ls),
(146,640,o),
(159,618,o),
(159,583,cs),
(159,569,o),
(156,557,o),
(60,0,c),
(150,0,l),
(203,305,l),
(273,305,l),
(343,135,l),
(389,25,o),
(428,-10,o),
(498,-10,cs)
);
},
{
closed = 1;
nodes = (
(259,340,o),
(230,345,o),
(211,350,c),
(258,615,l),
(279,620,o),
(310,625,o),
(335,625,cs),
(386,625,o),
(467,592,o),
(467,507,cs),
(467,411,o),
(372,340,o),
(284,340,cs)
);
},
{
closed = 1;
nodes = (
(291,520,l),
(391,635,l),
(341,635,l),
(242,555,l),
(171,635,l),
(121,635,l),
(181,520,l)
);
}
);
};
layerId = UUID0;
shapes = (
{
ref = R;
},
{
ref = caroncomb;
}
);
width = 595;
},
{
layerId = "F7C9FF73-DC1F-4AC6-B1F4-3E0815F912B2";
shapes = (
{
ref = R;
},
{
ref = caroncomb;
}
);
width = 616;
}
);
unicode = 344;
},
{
glyphname = S;
kernLeft = S;
kernRight = S;
layers = (
{
background = {
shapes = (
{
closed = 1;
nodes = (
(359,-17,o),
(474,73,o),
(474,198,cs),
(474,254,o),
(441,290,o),
(376,333,cs),
(266,406,ls),
(209,445,o),
(176,471,o),
(176,518,cs),
(176,590,o),
(247,638,o),
(312,638,cs),
(423,638,o),
(477,587,o),
(477,458,cs),
(477,451,l),
(495,451,l),
(514,563,o),
(515,565,o),
(515,570,cs),
(515,638,o),
(412,678,o),
(319,678,cs),
(194,678,o),
(92,591,o),
(92,472,cs),
(92,416,o),
(118,379,o),
(182,336,cs),
(292,263,ls),
(349,224,o),
(380,193,o),
(380,146,cs),
(380,66,o),
(298,23,o),
(229,23,cs),
(118,23,o),
(61,76,o),
(61,205,cs),
(61,212,l),
(43,212,l),
(22,101,o),
(23,97,o),
(23,93,cs),
(23,25,o),
(128,-17,o),
(231,-17,cs)
);
}
);
};
layerId = UUID0;
shapes = (
{
closed = 1;
nodes = (
(359,-17,o),
(474,73,o),
(474,198,cs),
(474,254,o),
(441,290,o),
(376,333,cs),
(266,406,ls),
(209,445,o),
(176,471,o),
(176,518,cs),
(176,590,o),
(247,638,o),
(312,638,cs),
(423,638,o),
(477,587,o),
(477,458,cs),
(477,451,l),
(495,451,l),
(514,563,o),
(515,565,o),
(515,570,cs),
(515,638,o),
(412,678,o),
(319,678,cs),
(194,678,o),
(92,591,o),
(92,472,cs),
(92,416,o),
(118,379,o),
(182,336,cs),
(292,263,ls),
(349,224,o),
(380,193,o),
(380,146,cs),
(380,66,o),
(298,23,o),
(229,23,cs),
(118,23,o),
(61,76,o),
(61,205,cs),
(61,212,l),
(43,212,l),
(22,101,o),
(23,97,o),
(23,93,cs),
(23,25,o),
(128,-17,o),
(231,-17,cs)
);
}
);
width = 534;
},
{
layerId = "F7C9FF73-DC1F-4AC6-B1F4-3E0815F912B2";
shapes = (
{
closed = 1;
nodes = (
(360,-17,o),
(508,54,o),
(508,198,cs),
(508,255,o),
(474,294,o),
(405,341,c),
(294,414,l),
(243,449,o),
(210,473,o),
(210,518,cs),
(210,593,o),
(281,633,o),
(346,633,cs),
(445,633,o),
(499,583,o),
(499,452,cs),
(499,441,l),
(527,441,l),
(549,562,o),
(549,566,o),
(549,570,cs),
(549,638,o),
(447,678,o),
(343,678,cs),
(211,678,o),
(86,604,o),
(86,472,cs),
(86,416,o),
(113,372,o),
(181,328,c),
(291,254,ls),
(342,219,o),
(374,191,o),
(374,144,cs),
(374,64,o),
(295,28,o),
(228,28,cs),
(117,28,o),
(65,80,o),
(65,213,cs),
(65,220,l),
(37,220,l),
(16,100,o),
(16,94,o),
(16,91,cs),
(16,23,o),
(118,-17,o),
(222,-17,cs)
);
}
);
width = 562;
}
);
unicode = 83;
},
{
color = 9;
glyphname = Sacute;
layers = (
{
background = {
anchors = (
{
name = top;
pos = (161,660);
}
);
shapes = (
{
closed = 1;
nodes = (
(359,-17,o),
(474,73,o),
(474,198,cs),
(474,254,o),
(441,290,o),
(376,333,cs),
(266,406,ls),
(209,445,o),
(176,471,o),
(176,518,cs),
(176,590,o),
(247,638,o),
(312,638,cs),
(423,638,o),
(477,587,o),
(477,458,cs),
(477,451,l),
(495,451,l),
(514,563,o),
(515,565,o),
(515,570,cs),
(515,638,o),
(412,678,o),
(319,678,cs),
(194,678,o),
(92,591,o),
(92,472,cs),
(92,416,o),
(118,379,o),
(182,336,cs),
(292,263,ls),
(349,224,o),
(380,193,o),
(380,146,cs),
(380,66,o),
(298,23,o),
(229,23,cs),
(118,23,o),
(61,76,o),
(61,205,cs),
(61,212,l),
(43,212,l),
(22,101,o),
(23,97,o),
(23,93,cs),
(23,25,o),
(128,-17,o),
(231,-17,cs)
);
},
{
closed = 1;
nodes = (
(154,540,l),
(280,655,l),
(195,655,l),
(104,540,l)
);
}
);
};
layerId = UUID0;
shapes = (
{
ref = S;
},
{
ref = acutecomb;
}
);
width = 534;
},
{
layerId = "F7C9FF73-DC1F-4AC6-B1F4-3E0815F912B2";
shapes = (
{
ref = S;
},
{
ref = acutecomb;
}
);
width = 562;
}
);
unicode = 346;
},
{
glyphname = Scaron;
kernLeft = S;
kernRight = S;
layers = (
{
background = {
shapes = (
{
closed = 1;
nodes = (
(359,-17,o),
(474,73,o),
(474,198,cs),
(474,254,o),
(441,290,o),
(376,333,cs),
(266,406,ls),
(209,445,o),
(176,471,o),
(176,518,cs),
(176,590,o),
(247,638,o),
(312,638,cs),
(423,638,o),
(477,587,o),
(477,458,cs),
(477,451,l),
(495,451,l),
(514,563,o),
(515,565,o),
(515,570,cs),
(515,638,o),
(412,678,o),
(319,678,cs),
(194,678,o),
(92,591,o),
(92,472,cs),
(92,416,o),
(118,379,o),
(182,336,cs),
(292,263,ls),
(349,224,o),
(380,193,o),
(380,146,cs),
(380,66,o),
(298,23,o),
(229,23,cs),
(118,23,o),
(61,76,o),
(61,205,cs),
(61,212,l),
(43,212,l),
(22,101,o),
(23,97,o),
(23,93,cs),
(23,25,o),
(128,-17,o),
(231,-17,cs)
);
},
{
closed = 1;
nodes = (
(389,720,l),
(489,835,l),
(439,835,l),
(340,755,l),
(269,835,l),
(219,835,l),
(279,720,l)
);
}
);
};
layerId = UUID0;
shapes = (
{
alignment = -1;
ref = S;
},
{
alignment = -1;
pos = (226,200);
ref = caron;
}
);
width = 534;
},
{
layerId = "F7C9FF73-DC1F-4AC6-B1F4-3E0815F912B2";
shapes = (
{
alignment = -1;
ref = S;
},
{
alignment = -1;
pos = (181,200);
ref = caron;
}
);
width = 562;
}
);
unicode = 352;
},
{
glyphname = Scedilla;
kernLeft = S;
kernRight = S;
layers = (
{
background = {
shapes = (
{
closed = 1;
nodes = (
(211,-186,ls),
(264,-186,o),
(305,-146,o),
(305,-97,cs),
(305,-58,o),
(276,-40,o),
(236,-40,cs),
(226,-40,l),
(231,-17,l),
(359,-12,o),
(474,70,o),
(474,198,cs),
(474,254,o),
(441,290,o),
(376,333,cs),
(266,406,ls),
(209,445,o),
(176,471,o),
(176,518,cs),
(176,590,o),
(247,638,o),
(312,638,cs),
(423,638,o),
(477,587,o),
(477,458,cs),
(477,451,l),
(495,451,l),
(514,563,o),
(515,565,o),
(515,570,cs),
(515,638,o),
(412,678,o),
(319,678,cs),
(194,678,o),
(92,591,o),
(92,472,cs),
(92,416,o),
(118,379,o),
(182,336,cs),
(292,263,ls),
(349,224,o),
(380,193,o),
(380,146,cs),
(380,66,o),
(298,23,o),
(229,23,cs),
(118,23,o),
(61,76,o),
(61,205,cs),
(61,212,l),
(43,212,l),
(22,101,o),
(23,97,o),
(23,93,cs),
(23,34,o),
(98,-3,o),
(186,-14,c),
(174,-80,l),
(219,-80,ls),
(242,-80,o),
(255,-87,o),
(255,-106,cs),
(255,-133,o),
(231,-145,o),
(208,-145,cs),
(158,-145,l),
(151,-186,l)
);
}
);
};
layerId = UUID0;
shapes = (
{
closed = 1;
nodes = (
(211,-186,ls),
(264,-186,o),
(305,-146,o),
(305,-97,cs),
(305,-58,o),
(276,-40,o),
(236,-40,cs),
(226,-40,l),
(231,-17,l),
(359,-12,o),
(474,70,o),
(474,198,cs),
(474,254,o),
(441,290,o),
(376,333,cs),
(266,406,ls),
(209,445,o),
(176,471,o),
(176,518,cs),
(176,590,o),
(247,638,o),
(312,638,cs),
(423,638,o),
(477,587,o),
(477,458,cs),
(477,451,l),
(495,451,l),
(514,563,o),
(515,565,o),
(515,570,cs),
(515,638,o),
(412,678,o),
(319,678,cs),
(194,678,o),
(92,591,o),
(92,472,cs),
(92,416,o),
(118,379,o),
(182,336,cs),
(292,263,ls),
(349,224,o),
(380,193,o),
(380,146,cs),
(380,66,o),
(298,23,o),
(229,23,cs),
(118,23,o),
(61,76,o),
(61,205,cs),
(61,212,l),
(43,212,l),
(22,101,o),
(23,97,o),
(23,93,cs),
(23,34,o),
(98,-3,o),
(186,-14,c),
(174,-80,l),
(219,-80,ls),
(242,-80,o),
(255,-87,o),
(255,-106,cs),
(255,-133,o),
(231,-145,o),
(208,-145,cs),
(158,-145,l),
(151,-186,l)
);
}
);
width = 534;
},
{
layerId = "F7C9FF73-DC1F-4AC6-B1F4-3E0815F912B2";
shapes = (
{
closed = 1;
nodes = (
(220,-206,ls),
(277,-206,o),
(325,-169,o),
(325,-113,cs),
(325,-74,o),
(297,-50,o),
(248,-50,c),
(254,-16,l),
(382,-5,o),
(508,66,o),
(508,198,cs),
(508,255,o),
(474,294,o),
(405,341,c),
(294,414,l),
(243,449,o),
(210,473,o),
(210,518,cs),
(210,593,o),
(281,633,o),
(346,633,cs),
(445,633,o),
(499,583,o),
(499,452,cs),
(499,441,l),
(527,441,l),
(549,562,o),
(549,566,o),
(549,570,cs),
(549,638,o),
(447,678,o),
(343,678,cs),
(211,678,o),
(86,604,o),
(86,472,cs),
(86,416,o),
(113,372,o),
(181,328,c),
(291,254,ls),
(342,219,o),
(374,191,o),
(374,144,cs),
(374,64,o),
(295,28,o),
(228,28,cs),
(117,28,o),
(65,80,o),
(65,213,cs),
(65,220,l),
(37,220,l),
(16,101,o),
(16,92,o),
(16,90,cs),
(16,29,o),
(97,-7,o),
(189,-15,c),
(175,-95,l),
(220,-95,ls),
(243,-95,o),
(254,-107,o),
(254,-123,c),
(251,-146,o),
(233,-160,o),
(208,-160,cs),
(158,-160,l),
(150,-206,l)
);
}
);
width = 562;
}
);
unicode = 350;
},
{
color = 9;
glyphname = Scommaaccent;
layers = (
{
background = {
anchors = (
{
name = bottom;
pos = (88,-325);
}
);
shapes = (
{
closed = 1;
nodes = (
(359,-17,o),
(474,73,o),
(474,198,cs),
(474,254,o),
(441,290,o),
(376,333,cs),
(266,406,ls),
(209,445,o),
(176,471,o),
(176,518,cs),
(176,590,o),
(247,638,o),
(312,638,cs),
(423,638,o),
(477,587,o),
(477,458,cs),
(477,451,l),
(495,451,l),
(514,563,o),
(515,565,o),
(515,570,cs),
(515,638,o),
(412,678,o),
(319,678,cs),
(194,678,o),
(92,591,o),
(92,472,cs),
(92,416,o),
(118,379,o),
(182,336,cs),
(292,263,ls),
(349,224,o),
(380,193,o),
(380,146,cs),
(380,66,o),
(298,23,o),
(229,23,cs),
(118,23,o),
(61,76,o),
(61,205,cs),
(61,212,l),
(43,212,l),
(22,101,o),
(23,97,o),
(23,93,cs),
(23,25,o),
(128,-17,o),
(231,-17,cs)
);
},
{
closed = 1;
nodes = (
(42,-283,o),
(111,-209,o),
(111,-122,cs),
(111,-87,o),
(91,-70,o),
(56,-70,cs),
(17,-70,o),
(-15,-104,o),
(-15,-140,cs),
(-15,-165,o),
(4,-185,o),
(31,-185,c),
(63,-175,l),
(52,-235,o),
(15,-275,o),
(-41,-310,c),
(-34,-325,l)
);
}
);
};
layerId = UUID0;
shapes = (
{
ref = S;
},
{
ref = commaaccentcomb;
}
);
width = 534;
},
{
layerId = "F7C9FF73-DC1F-4AC6-B1F4-3E0815F912B2";
shapes = (
{
ref = S;
},
{
ref = commaaccentcomb;
}
);
width = 562;
}
);
unicode = 536;
},
{
glyphname = T;
layers = (
{
background = {
shapes = (
{
closed = 1;
nodes = (
(296,0,l),
(405,620,l),
(630,620,l),
(637,660,l),
(172,660,ls),
(102,660,o),
(81,620,o),
(73,580,c),
(60,505,l),
(80,505,l),
(95,585,o),
(145,620,o),
(225,620,cs),
(315,620,l),
(206,0,l)
);
}
);
};
layerId = UUID0;
shapes = (
{
closed = 1;
nodes = (
(296,0,l),
(405,620,l),
(630,620,l),
(637,660,l),
(172,660,ls),
(102,660,o),
(81,620,o),
(73,580,c),
(60,505,l),
(80,505,l),
(95,585,o),
(145,620,o),
(225,620,cs),
(315,620,l),
(206,0,l)
);
}
);
width = 585;
},
{
layerId = "F7C9FF73-DC1F-4AC6-B1F4-3E0815F912B2";
shapes = (
{
closed = 1;
nodes = (
(312,0,l),
(420,615,l),
(629,615,l),
(637,660,l),
(167,660,ls),
(97,660,o),
(76,620,o),
(68,580,c),
(53,495,l),
(83,495,l),
(99,584,o),
(148,615,o),
(219,615,cs),
(290,615,l),
(182,0,l)
);
}
);
width = 577;
}
);
unicode = 84;
},
{
color = 9;
glyphname = Tcaron;
layers = (
{
background = {
anchors = (
{
name = top;
pos = (266,635);
}
);
shapes = (
{
closed = 1;
nodes = (
(296,0,l),
(405,620,l),
(630,620,l),
(637,660,l),
(172,660,ls),
(102,660,o),
(81,620,o),
(73,580,c),
(60,505,l),
(80,505,l),
(95,585,o),
(145,620,o),
(225,620,cs),
(315,620,l),
(206,0,l)
);
},
{
closed = 1;
nodes = (
(291,520,l),
(391,635,l),
(341,635,l),
(242,555,l),
(171,635,l),
(121,635,l),
(181,520,l)
);
}
);
};
layerId = UUID0;
shapes = (
{
ref = T;
},
{
ref = caroncomb;
}
);
width = 585;
},
{
layerId = "F7C9FF73-DC1F-4AC6-B1F4-3E0815F912B2";
shapes = (
{
ref = T;
},
{
ref = caroncomb;
}
);
width = 577;
}
);
unicode = 356;
},
{
color = 9;
glyphname = Tcommaaccent;
layers = (
{
background = {
anchors = (
{
name = bottom;
pos = (88,-325);
}
);
shapes = (
{
closed = 1;
nodes = (
(296,0,l),
(405,620,l),
(630,620,l),
(637,660,l),
(172,660,ls),
(102,660,o),
(81,620,o),
(73,580,c),
(60,505,l),
(80,505,l),
(95,585,o),
(145,620,o),
(225,620,cs),
(315,620,l),
(206,0,l)
);
},
{
closed = 1;
nodes = (
(42,-283,o),
(111,-209,o),
(111,-122,cs),
(111,-87,o),
(91,-70,o),
(56,-70,cs),
(17,-70,o),
(-15,-104,o),
(-15,-140,cs),
(-15,-165,o),
(4,-185,o),
(31,-185,c),
(63,-175,l),
(52,-235,o),
(15,-275,o),
(-41,-310,c),
(-34,-325,l)
);
}
);
};
layerId = UUID0;
shapes = (
{
ref = T;
},
{
ref = commaaccentcomb;
}
);
width = 585;
},
{
layerId = "F7C9FF73-DC1F-4AC6-B1F4-3E0815F912B2";
shapes = (
{
ref = T;
},
{
ref = commaaccentcomb;
}
);
width = 577;
}
);
unicode = 538;
},
{
glyphname = U;
kernLeft = U;
kernRight = U;
layers = (
{
anchors = (
{
name = bottom;
pos = (303,0);
},
{
name = ogonek;
pos = (577,10);
},
{
name = top;
pos = (419,660);
},
{
name = topright;
pos = (742,660);
}
);
background = {
anchors = (
{
name = bottom;
pos = (303,0);
},
{
name = ogonek;
pos = (577,10);
},
{
name = top;
pos = (419,660);
},
{
name = topright;
pos = (742,660);
}
);
shapes = (
{
closed = 1;
nodes = (
(507,-10,o),
(574,89,o),
(609,285,cs),
(675,660,l),
(635,660,l),
(569,285,l),
(537,109,o),
(474,30,o),
(321,30,cs),
(216,30,o),
(175,84,o),
(175,177,cs),
(175,201,o),
(178,226,o),
(183,255,cs),
(234,540,ls),
(238,564,o),
(241,583,o),
(241,599,cs),
(241,648,o),
(218,660,o),
(165,660,cs),
(75,660,l),
(71,640,l),
(91,640,ls),
(135,640,o),
(148,618,o),
(148,583,cs),
(148,570,o),
(147,556,o),
(144,540,cs),
(99,285,ls),
(92,245,o),
(88,209,o),
(88,177,cs),
(88,53,o),
(147,-10,o),
(302,-10,cs)
);
}
);
};
layerId = UUID0;
shapes = (
{
closed = 1;
nodes = (
(507,-10,o),
(574,89,o),
(609,285,cs),
(675,660,l),
(635,660,l),
(569,285,l),
(537,109,o),
(474,30,o),
(321,30,cs),
(216,30,o),
(175,84,o),
(175,177,cs),
(175,201,o),
(178,226,o),
(183,255,cs),
(234,540,ls),
(238,564,o),
(241,583,o),
(241,599,cs),
(241,648,o),
(218,660,o),
(165,660,cs),
(75,660,l),
(71,640,l),
(91,640,ls),
(135,640,o),
(148,618,o),
(148,583,cs),
(148,570,o),
(147,556,o),
(144,540,cs),
(99,285,ls),
(92,245,o),
(88,209,o),
(88,177,cs),
(88,53,o),
(147,-10,o),
(302,-10,cs)
);
}
);
width = 687;
},
{
anchors = (
{
name = bottom;
pos = (308,0);
},
{
name = ogonek;
pos = (586,10);
},
{
name = top;
pos = (424,660);
},
{
name = topright;
pos = (752,660);
}
);
layerId = "F7C9FF73-DC1F-4AC6-B1F4-3E0815F912B2";
shapes = (
{
closed = 1;
nodes = (
(513,-10,o),
(598,100,o),
(630,288,c),
(696,660,l),
(646,660,l),
(580,288,ls),
(548,110,o),
(480,30,o),
(332,30,cs),
(248,30,o),
(213,82,o),
(213,174,cs),
(213,199,o),
(216,227,o),
(268,530,c),
(273,553,o),
(275,574,o),
(275,593,cs),
(275,644,o),
(253,660,o),
(201,660,cs),
(91,660,l),
(86,630,l),
(129,630,o),
(143,610,o),
(143,575,cs),
(143,564,o),
(141,549,o),
(138,530,cs),
(90,254,o),
(86,223,o),
(86,195,cs),
(86,58,o),
(156,-10,o),
(313,-10,cs)
);
}
);
width = 697;
}
);
unicode = 85;
},
{
glyphname = Uacute;
kernLeft = U;
kernRight = U;
layers = (
{
background = {
anchors = (
{
name = bottom;
pos = (303,0);
},
{
name = ogonek;
pos = (577,10);
},
{
name = top;
pos = (419,660);
},
{
name = topright;
pos = (742,660);
}
);
shapes = (
{
closed = 1;
nodes = (
(507,-10,o),
(574,89,o),
(609,285,cs),
(675,660,l),
(635,660,l),
(569,285,l),
(537,109,o),
(474,30,o),
(321,30,cs),
(216,30,o),
(175,84,o),
(175,177,cs),
(175,201,o),
(178,226,o),
(183,255,cs),
(234,540,ls),
(238,564,o),
(241,583,o),
(241,599,cs),
(241,648,o),
(218,660,o),
(165,660,cs),
(75,660,l),
(71,640,l),
(91,640,ls),
(135,640,o),
(148,618,o),
(148,583,cs),
(148,570,o),
(147,556,o),
(144,540,cs),
(99,285,ls),
(92,245,o),
(88,209,o),
(88,177,cs),
(88,53,o),
(147,-10,o),
(302,-10,cs)
);
},
{
closed = 1;
nodes = (
(438,681,l),
(556,811,l),
(461,811,l),
(398,681,l)
);
}
);
};
layerId = UUID0;
shapes = (
{
alignment = -1;
ref = U;
},
{
alignment = -1;
pos = (295,-19);
ref = acute;
}
);
width = 687;
},
{
layerId = "F7C9FF73-DC1F-4AC6-B1F4-3E0815F912B2";
shapes = (
{
alignment = -1;
ref = U;
},
{
alignment = -1;
pos = (316,-19);
ref = acute;
}
);
width = 697;
}
);
unicode = 218;
},
{
glyphname = Ucircumflex;
kernLeft = U;
kernRight = U;
layers = (
{
background = {
anchors = (
{
name = bottom;
pos = (303,0);
},
{
name = ogonek;
pos = (577,10);
},
{
name = top;
pos = (419,660);
},
{
name = topright;
pos = (742,660);
}
);
shapes = (
{
closed = 1;
nodes = (
(507,-10,o),
(574,89,o),
(609,285,cs),
(675,660,l),
(635,660,l),
(569,285,l),
(537,109,o),
(474,30,o),
(321,30,cs),
(216,30,o),
(175,84,o),
(175,177,cs),
(175,201,o),
(178,226,o),
(183,255,cs),
(234,540,ls),
(238,564,o),
(241,583,o),
(241,599,cs),
(241,648,o),
(218,660,o),
(165,660,cs),
(75,660,l),
(71,640,l),
(91,640,ls),
(135,640,o),
(148,618,o),
(148,583,cs),
(148,570,o),
(147,556,o),
(144,540,cs),
(99,285,ls),
(92,245,o),
(88,209,o),
(88,177,cs),
(88,53,o),
(147,-10,o),
(302,-10,cs)
);
},
{
closed = 1;
nodes = (
(357,671,l),
(456,751,l),
(527,671,l),
(577,671,l),
(517,786,l),
(407,786,l),
(307,671,l)
);
}
);
};
layerId = UUID0;
shapes = (
{
alignment = -1;
ref = U;
},
{
alignment = -1;
pos = (211,11);
ref = circumflex;
}
);
width = 687;
},
{
layerId = "F7C9FF73-DC1F-4AC6-B1F4-3E0815F912B2";
shapes = (
{
alignment = -1;
ref = U;
},
{
alignment = -1;
pos = (229,21);
ref = circumflex;
}
);
width = 697;
}
);
unicode = 219;
},
{
glyphname = Udieresis;
kernLeft = U;
kernRight = U;
layers = (
{
background = {
anchors = (
{
name = bottom;
pos = (303,0);
},
{
name = ogonek;
pos = (577,10);
},
{
name = top;
pos = (446,815);
},
{
name = topright;
pos = (742,660);
}
);
shapes = (
{
closed = 1;
nodes = (
(507,-10,o),
(574,89,o),
(609,285,cs),
(675,660,l),
(635,660,l),
(569,285,l),
(537,109,o),
(474,30,o),
(321,30,cs),
(216,30,o),
(175,84,o),
(175,177,cs),
(175,201,o),
(178,226,o),
(183,255,cs),
(234,540,ls),
(238,564,o),
(241,583,o),
(241,599,cs),
(241,648,o),
(218,660,o),
(165,660,cs),
(75,660,l),
(71,640,l),
(91,640,ls),
(135,640,o),
(148,618,o),
(148,583,cs),
(148,570,o),
(147,556,o),
(144,540,cs),
(99,285,ls),
(92,245,o),
(88,209,o),
(88,177,cs),
(88,53,o),
(147,-10,o),
(302,-10,cs)
);
},
{
closed = 1;
nodes = (
(544,725,o),
(569,751,o),
(569,778,cs),
(569,799,o),
(554,815,o),
(531,815,cs),
(500,815,o),
(477,788,o),
(477,761,cs),
(477,740,o),
(492,725,o),
(515,725,cs)
);
},
{
closed = 1;
nodes = (
(374,725,o),
(399,751,o),
(399,778,cs),
(399,799,o),
(384,815,o),
(361,815,cs),
(330,815,o),
(307,788,o),
(307,761,cs),
(307,740,o),
(322,725,o),
(345,725,cs)
);
}
);
};
layerId = UUID0;
shapes = (
{
ref = U;
},
{
pos = (197,190);
ref = dieresiscomb;
}
);
width = 687;
},
{
layerId = "F7C9FF73-DC1F-4AC6-B1F4-3E0815F912B2";
shapes = (
{
ref = U;
},
{
pos = (186,190);
ref = dieresiscomb;
}
);
width = 697;
}
);
unicode = 220;
},
{
glyphname = Udotbelow;
kernLeft = U;
kernRight = U;
layers = (
{
background = {
anchors = (
{
name = bottom;
pos = (274,-161);
},
{
name = ogonek;
pos = (577,10);
},
{
name = top;
pos = (419,660);
},
{
name = topright;
pos = (742,660);
}
);
shapes = (
{
closed = 1;
nodes = (
(507,-10,o),
(574,89,o),
(609,285,cs),
(675,660,l),
(635,660,l),
(569,285,l),
(537,109,o),
(474,30,o),
(321,30,cs),
(216,30,o),
(175,84,o),
(175,177,cs),
(175,201,o),
(178,226,o),
(183,255,cs),
(234,540,ls),
(238,564,o),
(241,583,o),
(241,599,cs),
(241,648,o),
(218,660,o),
(165,660,cs),
(75,660,l),
(71,640,l),
(91,640,ls),
(135,640,o),
(148,618,o),
(148,583,cs),
(148,570,o),
(147,556,o),
(144,540,cs),
(99,285,ls),
(92,245,o),
(88,209,o),
(88,177,cs),
(88,53,o),
(147,-10,o),
(302,-10,cs)
);
},
{
closed = 1;
nodes = (
(303,-161,o),
(328,-134,o),
(328,-108,cs),
(328,-87,o),
(313,-71,o),
(290,-71,cs),
(261,-71,o),
(237,-97,o),
(237,-123,cs),
(237,-146,o),
(252,-161,o),
(274,-161,cs)
);
}
);
};
layerId = UUID0;
shapes = (
{
ref = U;
},
{
pos = (240,0);
ref = dotbelowcomb;
}
);
width = 687;
},
{
layerId = "F7C9FF73-DC1F-4AC6-B1F4-3E0815F912B2";
shapes = (
{
ref = U;
},
{
pos = (239,0);
ref = dotbelowcomb;
}
);
width = 697;
}
);
unicode = 7908;
},
{
glyphname = Ugrave;
kernLeft = U;
kernRight = U;
layers = (
{
background = {
anchors = (
{
name = bottom;
pos = (303,0);
},
{
name = ogonek;
pos = (577,10);
},
{
name = top;
pos = (393,845);
},
{
name = topright;
pos = (742,660);
}
);
shapes = (
{
closed = 1;
nodes = (
(507,-10,o),
(574,89,o),
(609,285,cs),
(675,660,l),
(635,660,l),
(569,285,l),
(537,109,o),
(474,30,o),
(321,30,cs),
(216,30,o),
(175,84,o),
(175,177,cs),
(175,201,o),
(178,226,o),
(183,255,cs),
(234,540,ls),
(238,564,o),
(241,583,o),
(241,599,cs),
(241,648,o),
(218,660,o),
(165,660,cs),
(75,660,l),
(71,640,l),
(91,640,ls),
(135,640,o),
(148,618,o),
(148,583,cs),
(148,570,o),
(147,556,o),
(144,540,cs),
(99,285,ls),
(92,245,o),
(88,209,o),
(88,177,cs),
(88,53,o),
(147,-10,o),
(302,-10,cs)
);
},
{
closed = 1;
nodes = (
(438,715,l),
(421,845,l),
(326,845,l),
(398,715,l)
);
}
);
};
layerId = UUID0;
shapes = (
{
ref = U;
},
{
pos = (202,190);
ref = gravecomb;
}
);
width = 687;
},
{
layerId = "F7C9FF73-DC1F-4AC6-B1F4-3E0815F912B2";
shapes = (
{
ref = U;
},
{
pos = (191,190);
ref = gravecomb;
}
);
width = 697;
}
);
unicode = 217;
},
{
glyphname = Uhookabove;
kernLeft = U;
kernRight = U;
layers = (
{
background = {
anchors = (
{
name = bottom;
pos = (303,0);
},
{
name = ogonek;
pos = (577,10);
},
{
name = top;
pos = (457,878);
},
{
name = topright;
pos = (742,660);
}
);
shapes = (
{
closed = 1;
nodes = (
(507,-10,o),
(574,89,o),
(609,285,cs),
(675,660,l),
(635,660,l),
(569,285,l),
(537,109,o),
(474,30,o),
(321,30,cs),
(216,30,o),
(175,84,o),
(175,177,cs),
(175,201,o),
(178,226,o),
(183,255,cs),
(234,540,ls),
(238,564,o),
(241,583,o),
(241,599,cs),
(241,648,o),
(218,660,o),
(165,660,cs),
(75,660,l),
(71,640,l),
(91,640,ls),
(135,640,o),
(148,618,o),
(148,583,cs),
(148,570,o),
(147,556,o),
(144,540,cs),
(99,285,ls),
(92,245,o),
(88,209,o),
(88,177,cs),
(88,53,o),
(147,-10,o),
(302,-10,cs)
);
},
{
closed = 1;
nodes = (
(457,711,l),
(469,757,o),
(522,766,o),
(529,801,cs),
(540,855,o),
(499,878,o),
(460,878,cs),
(426,878,o),
(401,869,o),
(375,839,c),
(365,828,o),
(357,811,o),
(354,792,c),
(395,791,l),
(410,830,o),
(428,841,o),
(453,841,cs),
(472,841,o),
(484,830,o),
(478,801,cs),
(474,777,o),
(437,758,o),
(426,711,c)
);
}
);
};
layerId = UUID0;
shapes = (
{
ref = U;
},
{
pos = (189,190);
ref = hookabovecomb;
}
);
width = 687;
},
{
layerId = "F7C9FF73-DC1F-4AC6-B1F4-3E0815F912B2";
shapes = (
{
ref = U;
},
{
pos = (184,190);
ref = hookabovecomb;
}
);
width = 697;
}
);
unicode = 7910;
},
{
glyphname = Uhorn;
kernLeft = U;
kernRight = U;
layers = (
{
background = {
anchors = (
{
name = bottom;
pos = (303,0);
},
{
name = ogonek;
pos = (577,10);
},
{
name = top;
pos = (419,660);
},
{
name = topright;
pos = (742,660);
}
);
shapes = (
{
closed = 1;
nodes = (
(507,-10,o),
(574,89,o),
(609,285,cs),
(675,660,l),
(635,660,l),
(569,285,l),
(537,109,o),
(474,30,o),
(321,30,cs),
(216,30,o),
(175,84,o),
(175,177,cs),
(175,201,o),
(178,226,o),
(183,255,cs),
(234,540,ls),
(238,564,o),
(241,583,o),
(241,599,cs),
(241,648,o),
(218,660,o),
(165,660,cs),
(75,660,l),
(71,640,l),
(91,640,ls),
(135,640,o),
(148,618,o),
(148,583,cs),
(148,570,o),
(147,556,o),
(144,540,cs),
(99,285,ls),
(92,245,o),
(88,209,o),
(88,177,cs),
(88,53,o),
(147,-10,o),
(302,-10,cs)
);
},
{
closed = 1;
nodes = (
(774,634,o),
(819,695,o),
(833,764,c),
(776,764,l),
(766,715,o),
(727,660,o),
(655,660,c),
(650,634,l)
);
}
);
};
layerId = UUID0;
shapes = (
{
ref = U;
},
{
pos = (513,190);
ref = horncomb;
}
);
width = 687;
},
{
layerId = "F7C9FF73-DC1F-4AC6-B1F4-3E0815F912B2";
shapes = (
{
ref = U;
},
{
pos = (514,190);
ref = horncomb;
}
);
width = 697;
}
);
unicode = 431;
},
{
glyphname = Uhornacute;
kernLeft = U;
kernRight = U;
layers = (
{
background = {
anchors = (
{
name = bottom;
pos = (303,0);
},
{
name = ogonek;
pos = (577,10);
},
{
name = top;
pos = (448,850);
},
{
name = topright;
pos = (742,660);
}
);
shapes = (
{
closed = 1;
nodes = (
(507,-10,o),
(574,89,o),
(609,285,cs),
(675,660,l),
(635,660,l),
(569,285,l),
(537,109,o),
(474,30,o),
(321,30,cs),
(216,30,o),
(175,84,o),
(175,177,cs),
(175,201,o),
(178,226,o),
(183,255,cs),
(234,540,ls),
(238,564,o),
(241,583,o),
(241,599,cs),
(241,648,o),
(218,660,o),
(165,660,cs),
(75,660,l),
(71,640,l),
(91,640,ls),
(135,640,o),
(148,618,o),
(148,583,cs),
(148,570,o),
(147,556,o),
(144,540,cs),
(99,285,ls),
(92,245,o),
(88,209,o),
(88,177,cs),
(88,53,o),
(147,-10,o),
(302,-10,cs)
);
},
{
closed = 1;
nodes = (
(774,634,o),
(819,695,o),
(833,764,c),
(776,764,l),
(766,715,o),
(727,660,o),
(655,660,c),
(650,634,l)
);
},
{
closed = 1;
nodes = (
(441,730,l),
(567,845,l),
(482,845,l),
(391,730,l)
);
}
);
};
layerId = UUID0;
shapes = (
{
ref = Uhorn;
},
{
pos = (287,190);
ref = acutecomb;
}
);
width = 687;
},
{
layerId = "F7C9FF73-DC1F-4AC6-B1F4-3E0815F912B2";
shapes = (
{
ref = Uhorn;
},
{
pos = (300,190);
ref = acutecomb;
}
);
width = 697;
}
);
unicode = 7912;
},
{
glyphname = Uhorndotbelow;
kernLeft = U;
kernRight = U;
layers = (
{
background = {
anchors = (
{
name = bottom;
pos = (274,-161);
},
{
name = ogonek;
pos = (577,10);
},
{
name = top;
pos = (419,660);
},
{
name = topright;
pos = (742,660);
}
);
shapes = (
{
closed = 1;
nodes = (
(507,-10,o),
(574,89,o),
(609,285,cs),
(675,660,l),
(635,660,l),
(569,285,l),
(537,109,o),
(474,30,o),
(321,30,cs),
(216,30,o),
(175,84,o),
(175,177,cs),
(175,201,o),
(178,226,o),
(183,255,cs),
(234,540,ls),
(238,564,o),
(241,583,o),
(241,599,cs),
(241,648,o),
(218,660,o),
(165,660,cs),
(75,660,l),
(71,640,l),
(91,640,ls),
(135,640,o),
(148,618,o),
(148,583,cs),
(148,570,o),
(147,556,o),
(144,540,cs),
(99,285,ls),
(92,245,o),
(88,209,o),
(88,177,cs),
(88,53,o),
(147,-10,o),
(302,-10,cs)
);
},
{
closed = 1;
nodes = (
(774,634,o),
(819,695,o),
(833,764,c),
(776,764,l),
(766,715,o),
(727,660,o),
(655,660,c),
(650,634,l)
);
},
{
closed = 1;
nodes = (
(303,-161,o),
(328,-134,o),
(328,-108,cs),
(328,-87,o),
(313,-71,o),
(290,-71,cs),
(261,-71,o),
(237,-97,o),
(237,-123,cs),
(237,-146,o),
(252,-161,o),
(274,-161,cs)
);
}
);
};
layerId = UUID0;
shapes = (
{
ref = Uhorn;
},
{
pos = (240,0);
ref = dotbelowcomb;
}
);
width = 687;
},
{
layerId = "F7C9FF73-DC1F-4AC6-B1F4-3E0815F912B2";
shapes = (
{
ref = Uhorn;
},
{
pos = (239,0);
ref = dotbelowcomb;
}
);
width = 697;
}
);
unicode = 7920;
},
{
glyphname = Uhorngrave;
kernLeft = U;
kernRight = U;
layers = (
{
background = {
anchors = (
{
name = bottom;
pos = (303,0);
},
{
name = ogonek;
pos = (577,10);
},
{
name = top;
pos = (393,845);
},
{
name = topright;
pos = (742,660);
}
);
shapes = (
{
closed = 1;
nodes = (
(507,-10,o),
(574,89,o),
(609,285,cs),
(675,660,l),
(635,660,l),
(569,285,l),
(537,109,o),
(474,30,o),
(321,30,cs),
(216,30,o),
(175,84,o),
(175,177,cs),
(175,201,o),
(178,226,o),
(183,255,cs),
(234,540,ls),
(238,564,o),
(241,583,o),
(241,599,cs),
(241,648,o),
(218,660,o),
(165,660,cs),
(75,660,l),
(71,640,l),
(91,640,ls),
(135,640,o),
(148,618,o),
(148,583,cs),
(148,570,o),
(147,556,o),
(144,540,cs),
(99,285,ls),
(92,245,o),
(88,209,o),
(88,177,cs),
(88,53,o),
(147,-10,o),
(302,-10,cs)
);
},
{
closed = 1;
nodes = (
(774,634,o),
(819,695,o),
(833,764,c),
(776,764,l),
(766,715,o),
(727,660,o),
(655,660,c),
(650,634,l)
);
},
{
closed = 1;
nodes = (
(438,715,l),
(421,845,l),
(326,845,l),
(398,715,l)
);
}
);
};
layerId = UUID0;
shapes = (
{
ref = Uhorn;
},
{
pos = (202,190);
ref = gravecomb;
}
);
width = 687;
},
{
layerId = "F7C9FF73-DC1F-4AC6-B1F4-3E0815F912B2";
shapes = (
{
ref = Uhorn;
},
{
pos = (191,190);
ref = gravecomb;
}
);
width = 697;
}
);
unicode = 7914;
},
{
glyphname = Uhornhookabove;
kernLeft = U;
kernRight = U;
layers = (
{
background = {
anchors = (
{
name = bottom;
pos = (303,0);
},
{
name = ogonek;
pos = (577,10);
},
{
name = top;
pos = (457,878);
},
{
name = topright;
pos = (742,660);
}
);
shapes = (
{
closed = 1;
nodes = (
(507,-10,o),
(574,89,o),
(609,285,cs),
(675,660,l),
(635,660,l),
(569,285,l),
(537,109,o),
(474,30,o),
(321,30,cs),
(216,30,o),
(175,84,o),
(175,177,cs),
(175,201,o),
(178,226,o),
(183,255,cs),
(234,540,ls),
(238,564,o),
(241,583,o),
(241,599,cs),
(241,648,o),
(218,660,o),
(165,660,cs),
(75,660,l),
(71,640,l),
(91,640,ls),
(135,640,o),
(148,618,o),
(148,583,cs),
(148,570,o),
(147,556,o),
(144,540,cs),
(99,285,ls),
(92,245,o),
(88,209,o),
(88,177,cs),
(88,53,o),
(147,-10,o),
(302,-10,cs)
);
},
{
closed = 1;
nodes = (
(774,634,o),
(819,695,o),
(833,764,c),
(776,764,l),
(766,715,o),
(727,660,o),
(655,660,c),
(650,634,l)
);
},
{
closed = 1;
nodes = (
(457,711,l),
(469,757,o),
(522,766,o),
(529,801,cs),
(540,855,o),
(499,878,o),
(460,878,cs),
(426,878,o),
(401,869,o),
(375,839,c),
(365,828,o),
(357,811,o),
(354,792,c),
(395,791,l),
(410,830,o),
(428,841,o),
(453,841,cs),
(472,841,o),
(484,830,o),
(478,801,cs),
(474,777,o),
(437,758,o),
(426,711,c)
);
}
);
};
layerId = UUID0;
shapes = (
{
ref = Uhorn;
},
{
pos = (189,190);
ref = hookabovecomb;
}
);
width = 687;
},
{
layerId = "F7C9FF73-DC1F-4AC6-B1F4-3E0815F912B2";
shapes = (
{
ref = Uhorn;
},
{
pos = (184,190);
ref = hookabovecomb;
}
);
width = 697;
}
);
unicode = 7916;
},
{
glyphname = Uhorntilde;
kernLeft = U;
kernRight = U;
layers = (
{
background = {
anchors = (
{
name = bottom;
pos = (303,0);
},
{
name = ogonek;
pos = (577,10);
},
{
name = top;
pos = (441,845);
},
{
name = topright;
pos = (742,660);
}
);
shapes = (
{
closed = 1;
nodes = (
(507,-10,o),
(574,89,o),
(609,285,cs),
(675,660,l),
(635,660,l),
(569,285,l),
(537,109,o),
(474,30,o),
(321,30,cs),
(216,30,o),
(175,84,o),
(175,177,cs),
(175,201,o),
(178,226,o),
(183,255,cs),
(234,540,ls),
(238,564,o),
(241,583,o),
(241,599,cs),
(241,648,o),
(218,660,o),
(165,660,cs),
(75,660,l),
(71,640,l),
(91,640,ls),
(135,640,o),
(148,618,o),
(148,583,cs),
(148,570,o),
(147,556,o),
(144,540,cs),
(99,285,ls),
(92,245,o),
(88,209,o),
(88,177,cs),
(88,53,o),
(147,-10,o),
(302,-10,cs)
);
},
{
closed = 1;
nodes = (
(774,634,o),
(819,695,o),
(833,764,c),
(776,764,l),
(766,715,o),
(727,660,o),
(655,660,c),
(650,634,l)
);
},
{
closed = 1;
nodes = (
(342,750,l),
(345,766,o),
(364,790,o),
(379,790,cs),
(420,790,o),
(435,750,o),
(477,750,cs),
(517,750,o),
(542,774,o),
(554,845,c),
(524,845,l),
(521,829,o),
(503,805,o),
(487,805,cs),
(447,805,o),
(432,845,o),
(389,845,cs),
(349,845,o),
(325,821,o),
(312,750,c)
);
}
);
};
layerId = UUID0;
shapes = (
{
ref = Uhorn;
},
{
pos = (205,190);
ref = tildecomb;
}
);
width = 687;
},
{
layerId = "F7C9FF73-DC1F-4AC6-B1F4-3E0815F912B2";
shapes = (
{
ref = Uhorn;
},
{
pos = (205,190);
ref = tildecomb;
}
);
width = 697;
}
);
unicode = 7918;
},
{
color = 9;
glyphname = Uhungarumlaut;
layers = (
{
background = {
anchors = (
{
name = bottom;
pos = (303,0);
},
{
name = ogonek;
pos = (577,10);
},
{
name = top;
pos = (429,845);
},
{
name = topright;
pos = (742,660);
}
);
shapes = (
{
closed = 1;
nodes = (
(507,-10,o),
(574,89,o),
(609,285,cs),
(675,660,l),
(635,660,l),
(569,285,l),
(537,109,o),
(474,30,o),
(321,30,cs),
(216,30,o),
(175,84,o),
(175,177,cs),
(175,201,o),
(178,226,o),
(183,255,cs),
(234,540,ls),
(238,564,o),
(241,583,o),
(241,599,cs),
(241,648,o),
(218,660,o),
(165,660,cs),
(75,660,l),
(71,640,l),
(91,640,ls),
(135,640,o),
(148,618,o),
(148,583,cs),
(148,570,o),
(147,556,o),
(144,540,cs),
(99,285,ls),
(92,245,o),
(88,209,o),
(88,177,cs),
(88,53,o),
(147,-10,o),
(302,-10,cs)
);
},
{
closed = 1;
nodes = (
(491,715,l),
(566,845,l),
(501,845,l),
(461,715,l)
);
},
{
closed = 1;
nodes = (
(391,715,l),
(466,845,l),
(401,845,l),
(361,715,l)
);
}
);
};
layerId = UUID0;
shapes = (
{
ref = U;
},
{
pos = (260,190);
ref = hungarumlautcomb;
}
);
width = 687;
},
{
layerId = "F7C9FF73-DC1F-4AC6-B1F4-3E0815F912B2";
shapes = (
{
ref = U;
},
{
pos = (256,190);
ref = hungarumlautcomb;
}
);
width = 697;
}
);
unicode = 368;
},
{
color = 9;
glyphname = Umacron;
layers = (
{
background = {
anchors = (
{
name = bottom;
pos = (303,0);
},
{
name = ogonek;
pos = (577,10);
},
{
name = top;
pos = (436,810);
},
{
name = topright;
pos = (742,660);
}
);
shapes = (
{
closed = 1;
nodes = (
(507,-10,o),
(574,89,o),
(609,285,cs),
(675,660,l),
(635,660,l),
(569,285,l),
(537,109,o),
(474,30,o),
(321,30,cs),
(216,30,o),
(175,84,o),
(175,177,cs),
(175,201,o),
(178,226,o),
(183,255,cs),
(234,540,ls),
(238,564,o),
(241,583,o),
(241,599,cs),
(241,648,o),
(218,660,o),
(165,660,cs),
(75,660,l),
(71,640,l),
(91,640,ls),
(135,640,o),
(148,618,o),
(148,583,cs),
(148,570,o),
(147,556,o),
(144,540,cs),
(99,285,ls),
(92,245,o),
(88,209,o),
(88,177,cs),
(88,53,o),
(147,-10,o),
(302,-10,cs)
);
},
{
closed = 1;
nodes = (
(558,750,l),
(558,810,l),
(303,810,l),
(303,750,l)
);
}
);
};
layerId = UUID0;
shapes = (
{
ref = U;
},
{
pos = (185,190);
ref = macroncomb;
}
);
width = 687;
},
{
layerId = "F7C9FF73-DC1F-4AC6-B1F4-3E0815F912B2";
shapes = (
{
ref = U;
},
{
pos = (175,190);
ref = macroncomb;
}
);
width = 697;
}
);
unicode = 362;
},
{
color = 9;
glyphname = Uring;
layers = (
{
background = {
anchors = (
{
name = bottom;
pos = (303,0);
},
{
name = ogonek;
pos = (577,10);
},
{
name = top;
pos = (460,890);
},
{
name = topright;
pos = (742,660);
}
);
shapes = (
{
closed = 1;
nodes = (
(507,-10,o),
(574,89,o),
(609,285,cs),
(675,660,l),
(635,660,l),
(569,285,l),
(537,109,o),
(474,30,o),
(321,30,cs),
(216,30,o),
(175,84,o),
(175,177,cs),
(175,201,o),
(178,226,o),
(183,255,cs),
(234,540,ls),
(238,564,o),
(241,583,o),
(241,599,cs),
(241,648,o),
(218,660,o),
(165,660,cs),
(75,660,l),
(71,640,l),
(91,640,ls),
(135,640,o),
(148,618,o),
(148,583,cs),
(148,570,o),
(147,556,o),
(144,540,cs),
(99,285,ls),
(92,245,o),
(88,209,o),
(88,177,cs),
(88,53,o),
(147,-10,o),
(302,-10,cs)
);
},
{
closed = 1;
nodes = (
(482,720,o),
(531,770,o),
(531,818,cs),
(531,857,o),
(500,890,o),
(460,890,cs),
(408,890,o),
(359,840,o),
(359,792,cs),
(359,753,o),
(390,720,o),
(430,720,cs)
);
},
{
closed = 1;
nodes = (
(413,755,o),
(399,770,o),
(399,794,cs),
(399,827,o),
(423,855,o),
(454,855,cs),
(477,855,o),
(491,840,o),
(491,816,cs),
(491,783,o),
(467,755,o),
(436,755,cs)
);
}
);
};
layerId = UUID0;
shapes = (
{
ref = U;
},
{
pos = (243,190);
ref = ringcomb;
}
);
width = 687;
},
{
layerId = "F7C9FF73-DC1F-4AC6-B1F4-3E0815F912B2";
shapes = (
{
ref = U;
},
{
pos = (238,190);
ref = ringcomb;
}
);
width = 697;
}
);
unicode = 366;
},
{
glyphname = Utilde;
kernLeft = U;
kernRight = U;
layers = (
{
background = {
anchors = (
{
name = bottom;
pos = (303,0);
},
{
name = ogonek;
pos = (577,10);
},
{
name = top;
pos = (441,845);
},
{
name = topright;
pos = (742,660);
}
);
shapes = (
{
closed = 1;
nodes = (
(507,-10,o),
(574,89,o),
(609,285,cs),
(675,660,l),
(635,660,l),
(569,285,l),
(537,109,o),
(474,30,o),
(321,30,cs),
(216,30,o),
(175,84,o),
(175,177,cs),
(175,201,o),
(178,226,o),
(183,255,cs),
(234,540,ls),
(238,564,o),
(241,583,o),
(241,599,cs),
(241,648,o),
(218,660,o),
(165,660,cs),
(75,660,l),
(71,640,l),
(91,640,ls),
(135,640,o),
(148,618,o),
(148,583,cs),
(148,570,o),
(147,556,o),
(144,540,cs),
(99,285,ls),
(92,245,o),
(88,209,o),
(88,177,cs),
(88,53,o),
(147,-10,o),
(302,-10,cs)
);
},
{
closed = 1;
nodes = (
(342,750,l),
(345,766,o),
(364,790,o),
(379,790,cs),
(420,790,o),
(435,750,o),
(477,750,cs),
(517,750,o),
(542,774,o),
(554,845,c),
(524,845,l),
(521,829,o),
(503,805,o),
(487,805,cs),
(447,805,o),
(432,845,o),
(389,845,cs),
(349,845,o),
(325,821,o),
(312,750,c)
);
}
);
};
layerId = UUID0;
shapes = (
{
ref = U;
},
{
pos = (205,190);
ref = tildecomb;
}
);
width = 687;
},
{
layerId = "F7C9FF73-DC1F-4AC6-B1F4-3E0815F912B2";
shapes = (
{
ref = U;
},
{
pos = (205,190);
ref = tildecomb;
}
);
width = 697;
}
);
unicode = 360;
},
{
glyphname = V;
layers = (
{
background = {
shapes = (
{
closed = 1;
nodes = (
(276,-10,l),
(681,660,l),
(633,660,l),
(405,279,o),
(507,448,o),
(321,140,c),
(221,543,l),
(195,657,o),
(119,670,o),
(70,670,cs),
(61,670,o),
(40,668,o),
(35,668,c),
(32,648,l),
(87,643,o),
(104,619,o),
(123,543,cs),
(258,-10,l)
);
}
);
};
layerId = UUID0;
shapes = (
{
closed = 1;
nodes = (
(276,-10,l),
(681,660,l),
(633,660,l),
(405,279,o),
(507,448,o),
(321,140,c),
(221,543,l),
(195,657,o),
(119,670,o),
(70,670,cs),
(61,670,o),
(40,668,o),
(35,668,c),
(32,648,l),
(87,643,o),
(104,619,o),
(123,543,cs),
(258,-10,l)
);
}
);
width = 639;
},
{
layerId = "F7C9FF73-DC1F-4AC6-B1F4-3E0815F912B2";
shapes = (
{
closed = 1;
nodes = (
(285,-10,l),
(691,660,l),
(640,660,l),
(342,169,l),
(250,543,l),
(221,657,o),
(145,670,o),
(75,670,cs),
(66,670,o),
(37,668,o),
(32,668,c),
(29,648,l),
(68,643,o),
(90,618,o),
(109,543,cs),
(245,-10,l)
);
}
);
width = 637;
}
);
unicode = 86;
},
{
glyphname = W;
layers = (
{
background = {
shapes = (
{
closed = 1;
nodes = (
(238,-10,l),
(456,411,l),
(530,-10,l),
(550,-10,l),
(897,660,l),
(854,660,l),
(594,157,l),
(528,543,l),
(506,659,o),
(437,670,o),
(380,670,cs),
(371,670,o),
(350,668,o),
(345,668,c),
(342,648,l),
(401,643,o),
(419,619,o),
(433,543,cs),
(445,474,l),
(282,157,l),
(216,543,l),
(194,659,o),
(125,670,o),
(68,670,cs),
(59,670,o),
(38,668,o),
(33,668,c),
(30,648,l),
(89,643,o),
(107,619,o),
(121,543,c),
(218,-10,l)
);
}
);
};
layerId = UUID0;
shapes = (
{
closed = 1;
nodes = (
(238,-10,l),
(456,411,l),
(530,-10,l),
(550,-10,l),
(897,660,l),
(854,660,l),
(594,157,l),
(528,543,l),
(506,659,o),
(437,670,o),
(380,670,cs),
(371,670,o),
(350,668,o),
(345,668,c),
(342,648,l),
(401,643,o),
(419,619,o),
(433,543,cs),
(445,474,l),
(282,157,l),
(216,543,l),
(194,659,o),
(125,670,o),
(68,670,cs),
(59,670,o),
(38,668,o),
(33,668,c),
(30,648,l),
(89,643,o),
(107,619,o),
(121,543,c),
(218,-10,l)
);
}
);
width = 867;
},
{
layerId = "F7C9FF73-DC1F-4AC6-B1F4-3E0815F912B2";
shapes = (
{
closed = 1;
nodes = (
(262,-9,l),
(468,383,l),
(553,-9,l),
(593,-9,l),
(948,660,l),
(900,660,l),
(644,179,l),
(565,543,l),
(541,659,o),
(460,670,o),
(390,670,cs),
(381,670,o),
(355,668,o),
(350,668,c),
(347,648,l),
(386,643,o),
(418,619,o),
(434,543,cs),
(454,454,l),
(318,198,l),
(244,543,l),
(220,659,o),
(138,670,o),
(69,670,cs),
(60,670,o),
(31,668,o),
(26,668,c),
(23,648,l),
(62,643,o),
(87,619,o),
(103,543,cs),
(222,-9,l)
);
}
);
width = 905;
}
);
unicode = 87;
},
{
color = 9;
glyphname = Wacute;
layers = (
{
background = {
anchors = (
{
name = top;
pos = (161,660);
}
);
shapes = (
{
closed = 1;
nodes = (
(238,-10,l),
(456,411,l),
(530,-10,l),
(550,-10,l),
(897,660,l),
(854,660,l),
(594,157,l),
(528,543,l),
(506,659,o),
(437,670,o),
(380,670,cs),
(371,670,o),
(350,668,o),
(345,668,c),
(342,648,l),
(401,643,o),
(419,619,o),
(433,543,cs),
(445,474,l),
(282,157,l),
(216,543,l),
(194,659,o),
(125,670,o),
(68,670,cs),
(59,670,o),
(38,668,o),
(33,668,c),
(30,648,l),
(89,643,o),
(107,619,o),
(121,543,c),
(218,-10,l)
);
},
{
closed = 1;
nodes = (
(154,540,l),
(280,655,l),
(195,655,l),
(104,540,l)
);
}
);
};
layerId = UUID0;
shapes = (
{
ref = W;
},
{
ref = acutecomb;
}
);
width = 867;
},
{
layerId = "F7C9FF73-DC1F-4AC6-B1F4-3E0815F912B2";
shapes = (
{
ref = W;
},
{
ref = acutecomb;
}
);
width = 905;
}
);
unicode = 7810;
},
{
color = 9;
glyphname = Wcircumflex;
layers = (
{
background = {
anchors = (
{
name = top;
pos = (245,635);
}
);
shapes = (
{
closed = 1;
nodes = (
(238,-10,l),
(456,411,l),
(530,-10,l),
(550,-10,l),
(897,660,l),
(854,660,l),
(594,157,l),
(528,543,l),
(506,659,o),
(437,670,o),
(380,670,cs),
(371,670,o),
(350,668,o),
(345,668,c),
(342,648,l),
(401,643,o),
(419,619,o),
(433,543,cs),
(445,474,l),
(282,157,l),
(216,543,l),
(194,659,o),
(125,670,o),
(68,670,cs),
(59,670,o),
(38,668,o),
(33,668,c),
(30,648,l),
(89,643,o),
(107,619,o),
(121,543,c),
(218,-10,l)
);
},
{
closed = 1;
nodes = (
(150,520,l),
(249,600,l),
(320,520,l),
(370,520,l),
(310,635,l),
(200,635,l),
(100,520,l)
);
}
);
};
layerId = UUID0;
shapes = (
{
ref = W;
},
{
ref = circumflexcomb;
}
);
width = 867;
},
{
layerId = "F7C9FF73-DC1F-4AC6-B1F4-3E0815F912B2";
shapes = (
{
ref = W;
},
{
ref = circumflexcomb;
}
);
width = 905;
}
);
unicode = 372;
},
{
color = 9;
glyphname = Wdieresis;
layers = (
{
background = {
anchors = (
{
name = top;
pos = (249,625);
}
);
shapes = (
{
closed = 1;
nodes = (
(238,-10,l),
(456,411,l),
(530,-10,l),
(550,-10,l),
(897,660,l),
(854,660,l),
(594,157,l),
(528,543,l),
(506,659,o),
(437,670,o),
(380,670,cs),
(371,670,o),
(350,668,o),
(345,668,c),
(342,648,l),
(401,643,o),
(419,619,o),
(433,543,cs),
(445,474,l),
(282,157,l),
(216,543,l),
(194,659,o),
(125,670,o),
(68,670,cs),
(59,670,o),
(38,668,o),
(33,668,c),
(30,648,l),
(89,643,o),
(107,619,o),
(121,543,c),
(218,-10,l)
);
},
{
closed = 1;
nodes = (
(347,535,o),
(372,561,o),
(372,588,cs),
(372,609,o),
(357,625,o),
(334,625,cs),
(303,625,o),
(280,598,o),
(280,571,cs),
(280,550,o),
(295,535,o),
(318,535,cs)
);
},
{
closed = 1;
nodes = (
(177,535,o),
(202,561,o),
(202,588,cs),
(202,609,o),
(187,625,o),
(164,625,cs),
(133,625,o),
(110,598,o),
(110,571,cs),
(110,550,o),
(125,535,o),
(148,535,cs)
);
}
);
};
layerId = UUID0;
shapes = (
{
ref = W;
},
{
ref = dieresiscomb;
}
);
width = 867;
},
{
layerId = "F7C9FF73-DC1F-4AC6-B1F4-3E0815F912B2";
shapes = (
{
ref = W;
},
{
ref = dieresiscomb;
}
);
width = 905;
}
);
unicode = 7812;
},
{
color = 9;
glyphname = Wgrave;
layers = (
{
background = {
anchors = (
{
name = top;
pos = (191,655);
}
);
shapes = (
{
closed = 1;
nodes = (
(238,-10,l),
(456,411,l),
(530,-10,l),
(550,-10,l),
(897,660,l),
(854,660,l),
(594,157,l),
(528,543,l),
(506,659,o),
(437,670,o),
(380,670,cs),
(371,670,o),
(350,668,o),
(345,668,c),
(342,648,l),
(401,643,o),
(419,619,o),
(433,543,cs),
(445,474,l),
(282,157,l),
(216,543,l),
(194,659,o),
(125,670,o),
(68,670,cs),
(59,670,o),
(38,668,o),
(33,668,c),
(30,648,l),
(89,643,o),
(107,619,o),
(121,543,c),
(218,-10,l)
);
},
{
closed = 1;
nodes = (
(236,525,l),
(219,655,l),
(124,655,l),
(196,525,l)
);
}
);
};
layerId = UUID0;
shapes = (
{
ref = W;
},
{
ref = gravecomb;
}
);
width = 867;
},
{
layerId = "F7C9FF73-DC1F-4AC6-B1F4-3E0815F912B2";
shapes = (
{
ref = W;
},
{
ref = gravecomb;
}
);
width = 905;
}
);
unicode = 7808;
},
{
glyphname = X;
layers = (
{
background = {
shapes = (
{
closed = 1;
nodes = (
(41,0,l),
(317,290,l),
(405,110,ls),
(429,59,o),
(461,0,o),
(526,0,cs),
(631,0,l),
(634,20,l),
(570,25,o),
(534,80,o),
(508,130,cs),
(390,365,l),
(667,660,l),
(617,660,l),
(371,400,l),
(297,550,l),
(273,601,o),
(241,660,o),
(177,660,cs),
(57,660,l),
(53,640,l),
(141,635,o),
(170,580,o),
(194,530,c),
(298,325,l),
(-9,0,l)
);
}
);
};
layerId = UUID0;
shapes = (
{
closed = 1;
nodes = (
(41,0,l),
(317,290,l),
(405,110,ls),
(429,59,o),
(461,0,o),
(526,0,cs),
(631,0,l),
(634,20,l),
(570,25,o),
(534,80,o),
(508,130,cs),
(390,365,l),
(667,660,l),
(617,660,l),
(371,400,l),
(297,550,l),
(273,601,o),
(241,660,o),
(177,660,cs),
(57,660,l),
(53,640,l),
(141,635,o),
(170,580,o),
(194,530,c),
(298,325,l),
(-9,0,l)
);
}
);
width = 663;
},
{
layerId = "F7C9FF73-DC1F-4AC6-B1F4-3E0815F912B2";
shapes = (
{
closed = 1;
nodes = (
(33,0,l),
(290,266,l),
(364,110,ls),
(388,59,o),
(433,0,o),
(508,0,cs),
(618,0,l),
(621,20,l),
(576,25,o),
(530,78,o),
(506,130,cs),
(392,371,l),
(672,660,l),
(607,660,l),
(371,416,l),
(307,550,ls),
(283,601,o),
(239,660,o),
(164,660,cs),
(54,660,l),
(50,640,l),
(94,634,o),
(141,582,o),
(165,530,cs),
(268,311,l),
(-32,0,l)
);
}
);
width = 645;
}
);
unicode = 88;
},
{
glyphname = Y;
kernLeft = Y;
kernRight = Y;
layers = (
{
background = {
shapes = (
{
closed = 1;
nodes = (
(328,0,l),
(377,280,l),
(678,660,l),
(633,660,l),
(365,325,l),
(259,550,l),
(235,605,o),
(203,660,o),
(129,660,cs),
(39,660,l),
(35,640,l),
(105,635,o),
(131,590,o),
(161,530,cs),
(286,273,l),
(238,0,l)
);
}
);
};
layerId = UUID0;
shapes = (
{
closed = 1;
nodes = (
(328,0,l),
(377,280,l),
(678,660,l),
(633,660,l),
(365,325,l),
(259,550,l),
(235,605,o),
(203,660,o),
(129,660,cs),
(39,660,l),
(35,640,l),
(105,635,o),
(131,590,o),
(161,530,cs),
(286,273,l),
(238,0,l)
);
}
);
width = 629;
},
{
layerId = "F7C9FF73-DC1F-4AC6-B1F4-3E0815F912B2";
shapes = (
{
closed = 1;
nodes = (
(357,0,l),
(408,291,l),
(700,660,l),
(635,660,l),
(385,345,l),
(285,550,ls),
(261,601,o),
(217,660,o),
(142,660,cs),
(33,660,l),
(29,640,l),
(72,635,o),
(119,582,o),
(143,530,c),
(273,264,l),
(227,0,l)
);
}
);
width = 639;
}
);
unicode = 89;
},
{
glyphname = Yacute;
kernLeft = Y;
kernRight = Y;
layers = (
{
background = {
shapes = (
{
closed = 1;
nodes = (
(328,0,l),
(377,280,l),
(678,660,l),
(633,660,l),
(365,325,l),
(259,550,l),
(235,605,o),
(203,660,o),
(129,660,cs),
(39,660,l),
(35,640,l),
(105,635,o),
(131,590,o),
(161,530,cs),
(286,273,l),
(238,0,l)
);
},
{
closed = 1;
nodes = (
(421,671,l),
(539,801,l),
(444,801,l),
(381,671,l)
);
}
);
};
layerId = UUID0;
shapes = (
{
alignment = -1;
ref = Y;
},
{
alignment = -1;
pos = (278,-29);
ref = acute;
}
);
width = 629;
},
{
layerId = "F7C9FF73-DC1F-4AC6-B1F4-3E0815F912B2";
shapes = (
{
alignment = -1;
ref = Y;
},
{
alignment = -1;
pos = (290,-29);
ref = acute;
}
);
width = 639;
}
);
unicode = 221;
},
{
color = 9;
glyphname = Ycircumflex;
layers = (
{
background = {
anchors = (
{
name = top;
pos = (245,635);
}
);
shapes = (
{
closed = 1;
nodes = (
(328,0,l),
(377,280,l),
(678,660,l),
(633,660,l),
(365,325,l),
(259,550,l),
(235,605,o),
(203,660,o),
(129,660,cs),
(39,660,l),
(35,640,l),
(105,635,o),
(131,590,o),
(161,530,cs),
(286,273,l),
(238,0,l)
);
},
{
closed = 1;
nodes = (
(150,520,l),
(249,600,l),
(320,520,l),
(370,520,l),
(310,635,l),
(200,635,l),
(100,520,l)
);
}
);
};
layerId = UUID0;
shapes = (
{
ref = Y;
},
{
ref = circumflexcomb;
}
);
width = 629;
},
{
layerId = "F7C9FF73-DC1F-4AC6-B1F4-3E0815F912B2";
shapes = (
{
ref = Y;
},
{
ref = circumflexcomb;
}
);
width = 639;
}
);
unicode = 374;
},
{
glyphname = Ydieresis;
kernLeft = Y;
kernRight = Y;
layers = (
{
background = {
shapes = (
{
closed = 1;
nodes = (
(328,0,l),
(377,280,l),
(678,660,l),
(633,660,l),
(365,325,l),
(259,550,l),
(235,605,o),
(203,660,o),
(129,660,cs),
(39,660,l),
(35,640,l),
(105,635,o),
(131,590,o),
(161,530,cs),
(286,273,l),
(238,0,l)
);
},
{
closed = 1;
nodes = (
(539,690,o),
(564,719,o),
(564,750,cs),
(564,774,o),
(549,790,o),
(522,790,cs),
(487,790,o),
(462,761,o),
(462,730,cs),
(462,706,o),
(477,690,o),
(504,690,cs)
);
},
{
closed = 1;
nodes = (
(369,690,o),
(394,719,o),
(394,750,cs),
(394,774,o),
(379,790,o),
(352,790,cs),
(317,790,o),
(292,761,o),
(292,730,cs),
(292,706,o),
(307,690,o),
(334,690,cs)
);
}
);
};
layerId = UUID0;
shapes = (
{
alignment = -1;
ref = Y;
},
{
alignment = -1;
pos = (183,0);
ref = dieresis;
}
);
width = 629;
},
{
layerId = "F7C9FF73-DC1F-4AC6-B1F4-3E0815F912B2";
shapes = (
{
alignment = -1;
ref = Y;
},
{
alignment = -1;
pos = (214,0);
ref = dieresis;
}
);
width = 639;
}
);
unicode = 376;
},
{
glyphname = Ydotbelow;
kernLeft = Y;
kernRight = Y;
layers = (
{
background = {
anchors = (
{
name = bottom;
pos = (245,-161);
}
);
shapes = (
{
closed = 1;
nodes = (
(328,0,l),
(377,280,l),
(678,660,l),
(633,660,l),
(365,325,l),
(259,550,l),
(235,605,o),
(203,660,o),
(129,660,cs),
(39,660,l),
(35,640,l),
(105,635,o),
(131,590,o),
(161,530,cs),
(286,273,l),
(238,0,l)
);
},
{
closed = 1;
nodes = (
(274,-161,o),
(299,-134,o),
(299,-108,cs),
(299,-87,o),
(284,-71,o),
(261,-71,cs),
(232,-71,o),
(208,-97,o),
(208,-123,cs),
(208,-146,o),
(223,-161,o),
(245,-161,cs)
);
}
);
};
layerId = UUID0;
shapes = (
{
ref = Y;
},
{
pos = (211,0);
ref = dotbelowcomb;
}
);
width = 629;
},
{
layerId = "F7C9FF73-DC1F-4AC6-B1F4-3E0815F912B2";
shapes = (
{
ref = Y;
},
{
pos = (210,0);
ref = dotbelowcomb;
}
);
width = 639;
}
);
unicode = 7924;
},
{
glyphname = Ygrave;
kernLeft = Y;
kernRight = Y;
layers = (
{
background = {
anchors = (
{
name = top;
pos = (364,845);
}
);
shapes = (
{
closed = 1;
nodes = (
(328,0,l),
(377,280,l),
(678,660,l),
(633,660,l),
(365,325,l),
(259,550,l),
(235,605,o),
(203,660,o),
(129,660,cs),
(39,660,l),
(35,640,l),
(105,635,o),
(131,590,o),
(161,530,cs),
(286,273,l),
(238,0,l)
);
},
{
closed = 1;
nodes = (
(409,715,l),
(392,845,l),
(297,845,l),
(369,715,l)
);
}
);
};
layerId = UUID0;
shapes = (
{
ref = Y;
},
{
pos = (173,190);
ref = gravecomb;
}
);
width = 629;
},
{
layerId = "F7C9FF73-DC1F-4AC6-B1F4-3E0815F912B2";
shapes = (
{
ref = Y;
},
{
pos = (162,190);
ref = gravecomb;
}
);
width = 639;
}
);
unicode = 7922;
},
{
glyphname = Yhookabove;
kernLeft = Y;
kernRight = Y;
layers = (
{
background = {
anchors = (
{
name = top;
pos = (428,878);
}
);
shapes = (
{
closed = 1;
nodes = (
(328,0,l),
(377,280,l),
(678,660,l),
(633,660,l),
(365,325,l),
(259,550,l),
(235,605,o),
(203,660,o),
(129,660,cs),
(39,660,l),
(35,640,l),
(105,635,o),
(131,590,o),
(161,530,cs),
(286,273,l),
(238,0,l)
);
},
{
closed = 1;
nodes = (
(428,711,l),
(440,757,o),
(493,766,o),
(500,801,cs),
(511,855,o),
(470,878,o),
(431,878,cs),
(397,878,o),
(372,869,o),
(346,839,c),
(336,828,o),
(328,811,o),
(325,792,c),
(366,791,l),
(381,830,o),
(399,841,o),
(424,841,cs),
(443,841,o),
(455,830,o),
(449,801,cs),
(445,777,o),
(408,758,o),
(397,711,c)
);
}
);
};
layerId = UUID0;
shapes = (
{
ref = Y;
},
{
pos = (160,190);
ref = hookabovecomb;
}
);
width = 629;
},
{
layerId = "F7C9FF73-DC1F-4AC6-B1F4-3E0815F912B2";
shapes = (
{
ref = Y;
},
{
pos = (155,190);
ref = hookabovecomb;
}
);
width = 639;
}
);
unicode = 7926;
},
{
glyphname = Ytilde;
kernLeft = Y;
kernRight = Y;
layers = (
{
background = {
anchors = (
{
name = top;
pos = (412,845);
}
);
shapes = (
{
closed = 1;
nodes = (
(328,0,l),
(377,280,l),
(678,660,l),
(633,660,l),
(365,325,l),
(259,550,l),
(235,605,o),
(203,660,o),
(129,660,cs),
(39,660,l),
(35,640,l),
(105,635,o),
(131,590,o),
(161,530,cs),
(286,273,l),
(238,0,l)
);
},
{
closed = 1;
nodes = (
(313,750,l),
(316,766,o),
(335,790,o),
(350,790,cs),
(391,790,o),
(406,750,o),
(448,750,cs),
(488,750,o),
(513,774,o),
(525,845,c),
(495,845,l),
(492,829,o),
(474,805,o),
(458,805,cs),
(418,805,o),
(403,845,o),
(360,845,cs),
(320,845,o),
(296,821,o),
(283,750,c)
);
}
);
};
layerId = UUID0;
shapes = (
{
ref = Y;
},
{
pos = (176,190);
ref = tildecomb;
}
);
width = 629;
},
{
layerId = "F7C9FF73-DC1F-4AC6-B1F4-3E0815F912B2";
shapes = (
{
ref = Y;
},
{
pos = (176,190);
ref = tildecomb;
}
);
width = 639;
}
);
unicode = 7928;
},
{
glyphname = Z;
kernLeft = Z;
kernRight = Z;
layers = (
{
background = {
shapes = (
{
closed = 1;
nodes = (
(513,0,l),
(520,40,l),
(110,40,l),
(644,660,l),
(209,660,ls),
(139,660,o),
(118,620,o),
(110,580,c),
(97,505,l),
(117,505,l),
(132,585,o),
(182,620,o),
(262,620,cs),
(502,620,l),
(-19,20,l),
(-22,0,l)
);
}
);
};
layerId = UUID0;
shapes = (
{
closed = 1;
nodes = (
(513,0,l),
(520,40,l),
(110,40,l),
(644,660,l),
(209,660,ls),
(139,660,o),
(118,620,o),
(110,580,c),
(97,505,l),
(117,505,l),
(132,585,o),
(182,620,o),
(262,620,cs),
(502,620,l),
(-19,20,l),
(-22,0,l)
);
}
);
width = 594;
},
{
layerId = "F7C9FF73-DC1F-4AC6-B1F4-3E0815F912B2";
shapes = (
{
closed = 1;
nodes = (
(528,0,l),
(535,45,l),
(148,45,l),
(649,660,l),
(194,660,ls),
(124,660,o),
(103,620,o),
(95,580,c),
(80,495,l),
(110,495,l),
(126,586,o),
(175,616,o),
(246,616,cs),
(463,616,l),
(-12,32,l),
(-17,0,l)
);
}
);
width = 599;
}
);
unicode = 90;
},
{
color = 9;
glyphname = Zacute;
layers = (
{
background = {
anchors = (
{
name = top;
pos = (161,660);
}
);
shapes = (
{
closed = 1;
nodes = (
(513,0,l),
(520,40,l),
(110,40,l),
(644,660,l),
(209,660,ls),
(139,660,o),
(118,620,o),
(110,580,c),
(97,505,l),
(117,505,l),
(132,585,o),
(182,620,o),
(262,620,cs),
(502,620,l),
(-19,20,l),
(-22,0,l)
);
},
{
closed = 1;
nodes = (
(154,540,l),
(280,655,l),
(195,655,l),
(104,540,l)
);
}
);
};
layerId = UUID0;
shapes = (
{
ref = Z;
},
{
ref = acutecomb;
}
);
width = 594;
},
{
layerId = "F7C9FF73-DC1F-4AC6-B1F4-3E0815F912B2";
shapes = (
{
ref = Z;
},
{
ref = acutecomb;
}
);
width = 599;
}
);
unicode = 377;
},
{
glyphname = Zcaron;
kernLeft = Z;
kernRight = Z;
layers = (
{
background = {
shapes = (
{
closed = 1;
nodes = (
(513,0,l),
(520,40,l),
(110,40,l),
(644,660,l),
(209,660,ls),
(139,660,o),
(118,620,o),
(110,580,c),
(97,505,l),
(117,505,l),
(132,585,o),
(182,620,o),
(262,620,cs),
(502,620,l),
(-19,20,l),
(-22,0,l)
);
},
{
closed = 1;
nodes = (
(443,710,l),
(543,825,l),
(493,825,l),
(394,745,l),
(323,825,l),
(273,825,l),
(333,710,l)
);
}
);
};
layerId = UUID0;
shapes = (
{
alignment = -1;
ref = Z;
},
{
alignment = -1;
pos = (280,190);
ref = caron;
}
);
width = 594;
},
{
layerId = "F7C9FF73-DC1F-4AC6-B1F4-3E0815F912B2";
shapes = (
{
alignment = -1;
ref = Z;
},
{
alignment = -1;
pos = (227,190);
ref = caron;
}
);
width = 599;
}
);
unicode = 381;
},
{
glyphname = a;
kernLeft = a;
kernRight = a;
layers = (
{
anchors = (
{
name = bottom;
pos = (222,0);
},
{
name = ogonek;
pos = (431,10);
},
{
name = top;
pos = (324,470);
}
);
background = {
anchors = (
{
name = bottom;
pos = (222,0);
},
{
name = ogonek;
pos = (431,10);
},
{
name = top;
pos = (324,470);
}
);
shapes = (
{
closed = 1;
nodes = (
(257,-10,o),
(297,20,o),
(321,45,c),
(326,45,l),
(354,0,l),
(404,0,l),
(419,87,l),
(486,470,l),
(436,470,l),
(393,425,l),
(388,425,l),
(373,450,o),
(342,480,o),
(273,480,c),
(111,467,o),
(32,301,o),
(32,163,cs),
(32,66,o),
(77,-10,o),
(177,-10,cs)
);
},
{
closed = 1;
nodes = (
(151,30,o),
(127,84,o),
(127,157,cs),
(127,258,o),
(173,440,o),
(296,440,cs),
(347,440,o),
(364,410,o),
(381,380,c),
(329,90,l),
(304,59,o),
(274,30,o),
(214,30,cs)
);
}
);
};
layerId = UUID0;
shapes = (
{
closed = 1;
nodes = (
(257,-10,o),
(297,20,o),
(321,45,c),
(326,45,l),
(354,0,l),
(404,0,l),
(419,87,l),
(486,470,l),
(436,470,l),
(393,425,l),
(388,425,l),
(373,450,o),
(342,480,o),
(273,480,c),
(111,467,o),
(32,301,o),
(32,163,cs),
(32,66,o),
(77,-10,o),
(177,-10,cs)
);
},
{
closed = 1;
nodes = (
(151,30,o),
(127,84,o),
(127,157,cs),
(127,258,o),
(173,440,o),
(296,440,cs),
(347,440,o),
(364,410,o),
(381,380,c),
(329,90,l),
(304,59,o),
(274,30,o),
(214,30,cs)
);
}
);
width = 525;
},
{
anchors = (
{
name = bottom;
pos = (234,0);
},
{
name = ogonek;
pos = (454,10);
},
{
name = top;
pos = (326,470);
}
);
layerId = "F7C9FF73-DC1F-4AC6-B1F4-3E0815F912B2";
shapes = (
{
closed = 1;
nodes = (
(238,-10,o),
(269,2,o),
(290,17,cs),
(302,25,o),
(313,34,o),
(322,45,c),
(327,45,l),
(355,0,l),
(440,0,l),
(457,100,l),
(522,470,l),
(437,470,l),
(394,425,l),
(389,425,l),
(383,435,o),
(375,444,o),
(366,452,cs),
(350,467,o),
(324,480,o),
(284,480,cs),
(119,480,o),
(24,309,o),
(24,170,cs),
(24,69,o),
(79,-10,o),
(198,-10,cs)
);
},
{
closed = 1;
nodes = (
(175,35,o),
(156,80,o),
(156,144,cs),
(156,227,o),
(192,435,o),
(296,435,cs),
(327,435,o),
(346,418,o),
(358,402,cs),
(365,393,o),
(371,382,o),
(375,370,c),
(327,100,l),
(319,87,o),
(310,76,o),
(299,67,cs),
(280,51,o),
(257,35,o),
(226,35,cs)
);
}
);
width = 550;
}
);
unicode = 97;
},
{
glyphname = aacute;
kernLeft = a;
kernRight = a;
layers = (
{
background = {
anchors = (
{
name = bottom;
pos = (222,0);
},
{
name = ogonek;
pos = (431,10);
},
{
name = top;
pos = (324,470);
}
);
shapes = (
{
closed = 1;
nodes = (
(257,-10,o),
(297,20,o),
(321,45,c),
(326,45,l),
(354,0,l),
(404,0,l),
(419,87,l),
(486,470,l),
(436,470,l),
(393,425,l),
(388,425,l),
(373,450,o),
(342,480,o),
(273,480,c),
(111,467,o),
(32,301,o),
(32,163,cs),
(32,66,o),
(77,-10,o),
(177,-10,cs)
);
},
{
closed = 1;
nodes = (
(151,30,o),
(127,84,o),
(127,157,cs),
(127,258,o),
(173,440,o),
(296,440,cs),
(347,440,o),
(364,410,o),
(381,380,c),
(329,90,l),
(304,59,o),
(274,30,o),
(214,30,cs)
);
},
{
closed = 1;
nodes = (
(321,526,l),
(439,656,l),
(344,656,l),
(281,526,l)
);
}
);
};
layerId = UUID0;
shapes = (
{
alignment = -1;
ref = a;
},
{
alignment = -1;
pos = (178,-174);
ref = acute;
}
);
width = 525;
},
{
layerId = "F7C9FF73-DC1F-4AC6-B1F4-3E0815F912B2";
shapes = (
{
alignment = -1;
ref = a;
},
{
alignment = -1;
pos = (197,-174);
ref = acute;
}
);
width = 550;
}
);
unicode = 225;
},
{
glyphname = abreve;
kernLeft = a;
kernRight = a;
layers = (
{
background = {
anchors = (
{
name = bottom;
pos = (222,0);
},
{
name = ogonek;
pos = (431,10);
},
{
name = top;
pos = (349,616);
}
);
shapes = (
{
closed = 1;
nodes = (
(257,-10,o),
(297,20,o),
(321,45,c),
(326,45,l),
(354,0,l),
(404,0,l),
(419,87,l),
(486,470,l),
(436,470,l),
(393,425,l),
(388,425,l),
(373,450,o),
(342,480,o),
(273,480,c),
(111,467,o),
(32,301,o),
(32,163,cs),
(32,66,o),
(77,-10,o),
(177,-10,cs)
);
},
{
closed = 1;
nodes = (
(151,30,o),
(127,84,o),
(127,157,cs),
(127,258,o),
(173,440,o),
(296,440,cs),
(347,440,o),
(364,410,o),
(381,380,c),
(329,90,l),
(304,59,o),
(274,30,o),
(214,30,cs)
);
},
{
closed = 1;
nodes = (
(392,521,o),
(439,556,o),
(471,601,c),
(454,616,l),
(425,591,o),
(393,576,o),
(337,576,cs),
(281,576,o),
(255,591,o),
(234,616,c),
(211,601,l),
(230,556,o),
(262,521,o),
(327,521,cs)
);
}
);
};
layerId = UUID0;
shapes = (
{
ref = a;
},
{
pos = (96,0);
ref = brevecomb;
}
);
width = 525;
},
{
layerId = "F7C9FF73-DC1F-4AC6-B1F4-3E0815F912B2";
shapes = (
{
ref = a;
},
{
pos = (87,0);
ref = brevecomb;
}
);
width = 550;
}
);
unicode = 259;
},
{
glyphname = abreveacute;
kernLeft = a;
kernRight = a;
layers = (
{
background = {
anchors = (
{
name = bottom;
pos = (222,0);
},
{
name = ogonek;
pos = (431,10);
},
{
name = top;
pos = (378,759);
}
);
shapes = (
{
closed = 1;
nodes = (
(257,-10,o),
(297,20,o),
(321,45,c),
(326,45,l),
(354,0,l),
(404,0,l),
(419,87,l),
(486,470,l),
(436,470,l),
(393,425,l),
(388,425,l),
(373,450,o),
(342,480,o),
(273,480,c),
(111,467,o),
(32,301,o),
(32,163,cs),
(32,66,o),
(77,-10,o),
(177,-10,cs)
);
},
{
closed = 1;
nodes = (
(151,30,o),
(127,84,o),
(127,157,cs),
(127,258,o),
(173,440,o),
(296,440,cs),
(347,440,o),
(364,410,o),
(381,380,c),
(329,90,l),
(304,59,o),
(274,30,o),
(214,30,cs)
);
},
{
closed = 1;
nodes = (
(392,521,o),
(439,556,o),
(471,601,c),
(454,616,l),
(425,591,o),
(393,576,o),
(337,576,cs),
(281,576,o),
(255,591,o),
(234,616,c),
(211,601,l),
(230,556,o),
(262,521,o),
(327,521,cs)
);
},
{
closed = 1;
nodes = (
(371,639,l),
(497,754,l),
(412,754,l),
(321,639,l)
);
}
);
};
layerId = UUID0;
shapes = (
{
ref = a;
},
{
pos = (96,0);
ref = brevecomb_acutecomb;
}
);
width = 525;
},
{
layerId = "F7C9FF73-DC1F-4AC6-B1F4-3E0815F912B2";
shapes = (
{
ref = a;
},
{
pos = (87,0);
ref = brevecomb_acutecomb;
}
);
width = 550;
}
);
unicode = 7855;
},
{
glyphname = abrevedotbelow;
kernLeft = a;
kernRight = a;
layers = (
{
background = {
anchors = (
{
name = bottom;
pos = (193,-161);
},
{
name = ogonek;
pos = (431,10);
},
{
name = top;
pos = (349,616);
}
);
shapes = (
{
closed = 1;
nodes = (
(257,-10,o),
(297,20,o),
(321,45,c),
(326,45,l),
(354,0,l),
(404,0,l),
(419,87,l),
(486,470,l),
(436,470,l),
(393,425,l),
(388,425,l),
(373,450,o),
(342,480,o),
(273,480,c),
(111,467,o),
(32,301,o),
(32,163,cs),
(32,66,o),
(77,-10,o),
(177,-10,cs)
);
},
{
closed = 1;
nodes = (
(151,30,o),
(127,84,o),
(127,157,cs),
(127,258,o),
(173,440,o),
(296,440,cs),
(347,440,o),
(364,410,o),
(381,380,c),
(329,90,l),
(304,59,o),
(274,30,o),
(214,30,cs)
);
},
{
closed = 1;
nodes = (
(222,-161,o),
(247,-134,o),
(247,-108,cs),
(247,-87,o),
(232,-71,o),
(209,-71,cs),
(180,-71,o),
(156,-97,o),
(156,-123,cs),
(156,-146,o),
(171,-161,o),
(193,-161,cs)
);
},
{
closed = 1;
nodes = (
(392,521,o),
(439,556,o),
(471,601,c),
(454,616,l),
(425,591,o),
(393,576,o),
(337,576,cs),
(281,576,o),
(255,591,o),
(234,616,c),
(211,601,l),
(230,556,o),
(262,521,o),
(327,521,cs)
);
}
);
};
layerId = UUID0;
shapes = (
{
ref = a;
},
{
pos = (159,0);
ref = dotbelowcomb;
},
{
pos = (96,0);
ref = brevecomb;
}
);
width = 525;
},
{
layerId = "F7C9FF73-DC1F-4AC6-B1F4-3E0815F912B2";
shapes = (
{
ref = a;
},
{
pos = (165,0);
ref = dotbelowcomb;
},
{
pos = (87,0);
ref = brevecomb;
}
);
width = 550;
}
);
unicode = 7863;
},
{
glyphname = abrevegrave;
kernLeft = a;
kernRight = a;
layers = (
{
background = {
anchors = (
{
name = bottom;
pos = (222,0);
},
{
name = ogonek;
pos = (431,10);
},
{
name = top;
pos = (323,764);
}
);
shapes = (
{
closed = 1;
nodes = (
(257,-10,o),
(297,20,o),
(321,45,c),
(326,45,l),
(354,0,l),
(404,0,l),
(419,87,l),
(486,470,l),
(436,470,l),
(393,425,l),
(388,425,l),
(373,450,o),
(342,480,o),
(273,480,c),
(111,467,o),
(32,301,o),
(32,163,cs),
(32,66,o),
(77,-10,o),
(177,-10,cs)
);
},
{
closed = 1;
nodes = (
(151,30,o),
(127,84,o),
(127,157,cs),
(127,258,o),
(173,440,o),
(296,440,cs),
(347,440,o),
(364,410,o),
(381,380,c),
(329,90,l),
(304,59,o),
(274,30,o),
(214,30,cs)
);
},
{
closed = 1;
nodes = (
(392,521,o),
(439,556,o),
(471,601,c),
(454,616,l),
(425,591,o),
(393,576,o),
(337,576,cs),
(281,576,o),
(255,591,o),
(234,616,c),
(211,601,l),
(230,556,o),
(262,521,o),
(327,521,cs)
);
},
{
closed = 1;
nodes = (
(368,634,l),
(351,764,l),
(256,764,l),
(328,634,l)
);
}
);
};
layerId = UUID0;
shapes = (
{
ref = a;
},
{
pos = (96,0);
ref = brevecomb_gravecomb;
}
);
width = 525;
},
{
layerId = "F7C9FF73-DC1F-4AC6-B1F4-3E0815F912B2";
shapes = (
{
ref = a;
},
{
pos = (87,0);
ref = brevecomb_gravecomb;
}
);
width = 550;
}
);
unicode = 7857;
},
{
glyphname = abrevehookabove;
kernLeft = a;
kernRight = a;
layers = (
{
background = {
anchors = (
{
name = bottom;
pos = (222,0);
},
{
name = ogonek;
pos = (431,10);
},
{
name = top;
pos = (356,799);
}
);
shapes = (
{
closed = 1;
nodes = (
(257,-10,o),
(297,20,o),
(321,45,c),
(326,45,l),
(354,0,l),
(404,0,l),
(419,87,l),
(486,470,l),
(436,470,l),
(393,425,l),
(388,425,l),
(373,450,o),
(342,480,o),
(273,480,c),
(111,467,o),
(32,301,o),
(32,163,cs),
(32,66,o),
(77,-10,o),
(177,-10,cs)
);
},
{
closed = 1;
nodes = (
(151,30,o),
(127,84,o),
(127,157,cs),
(127,258,o),
(173,440,o),
(296,440,cs),
(347,440,o),
(364,410,o),
(381,380,c),
(329,90,l),
(304,59,o),
(274,30,o),
(214,30,cs)
);
},
{
closed = 1;
nodes = (
(392,521,o),
(439,556,o),
(471,601,c),
(454,616,l),
(425,591,o),
(393,576,o),
(337,576,cs),
(281,576,o),
(255,591,o),
(234,616,c),
(211,601,l),
(230,556,o),
(262,521,o),
(327,521,cs)
);
},
{
closed = 1;
nodes = (
(356,632,l),
(368,678,o),
(421,687,o),
(428,722,cs),
(439,776,o),
(398,799,o),
(359,799,cs),
(325,799,o),
(300,790,o),
(274,760,c),
(264,749,o),
(256,732,o),
(253,713,c),
(294,712,l),
(309,751,o),
(327,762,o),
(352,762,cs),
(371,762,o),
(383,751,o),
(377,722,cs),
(373,698,o),
(336,679,o),
(325,632,c)
);
}
);
};
layerId = UUID0;
shapes = (
{
ref = a;
},
{
pos = (96,0);
ref = brevecomb_hookabovecomb;
}
);
width = 525;
},
{
layerId = "F7C9FF73-DC1F-4AC6-B1F4-3E0815F912B2";
shapes = (
{
ref = a;
},
{
pos = (87,0);
ref = brevecomb_hookabovecomb;
}
);
width = 550;
}
);
unicode = 7859;
},
{
glyphname = abrevetilde;
kernLeft = a;
kernRight = a;
layers = (
{
background = {
anchors = (
{
name = bottom;
pos = (222,0);
},
{
name = ogonek;
pos = (431,10);
},
{
name = top;
pos = (371,750);
}
);
shapes = (
{
closed = 1;
nodes = (
(257,-10,o),
(297,20,o),
(321,45,c),
(326,45,l),
(354,0,l),
(404,0,l),
(419,87,l),
(486,470,l),
(436,470,l),
(393,425,l),
(388,425,l),
(373,450,o),
(342,480,o),
(273,480,c),
(111,467,o),
(32,301,o),
(32,163,cs),
(32,66,o),
(77,-10,o),
(177,-10,cs)
);
},
{
closed = 1;
nodes = (
(151,30,o),
(127,84,o),
(127,157,cs),
(127,258,o),
(173,440,o),
(296,440,cs),
(347,440,o),
(364,410,o),
(381,380,c),
(329,90,l),
(304,59,o),
(274,30,o),
(214,30,cs)
);
},
{
closed = 1;
nodes = (
(392,521,o),
(439,556,o),
(471,601,c),
(454,616,l),
(425,591,o),
(393,576,o),
(337,576,cs),
(281,576,o),
(255,591,o),
(234,616,c),
(211,601,l),
(230,556,o),
(262,521,o),
(327,521,cs)
);
},
{
closed = 1;
nodes = (
(272,655,l),
(275,671,o),
(294,695,o),
(309,695,cs),
(350,695,o),
(365,655,o),
(407,655,cs),
(447,655,o),
(472,679,o),
(484,750,c),
(454,750,l),
(451,734,o),
(433,710,o),
(417,710,cs),
(377,710,o),
(362,750,o),
(319,750,cs),
(279,750,o),
(255,726,o),
(242,655,c)
);
}
);
};
layerId = UUID0;
shapes = (
{
ref = a;
},
{
pos = (96,0);
ref = brevecomb_tildecomb;
}
);
width = 525;
},
{
layerId = "F7C9FF73-DC1F-4AC6-B1F4-3E0815F912B2";
shapes = (
{
ref = a;
},
{
pos = (87,0);
ref = brevecomb_tildecomb;
}
);
width = 550;
}
);
unicode = 7861;
},
{
glyphname = acircumflex;
kernLeft = a;
kernRight = a;
layers = (
{
background = {
anchors = (
{
name = bottom;
pos = (222,0);
},
{
name = ogonek;
pos = (431,10);
},
{
name = top;
pos = (324,470);
}
);
shapes = (
{
closed = 1;
nodes = (
(257,-10,o),
(297,20,o),
(321,45,c),
(326,45,l),
(354,0,l),
(404,0,l),
(419,87,l),
(486,470,l),
(436,470,l),
(393,425,l),
(388,425,l),
(373,450,o),
(342,480,o),
(273,480,c),
(111,467,o),
(32,301,o),
(32,163,cs),
(32,66,o),
(77,-10,o),
(177,-10,cs)
);
},
{
closed = 1;
nodes = (
(151,30,o),
(127,84,o),
(127,157,cs),
(127,258,o),
(173,440,o),
(296,440,cs),
(347,440,o),
(364,410,o),
(381,380,c),
(329,90,l),
(304,59,o),
(274,30,o),
(214,30,cs)
);
},
{
closed = 1;
nodes = (
(229,531,l),
(328,611,l),
(399,531,l),
(449,531,l),
(389,646,l),
(279,646,l),
(179,531,l)
);
}
);
};
layerId = UUID0;
shapes = (
{
alignment = -1;
ref = a;
},
{
alignment = -1;
pos = (83,-129);
ref = circumflex;
}
);
width = 525;
},
{
layerId = "F7C9FF73-DC1F-4AC6-B1F4-3E0815F912B2";
shapes = (
{
alignment = -1;
ref = a;
},
{
alignment = -1;
pos = (88,-129);
ref = circumflex;
}
);
width = 550;
}
);
unicode = 226;
},
{
glyphname = acircumflexacute;
kernLeft = a;
kernRight = a;
layers = (
{
background = {
anchors = (
{
name = bottom;
pos = (222,0);
},
{
name = ogonek;
pos = (431,10);
},
{
name = top;
pos = (523,703);
}
);
shapes = (
{
closed = 1;
nodes = (
(257,-10,o),
(297,20,o),
(321,45,c),
(326,45,l),
(354,0,l),
(404,0,l),
(419,87,l),
(486,470,l),
(436,470,l),
(393,425,l),
(388,425,l),
(373,450,o),
(342,480,o),
(273,480,c),
(111,467,o),
(32,301,o),
(32,163,cs),
(32,66,o),
(77,-10,o),
(177,-10,cs)
);
},
{
closed = 1;
nodes = (
(151,30,o),
(127,84,o),
(127,157,cs),
(127,258,o),
(173,440,o),
(296,440,cs),
(347,440,o),
(364,410,o),
(381,380,c),
(329,90,l),
(304,59,o),
(274,30,o),
(214,30,cs)
);
},
{
closed = 1;
nodes = (
(241,520,l),
(340,600,l),
(411,520,l),
(461,520,l),
(401,635,l),
(291,635,l),
(191,520,l)
);
},
{
closed = 1;
nodes = (
(516,583,l),
(642,698,l),
(557,698,l),
(466,583,l)
);
}
);
};
layerId = UUID0;
shapes = (
{
ref = a;
},
{
pos = (91,0);
ref = circumflexcomb_acutecomb;
}
);
width = 525;
},
{
layerId = "F7C9FF73-DC1F-4AC6-B1F4-3E0815F912B2";
shapes = (
{
ref = a;
},
{
pos = (77,0);
ref = circumflexcomb_acutecomb;
}
);
width = 550;
}
);
unicode = 7845;
},
{
glyphname = acircumflexdotbelow;
kernLeft = a;
kernRight = a;
layers = (
{
background = {
anchors = (
{
name = bottom;
pos = (193,-161);
},
{
name = ogonek;
pos = (431,10);
},
{
name = top;
pos = (336,635);
}
);
shapes = (
{
closed = 1;
nodes = (
(257,-10,o),
(297,20,o),
(321,45,c),
(326,45,l),
(354,0,l),
(404,0,l),
(419,87,l),
(486,470,l),
(436,470,l),
(393,425,l),
(388,425,l),
(373,450,o),
(342,480,o),
(273,480,c),
(111,467,o),
(32,301,o),
(32,163,cs),
(32,66,o),
(77,-10,o),
(177,-10,cs)
);
},
{
closed = 1;
nodes = (
(151,30,o),
(127,84,o),
(127,157,cs),
(127,258,o),
(173,440,o),
(296,440,cs),
(347,440,o),
(364,410,o),
(381,380,c),
(329,90,l),
(304,59,o),
(274,30,o),
(214,30,cs)
);
},
{
closed = 1;
nodes = (
(222,-161,o),
(247,-134,o),
(247,-108,cs),
(247,-87,o),
(232,-71,o),
(209,-71,cs),
(180,-71,o),
(156,-97,o),
(156,-123,cs),
(156,-146,o),
(171,-161,o),
(193,-161,cs)
);
},
{
closed = 1;
nodes = (
(241,520,l),
(340,600,l),
(411,520,l),
(461,520,l),
(401,635,l),
(291,635,l),
(191,520,l)
);
}
);
};
layerId = UUID0;
shapes = (
{
ref = a;
},
{
pos = (159,0);
ref = dotbelowcomb;
},
{
pos = (91,0);
ref = circumflexcomb;
}
);
width = 525;
},
{
layerId = "F7C9FF73-DC1F-4AC6-B1F4-3E0815F912B2";
shapes = (
{
ref = a;
},
{
pos = (165,0);
ref = dotbelowcomb;
},
{
pos = (77,0);
ref = circumflexcomb;
}
);
width = 550;
}
);
unicode = 7853;
},
{
glyphname = acircumflexgrave;
kernLeft = a;
kernRight = a;
layers = (
{
background = {
anchors = (
{
name = bottom;
pos = (222,0);
},
{
name = ogonek;
pos = (431,10);
},
{
name = top;
pos = (477,729);
}
);
shapes = (
{
closed = 1;
nodes = (
(257,-10,o),
(297,20,o),
(321,45,c),
(326,45,l),
(354,0,l),
(404,0,l),
(419,87,l),
(486,470,l),
(436,470,l),
(393,425,l),
(388,425,l),
(373,450,o),
(342,480,o),
(273,480,c),
(111,467,o),
(32,301,o),
(32,163,cs),
(32,66,o),
(77,-10,o),
(177,-10,cs)
);
},
{
closed = 1;
nodes = (
(151,30,o),
(127,84,o),
(127,157,cs),
(127,258,o),
(173,440,o),
(296,440,cs),
(347,440,o),
(364,410,o),
(381,380,c),
(329,90,l),
(304,59,o),
(274,30,o),
(214,30,cs)
);
},
{
closed = 1;
nodes = (
(241,520,l),
(340,600,l),
(411,520,l),
(461,520,l),
(401,635,l),
(291,635,l),
(191,520,l)
);
},
{
closed = 1;
nodes = (
(522,599,l),
(505,729,l),
(410,729,l),
(482,599,l)
);
}
);
};
layerId = UUID0;
shapes = (
{
ref = a;
},
{
pos = (91,0);
ref = circumflexcomb_gravecomb;
}
);
width = 525;
},
{
layerId = "F7C9FF73-DC1F-4AC6-B1F4-3E0815F912B2";
shapes = (
{
ref = a;
},
{
pos = (77,0);
ref = circumflexcomb_gravecomb;
}
);
width = 550;
}
);
unicode = 7847;
},
{
glyphname = acircumflexhookabove;
kernLeft = a;
kernRight = a;
layers = (
{
background = {
anchors = (
{
name = bottom;
pos = (222,0);
},
{
name = ogonek;
pos = (431,10);
},
{
name = top;
pos = (509,771);
}
);
shapes = (
{
closed = 1;
nodes = (
(257,-10,o),
(297,20,o),
(321,45,c),
(326,45,l),
(354,0,l),
(404,0,l),
(419,87,l),
(486,470,l),
(436,470,l),
(393,425,l),
(388,425,l),
(373,450,o),
(342,480,o),
(273,480,c),
(111,467,o),
(32,301,o),
(32,163,cs),
(32,66,o),
(77,-10,o),
(177,-10,cs)
);
},
{
closed = 1;
nodes = (
(151,30,o),
(127,84,o),
(127,157,cs),
(127,258,o),
(173,440,o),
(296,440,cs),
(347,440,o),
(364,410,o),
(381,380,c),
(329,90,l),
(304,59,o),
(274,30,o),
(214,30,cs)
);
},
{
closed = 1;
nodes = (
(241,520,l),
(340,600,l),
(411,520,l),
(461,520,l),
(401,635,l),
(291,635,l),
(191,520,l)
);
},
{
closed = 1;
nodes = (
(509,604,l),
(521,650,o),
(574,659,o),
(581,694,cs),
(592,748,o),
(551,771,o),
(512,771,cs),
(478,771,o),
(453,762,o),
(427,732,c),
(417,721,o),
(409,704,o),
(406,685,c),
(447,684,l),
(462,723,o),
(480,734,o),
(505,734,cs),
(524,734,o),
(536,723,o),
(530,694,cs),
(526,670,o),
(489,651,o),
(478,604,c)
);
}
);
};
layerId = UUID0;
shapes = (
{
ref = a;
},
{
pos = (91,0);
ref = circumflexcomb_hookabovecomb;
}
);
width = 525;
},
{
layerId = "F7C9FF73-DC1F-4AC6-B1F4-3E0815F912B2";
shapes = (
{
ref = a;
},
{
pos = (77,0);
ref = circumflexcomb_hookabovecomb;
}
);
width = 550;
}
);
unicode = 7849;
},
{
glyphname = acircumflextilde;
kernLeft = a;
kernRight = a;
layers = (
{
background = {
anchors = (
{
name = bottom;
pos = (222,0);
},
{
name = ogonek;
pos = (431,10);
},
{
name = top;
pos = (375,764);
}
);
shapes = (
{
closed = 1;
nodes = (
(257,-10,o),
(297,20,o),
(321,45,c),
(326,45,l),
(354,0,l),
(404,0,l),
(419,87,l),
(486,470,l),
(436,470,l),
(393,425,l),
(388,425,l),
(373,450,o),
(342,480,o),
(273,480,c),
(111,467,o),
(32,301,o),
(32,163,cs),
(32,66,o),
(77,-10,o),
(177,-10,cs)
);
},
{
closed = 1;
nodes = (
(151,30,o),
(127,84,o),
(127,157,cs),
(127,258,o),
(173,440,o),
(296,440,cs),
(347,440,o),
(364,410,o),
(381,380,c),
(329,90,l),
(304,59,o),
(274,30,o),
(214,30,cs)
);
},
{
closed = 1;
nodes = (
(241,520,l),
(340,600,l),
(411,520,l),
(461,520,l),
(401,635,l),
(291,635,l),
(191,520,l)
);
},
{
closed = 1;
nodes = (
(276,669,l),
(279,685,o),
(298,709,o),
(313,709,cs),
(354,709,o),
(369,669,o),
(411,669,cs),
(451,669,o),
(476,693,o),
(488,764,c),
(458,764,l),
(455,748,o),
(437,724,o),
(421,724,cs),
(381,724,o),
(366,764,o),
(323,764,cs),
(283,764,o),
(259,740,o),
(246,669,c)
);
}
);
};
layerId = UUID0;
shapes = (
{
ref = a;
},
{
pos = (91,0);
ref = circumflexcomb_tildecomb;
}
);
width = 525;
},
{
layerId = "F7C9FF73-DC1F-4AC6-B1F4-3E0815F912B2";
shapes = (
{
ref = a;
},
{
pos = (77,0);
ref = circumflexcomb_tildecomb;
}
);
width = 550;
}
);
unicode = 7851;
},
